<svg width="100" height="100" viewBox="0 0 100 100" fill="none" xmlns="http://www.w3.org/2000/svg">
<path d="M91.2109 5.53809H8.78906C3.94277 5.53809 0 9.48086 0 14.3271V68.6773C0 73.5236 3.94277 77.4664 8.78906 77.4664H38.3777V88.6023H33.9662C32.3482 88.6023 31.0365 89.9141 31.0365 91.532C31.0365 93.15 32.3482 94.4617 33.9662 94.4617H66.034C67.652 94.4617 68.9637 93.15 68.9637 91.532C68.9637 89.9141 67.652 88.6023 66.034 88.6023H61.6225V77.4664H91.2109C96.0572 77.4664 100 73.5236 100 68.6773V14.3271C100 9.48086 96.0572 5.53809 91.2109 5.53809ZM55.7629 88.6025H44.2371V77.4666H55.7629V88.6025ZM94.1406 68.6775C94.1406 70.293 92.8264 71.6072 91.2109 71.6072H8.78906C7.17363 71.6072 5.85938 70.293 5.85938 68.6775V64.2238H94.1406V68.6775ZM94.1406 58.3644H5.85938V14.3271C5.85938 12.7117 7.17363 11.3975 8.78906 11.3975H91.2109C92.8264 11.3975 94.1406 12.7117 94.1406 14.3271V58.3644Z" fill="white"/>
<path d="M35.6008 42.3616L27.6646 36.9434L35.6008 31.5253C36.9371 30.613 37.2809 28.7901 36.3686 27.4538C35.4564 26.1177 33.6334 25.7739 32.2971 26.686L20.8168 34.5237C20.0172 35.0696 19.5391 35.9753 19.5391 36.9432C19.5391 37.9112 20.0172 38.8173 20.8168 39.3632L32.2971 47.2009C32.8023 47.546 33.3773 47.7112 33.9463 47.7112C34.8818 47.7112 35.8014 47.264 36.3686 46.4331C37.2809 45.0968 36.9371 43.2739 35.6008 42.3616Z" fill="white"/>
<path d="M79.1832 34.5247L67.703 26.687C66.3668 25.7749 64.544 26.1186 63.6315 27.4548C62.7192 28.7911 63.0629 30.6139 64.3992 31.5263L72.3354 36.9444L64.3992 42.3622C63.0629 43.2745 62.7192 45.0973 63.6315 46.4337C64.1989 47.2647 65.118 47.7118 66.0537 47.7118C66.6227 47.7118 67.1977 47.5464 67.703 47.2015L79.1832 39.3638C79.9828 38.8179 80.461 37.9122 80.461 36.9442C80.461 35.9763 79.9826 35.0708 79.1832 34.5247Z" fill="white"/>
<path d="M57.3164 23.9291C55.9063 23.1363 54.1199 23.6367 53.327 25.0475L41.5656 45.9699C40.7731 47.3801 41.2736 49.1662 42.6842 49.9592C43.1381 50.2144 43.6309 50.3355 44.117 50.3355C45.1412 50.3355 46.1358 49.7975 46.6734 48.841L58.4348 27.9185C59.2277 26.5082 58.727 24.7221 57.3164 23.9291Z" fill="white"/>
</svg>
