<svg width="52" height="52" viewBox="0 0 52 52" fill="none" xmlns="http://www.w3.org/2000/svg">
<path d="M45.3111 26.0672C45.4828 25.2818 45.8017 24.536 46.2508 23.8692C46.7609 23.21 47.1278 22.4516 47.328 21.6426C47.5282 20.8335 47.5574 19.9915 47.4135 19.1705C47.0411 18.4029 46.511 17.7225 45.8578 17.1736C45.2046 16.6247 44.4431 16.2197 43.6228 15.985C42.9144 15.742 42.252 15.3812 41.6637 14.9179C41.3623 14.2004 41.195 13.4339 41.1699 12.6562C41.1967 11.8086 41.0446 10.9648 40.7235 10.18C40.4024 9.39508 39.9195 8.68666 39.3064 8.10086C38.5646 7.70216 37.7469 7.46483 36.9069 7.40444C36.067 7.34405 35.2237 7.46197 34.4325 7.75045C33.6783 7.97054 32.8883 8.04088 32.1071 7.95751C31.4873 7.56897 30.9468 7.06632 30.5144 6.47625C30.031 5.74188 29.3955 5.12003 28.6507 4.65285C27.906 4.18567 27.0695 3.88409 26.198 3.76855C25.3443 3.88336 24.5244 4.17673 23.7917 4.62954C23.0589 5.08235 22.4298 5.68445 21.9453 6.39661C21.5129 6.98668 20.9724 7.48933 20.3525 7.87787C19.5713 7.96124 18.7813 7.8909 18.0271 7.67081C17.2359 7.38233 16.3927 7.26441 15.5527 7.3248C14.7128 7.38519 13.8951 7.62252 13.1533 8.02122C12.5286 8.60137 12.0339 9.30726 11.7017 10.0924C11.3695 10.8776 11.2074 11.7242 11.226 12.5765C11.2108 13.3811 11.0433 14.1756 10.7323 14.9179C10.1497 15.4095 9.48705 15.7974 8.77319 16.0647C7.9529 16.2993 7.19131 16.7043 6.53812 17.2532C5.88494 17.8021 5.35484 18.4826 4.98242 19.2502C4.83859 20.0712 4.86771 20.9131 5.06793 21.7222C5.26814 22.5313 5.63503 23.2897 6.14513 23.9488C6.58525 24.5916 6.90376 25.3096 7.08486 26.0672C6.91311 26.8526 6.59425 27.5984 6.14513 28.2652C5.63503 28.9244 5.26814 29.6827 5.06793 30.4918C4.86771 31.3009 4.83859 32.1429 4.98242 32.9638C5.35484 33.7315 5.88494 34.4119 6.53812 34.9608C7.19131 35.5097 7.9529 35.9147 8.77319 36.1494C9.48705 36.4166 10.1497 36.8045 10.7323 37.2961C11.0336 38.0136 11.201 38.7801 11.226 39.5579C11.1993 40.4054 11.3514 41.2492 11.6725 42.034C11.9936 42.8189 12.4764 43.5273 13.0896 44.1131C13.8313 44.5118 14.649 44.7492 15.489 44.8096C16.329 44.87 17.1722 44.752 17.9634 44.4636C18.7176 44.2435 19.5076 44.1731 20.2888 44.2565C20.9087 44.645 21.4492 45.1477 21.8816 45.7378C22.373 46.4574 23.0122 47.0639 23.7565 47.5171C24.5008 47.9703 25.3331 48.2596 26.198 48.3658C27.0516 48.251 27.8715 47.9576 28.6043 47.5048C29.337 47.052 29.9661 46.4499 30.4506 45.7378C30.8831 45.1477 31.4236 44.645 32.0434 44.2565C32.8246 44.1731 33.6146 44.2435 34.3688 44.4636C35.16 44.752 36.0033 44.87 36.8432 44.8096C37.6832 44.7492 38.5009 44.5118 39.2427 44.1131C39.8558 43.5273 40.3387 42.8189 40.6598 42.034C40.9809 41.2492 41.133 40.4054 41.1062 39.5579C41.1313 38.7801 41.2986 38.0136 41.6 37.2961C42.1825 36.8045 42.8452 36.4166 43.5591 36.1494C44.3793 35.9147 45.1409 35.5097 45.7941 34.9608C46.4473 34.4119 46.9774 33.7315 47.3498 32.9638C47.4937 32.1429 47.4645 31.3009 47.2643 30.4918C47.0641 29.6827 46.6972 28.9244 46.1871 28.2652C45.7604 27.5937 45.4633 26.8481 45.3111 26.0672ZM43.4794 29.8261C43.8298 30.4632 44.4988 31.6259 44.3873 31.9763C44.2758 32.3267 43.0812 32.9001 42.3167 33.2505C41.0882 33.6984 39.9926 34.4489 39.1312 35.4326C38.4482 36.5696 38.0748 37.8655 38.0481 39.1915C37.9525 39.9879 37.8092 41.294 37.4747 41.5329C37.1402 41.7718 35.882 41.5329 35.1174 41.3417C33.8324 40.9681 32.4739 40.9242 31.1674 41.2143C29.9548 41.7264 28.8957 42.544 28.0934 43.5875C27.52 44.2246 26.6439 45.1803 26.198 45.1803C25.752 45.1803 24.876 44.2246 24.3026 43.5875C23.5136 42.5505 22.4716 41.7334 21.2764 41.2143C20.8112 41.0754 20.3283 41.0057 19.8429 41.0073C18.9953 41.0392 18.1527 41.1512 17.3263 41.3417C16.5618 41.501 15.2716 41.7559 14.969 41.5329C14.6664 41.3099 14.4912 39.9401 14.3956 39.1915C14.3689 37.8655 13.9955 36.5696 13.3126 35.4326C12.4512 34.4489 11.3555 33.6984 10.127 33.2505C9.36251 32.9001 8.19979 32.3745 8.05645 31.9763C7.9131 31.5781 8.61391 30.4632 8.96432 29.8261C9.71074 28.7038 10.1601 27.4105 10.2704 26.0672C10.1458 24.7195 9.67989 23.4259 8.91654 22.3083C8.56613 21.6712 7.89717 20.5085 8.00866 20.158C8.12016 19.8076 9.31473 19.2342 10.0793 18.8838C11.3077 18.436 12.4034 17.6855 13.2648 16.7018C13.9477 15.5648 14.3211 14.2689 14.3478 12.9428C14.4434 12.1465 14.5868 10.8404 14.9212 10.6015C15.2557 10.3626 16.514 10.6015 17.2785 10.7926C18.5636 11.1663 19.9221 11.2101 21.2286 10.92C22.4412 10.408 23.5003 9.59034 24.3026 8.54683C24.876 7.90973 25.752 6.95407 26.198 6.95407C26.6439 6.95407 27.52 7.90973 28.0934 8.54683C28.8824 9.58384 29.9244 10.401 31.1196 10.92C32.4261 11.2101 33.7846 11.1663 35.0696 10.7926C35.8313 10.5539 36.6367 10.4886 37.4269 10.6015C37.7614 10.8404 37.9048 12.1943 38.0003 12.9428C38.0271 14.2689 38.4005 15.5648 39.0834 16.7018C39.9448 17.6855 41.0404 18.436 42.2689 18.8838C43.0334 19.2342 44.1962 19.7599 44.3395 20.158C44.4829 20.5562 43.782 21.7508 43.4316 22.3083C42.6852 23.4305 42.2358 24.7239 42.1256 26.0672C42.2501 27.4148 42.7161 28.7085 43.4794 29.8261Z" fill="white"/>
<path d="M32.2354 20.1574L23.8097 28.599L20.9587 25.732C20.8101 25.5835 20.6338 25.4657 20.4398 25.3854C20.2458 25.305 20.0378 25.2636 19.8278 25.2636C19.6178 25.2636 19.4098 25.305 19.2158 25.3854C19.0217 25.4657 18.8454 25.5835 18.6969 25.732C18.5484 25.8805 18.4306 26.0568 18.3503 26.2509C18.2699 26.4449 18.2285 26.6529 18.2285 26.8629C18.2285 27.0729 18.2699 27.2809 18.3503 27.4749C18.4306 27.6689 18.5484 27.8453 18.6969 27.9938L22.6788 31.9757C22.8269 32.1249 23.0031 32.2434 23.1972 32.3243C23.3912 32.4052 23.5994 32.4468 23.8097 32.4468C24.02 32.4468 24.2281 32.4052 24.4222 32.3243C24.6163 32.2434 24.7925 32.1249 24.9405 31.9757L34.4971 22.4191C34.6456 22.2706 34.7634 22.0943 34.8438 21.9003C34.9242 21.7062 34.9655 21.4983 34.9655 21.2882C34.9655 21.0782 34.9242 20.8703 34.8438 20.6762C34.7634 20.4822 34.6456 20.3059 34.4971 20.1574C34.3486 20.0089 34.1723 19.8911 33.9783 19.8107C33.7842 19.7303 33.5763 19.689 33.3662 19.689C33.1562 19.689 32.9483 19.7303 32.7542 19.8107C32.5602 19.8911 32.3839 20.0089 32.2354 20.1574Z" fill="white"/>
</svg>
