<svg width="46" height="46" viewBox="0 0 46 46" fill="none" xmlns="http://www.w3.org/2000/svg">
<path d="M40.7016 5.78337C37.3764 2.45821 32.9552 0.626953 28.2523 0.626953C23.5497 0.626953 19.1285 2.45821 15.803 5.78337C13.9659 7.62051 12.6202 9.76631 11.7665 12.0552L10.3351 10.9916C10.5498 10.4313 10.6673 9.82334 10.6673 9.18838C10.6673 6.39794 8.39673 4.12736 5.60594 4.12736C2.81516 4.12736 0.544922 6.39794 0.544922 9.18873C0.544922 11.9792 2.81516 14.2497 5.60594 14.2497C6.80224 14.2497 7.90279 13.8325 8.77003 13.1361L10.9922 14.7876C10.1433 19.0757 10.8965 23.6214 13.2524 27.4529L1.74744 38.9576C0.154336 40.5507 0.154336 43.1424 1.74744 44.7355C2.51893 45.507 3.54517 45.9321 4.63674 45.9321C5.72796 45.9321 6.7542 45.507 7.52603 44.7355L19.0276 33.2343C21.7741 34.93 24.9434 35.8367 28.2523 35.8367C32.9552 35.8367 37.3764 34.0054 40.7016 30.6803C47.5662 23.816 47.5662 12.6477 40.7016 5.78337ZM5.60594 11.5951C4.27933 11.5951 3.20021 10.5157 3.20021 9.18873C3.20021 7.86177 4.27933 6.78196 5.60594 6.78196C6.9329 6.78196 8.01236 7.86177 8.01236 9.18873C8.01236 10.5157 6.9329 11.5951 5.60594 11.5951ZM5.64846 42.8586C5.37816 43.1285 5.01868 43.2775 4.63674 43.2775C4.25445 43.2775 3.89497 43.1285 3.62502 42.8586C3.06679 42.3004 3.06679 41.3927 3.62502 40.8345L6.11094 38.3489L8.13438 40.3727L5.64846 42.8586ZM10.0116 38.4951L7.98817 36.4716L14.8321 29.6278C15.139 29.9886 15.4625 30.3398 15.803 30.6803C16.1428 31.02 16.4936 31.3439 16.8555 31.6519L10.0116 38.4951ZM38.824 28.8034C36.0004 31.627 32.246 33.1821 28.2523 33.1821C24.259 33.1821 20.5045 31.627 17.6806 28.8034C14.3454 25.4678 12.9182 20.936 13.3997 16.5767L19.0801 20.7974C18.8658 21.3581 18.7479 21.9661 18.7479 22.601C18.7479 25.3915 21.0185 27.662 23.8093 27.662C26.6001 27.662 28.8703 25.3915 28.8703 22.601C28.8703 21.6864 28.6266 20.8278 28.2005 20.0868L34.2331 14.0538L33.7623 17.3876C33.66 18.1134 34.1654 18.7847 34.8912 18.8873C34.9541 18.8963 35.0167 18.9005 35.0786 18.9005C35.7294 18.9005 36.2977 18.4214 36.3913 17.7585L37.1594 12.3183C37.2797 11.4655 36.9997 10.6273 36.3907 10.0186C35.7816 9.40994 34.9431 9.12962 34.091 9.24991L28.6508 10.0179C27.9246 10.1206 27.4193 10.7922 27.5219 11.5177C27.6243 12.2436 28.2962 12.7489 29.0221 12.6466L32.3562 12.1758L26.3232 18.2095C25.5821 17.7837 24.7236 17.54 23.809 17.54C22.613 17.54 21.5125 17.9569 20.6452 18.6533L14.0015 13.7164C14.7 11.4994 15.9264 9.41444 17.6806 7.66026C20.5045 4.83664 24.259 3.28155 28.2523 3.28155C32.246 3.28155 36.0004 4.83664 38.824 7.66026C44.6538 13.4893 44.6538 22.9743 38.824 28.8034ZM21.4032 22.6007C21.4032 21.2741 22.4824 20.1943 23.809 20.1943C25.1359 20.1943 26.215 21.2741 26.215 22.6007C26.215 23.9276 25.1359 25.0074 23.809 25.0074C22.4824 25.0074 21.4032 23.9276 21.4032 22.6007Z" fill="white"/>
</svg>
