<svg width="70" height="70" viewBox="0 0 100 100" fill="none" xmlns="http://www.w3.org/2000/svg">
<mask id="mask0_8_4233" style="mask-type:luminance" maskUnits="userSpaceOnUse" x="0" y="0" width="100" height="100">
<path d="M0 7.62939e-06H100V100H0V7.62939e-06Z" fill="white"/>
</mask>
<g mask="url(#mask0_8_4233)">
<path d="M82.0498 4.69199C74.0574 11.5068 66.1531 17.1449 57.9043 20.8008C48.5242 24.958 38.7006 26.2783 29.1016 26.1395V46.9477V67.7465C38.7006 67.6074 48.5242 68.9186 57.9043 73.0758C66.0717 76.6955 73.9014 82.265 81.8133 88.9863" stroke="white" stroke-width="5" stroke-miterlimit="22.926" stroke-linecap="round" stroke-linejoin="round"/>
<path d="M85.3516 90.8203C91.8059 90.8203 97.0703 71.0793 97.0703 46.875C97.0703 22.6707 91.8059 2.92969 85.3516 2.92969C78.8971 2.92969 73.6328 22.6707 73.6328 46.875C73.6328 71.0793 78.8971 90.8203 85.3516 90.8203Z" stroke="white" stroke-width="5" stroke-miterlimit="22.926" stroke-linecap="round" stroke-linejoin="round"/>
<path d="M74.3394 33.5539C80.7749 34.5508 85.7423 40.1506 85.7423 46.8543C85.7423 53.3166 81.1265 58.7529 75.0288 60.0293" stroke="white" stroke-width="5" stroke-miterlimit="22.926" stroke-linecap="round" stroke-linejoin="round"/>
<path d="M29.1016 26.1865H15.8203C8.72031 26.1865 2.92969 31.9771 2.92969 39.0771V54.8975C2.92969 61.9975 8.72031 67.7881 15.8203 67.7881H29.1016V26.1865Z" stroke="white" stroke-width="5" stroke-miterlimit="22.926" stroke-linecap="round" stroke-linejoin="round"/>
<path d="M41.4062 69.5313L33.5398 92.5188C32.5928 95.2729 30.1486 97.0703 27.2363 97.0703H26.9531C23.2955 97.0703 20.3125 94.0873 20.3125 90.4297V67.7879" stroke="white" stroke-width="5" stroke-miterlimit="22.926" stroke-linecap="round" stroke-linejoin="round"/>
</g>
</svg>
