<svg width="46" height="47" viewBox="0 0 46 47" fill="none" xmlns="http://www.w3.org/2000/svg">
<path d="M34.5235 7.02445H32.1638V6.55252C32.1638 4.73126 30.6816 3.24902 28.8603 3.24902H17.534C15.7128 3.24902 14.2305 4.73126 14.2305 6.55252V7.02445H11.8709C9.008 7.02445 6.67969 9.35276 6.67969 12.2157V38.6437C6.67969 41.5066 9.008 43.8349 11.8709 43.8349H34.5235C37.3864 43.8349 39.7147 41.5066 39.7147 38.6437V12.2157C39.7147 9.35276 37.3864 7.02445 34.5235 7.02445ZM17.0621 6.55252C17.0621 6.29259 17.2741 6.0806 17.534 6.0806H28.8603C29.1203 6.0806 29.3323 6.29259 29.3323 6.55252V10.328C29.3323 10.5879 29.1203 10.7999 28.8603 10.7999H17.534C17.2741 10.7999 17.0621 10.5879 17.0621 10.328V6.55252ZM36.8831 38.6437C36.8831 39.9453 35.8251 41.0033 34.5235 41.0033H11.8709C10.5693 41.0033 9.51126 39.9453 9.51126 38.6437V12.2157C9.51126 10.9141 10.5693 9.85603 11.8709 9.85603H14.2305V10.328C14.2305 12.1492 15.7128 13.6315 17.534 13.6315H28.8603C30.6816 13.6315 32.1638 12.1492 32.1638 10.328V9.85603H34.5235C35.8251 9.85603 36.8831 10.9141 36.8831 12.2157V38.6437Z" fill="white"/>
<path d="M30.748 25.9014H15.6463C14.8646 25.9014 14.2305 26.5355 14.2305 27.3172C14.2305 28.0989 14.8646 28.7329 15.6463 28.7329H30.748C31.5297 28.7329 32.1638 28.0989 32.1638 27.3172C32.1638 26.5355 31.5297 25.9014 30.748 25.9014Z" fill="white"/>
<path d="M30.748 18.3486H15.6463C14.8646 18.3486 14.2305 18.9827 14.2305 19.7644C14.2305 20.5461 14.8646 21.1802 15.6463 21.1802H30.748C31.5297 21.1802 32.1638 20.5461 32.1638 19.7644C32.1638 18.9827 31.5297 18.3486 30.748 18.3486Z" fill="white"/>
<path d="M30.748 33.4521H15.6463C14.8646 33.4521 14.2305 34.0862 14.2305 34.8679C14.2305 35.6496 14.8646 36.2837 15.6463 36.2837H30.748C31.5297 36.2837 32.1638 35.6496 32.1638 34.8679C32.1638 34.0862 31.5297 33.4521 30.748 33.4521Z" fill="white"/>
</svg>
