<svg width="46" height="46" viewBox="0 0 46 46" fill="none" xmlns="http://www.w3.org/2000/svg">
<g clip-path="url(#clip0_141_4247)">
<path d="M41.8701 2.66553H4.52877C2.33315 2.66553 0.546875 4.45181 0.546875 6.64743V31.2709C0.546875 33.4665 2.33315 35.2528 4.52877 35.2528H17.934V40.2979H15.9353C15.2023 40.2979 14.608 40.8922 14.608 41.6252C14.608 42.3582 15.2023 42.9525 15.9353 42.9525H30.4637C31.1967 42.9525 31.791 42.3582 31.791 41.6252C31.791 40.8922 31.1967 40.2979 30.4637 40.2979H28.465V35.2528H41.8701C44.0658 35.2528 45.852 33.4665 45.852 31.2709V6.64743C45.852 4.45181 44.0658 2.66553 41.8701 2.66553ZM25.8103 40.298H20.5886V35.2529H25.8103V40.298ZM43.1974 31.271C43.1974 32.0028 42.602 32.5983 41.8701 32.5983H4.52877C3.7969 32.5983 3.20147 32.0028 3.20147 31.271V29.2532H43.1974V31.271ZM43.1974 26.5986H3.20147V6.64743C3.20147 5.91555 3.7969 5.32013 4.52877 5.32013H41.8701C42.602 5.32013 43.1974 5.91555 43.1974 6.64743V26.5986Z" fill="white"/>
<path d="M16.6752 19.3433L13.0797 16.8886L16.6752 14.4339C17.2806 14.0205 17.4364 13.1947 17.0231 12.5893C16.6098 11.9839 15.7839 11.8282 15.1785 12.2414L9.97732 15.7923C9.61505 16.0396 9.39844 16.4499 9.39844 16.8885C9.39844 17.327 9.61505 17.7375 9.97732 17.9848L15.1785 21.5357C15.4074 21.6921 15.6679 21.7669 15.9257 21.7669C16.3495 21.7669 16.7661 21.5643 17.0231 21.1879C17.4364 20.5824 17.2806 19.7566 16.6752 19.3433Z" fill="white"/>
<path d="M36.4176 15.7923L31.2164 12.2414C30.6111 11.8282 29.7853 11.9839 29.3719 12.5893C28.9585 13.1947 29.1143 14.0205 29.7197 14.4339L33.3152 16.8886L29.7197 19.3431C29.1143 19.7564 28.9585 20.5823 29.3719 21.1877C29.6289 21.5642 30.0453 21.7667 30.4693 21.7667C30.727 21.7667 30.9875 21.6918 31.2164 21.5355L36.4176 17.9846C36.7799 17.7373 36.9965 17.327 36.9965 16.8885C36.9965 16.4499 36.7798 16.0397 36.4176 15.7923Z" fill="white"/>
<path d="M26.5134 10.9952C25.8745 10.636 25.0652 10.8628 24.706 11.5019L19.3775 20.9808C19.0184 21.6197 19.2452 22.4289 19.8842 22.7882C20.0899 22.9038 20.3131 22.9587 20.5334 22.9587C20.9974 22.9587 21.448 22.7149 21.6916 22.2816L27.0201 12.8026C27.3793 12.1637 27.1524 11.3545 26.5134 10.9952Z" fill="white"/>
</g>
<defs>
<clipPath id="clip0_141_4247">
<rect width="45.3052" height="45.3052" fill="white" transform="translate(0.544922 0.15332)"/>
</clipPath>
</defs>
</svg>
