<svg width="64" height="64" viewBox="0 0 64 64" fill="none" xmlns="http://www.w3.org/2000/svg">
<path d="M47.9998 8.66683H44.6665V8.00016C44.6665 5.42736 42.5726 3.3335 39.9998 3.3335H23.9998C21.427 3.3335 19.3332 5.42736 19.3332 8.00016V8.66683H15.9998C11.9556 8.66683 8.6665 11.9559 8.6665 16.0002V53.3335C8.6665 57.3778 11.9556 60.6668 15.9998 60.6668H47.9998C52.0441 60.6668 55.3332 57.3778 55.3332 53.3335V16.0002C55.3332 11.9559 52.0441 8.66683 47.9998 8.66683ZM23.3332 8.00016C23.3332 7.63296 23.6326 7.3335 23.9998 7.3335H39.9998C40.367 7.3335 40.6665 7.63296 40.6665 8.00016V13.3335C40.6665 13.7007 40.367 14.0002 39.9998 14.0002H23.9998C23.6326 14.0002 23.3332 13.7007 23.3332 13.3335V8.00016ZM51.3332 53.3335C51.3332 55.1722 49.8385 56.6668 47.9998 56.6668H15.9998C14.1612 56.6668 12.6665 55.1722 12.6665 53.3335V16.0002C12.6665 14.1615 14.1612 12.6668 15.9998 12.6668H19.3332V13.3335C19.3332 15.9063 21.427 18.0002 23.9998 18.0002H39.9998C42.5726 18.0002 44.6665 15.9063 44.6665 13.3335V12.6668H47.9998C49.8385 12.6668 51.3332 14.1615 51.3332 16.0002V53.3335Z" fill="white"/>
<path d="M42.6668 35.3335H21.3335C20.2292 35.3335 19.3335 36.2292 19.3335 37.3335C19.3335 38.4378 20.2292 39.3335 21.3335 39.3335H42.6668C43.7711 39.3335 44.6668 38.4378 44.6668 37.3335C44.6668 36.2292 43.7711 35.3335 42.6668 35.3335Z" fill="white"/>
<path d="M42.6668 24.6665H21.3335C20.2292 24.6665 19.3335 25.5622 19.3335 26.6665C19.3335 27.7708 20.2292 28.6665 21.3335 28.6665H42.6668C43.7711 28.6665 44.6668 27.7708 44.6668 26.6665C44.6668 25.5622 43.7711 24.6665 42.6668 24.6665Z" fill="white"/>
<path d="M42.6668 46H21.3335C20.2292 46 19.3335 46.8957 19.3335 48C19.3335 49.1043 20.2292 50 21.3335 50H42.6668C43.7711 50 44.6668 49.1043 44.6668 48C44.6668 46.8957 43.7711 46 42.6668 46Z" fill="white"/>
</svg>
