<svg width="100" height="100" viewBox="0 0 100 100" fill="none" xmlns="http://www.w3.org/2000/svg">
<g clip-path="url(#clip0_8_4305)">
<path d="M89.9681 16.1987C84.9442 14.473 80.9196 10.4256 79.2015 5.37186C78.109 2.15836 75.1007 0 71.7148 0H28.0899C24.7047 0 21.6957 2.15836 20.6032 5.37186C18.885 10.4256 14.8605 14.473 9.83658 16.1987C6.63986 17.2974 4.49219 20.3148 4.49219 23.7076V34.7435C4.49219 49.1447 8.80737 63.0112 16.9716 74.8444C24.4415 85.6712 34.7351 94.1437 46.7407 99.3469C47.7455 99.7826 48.8235 100 49.9023 100C50.9804 100 52.0584 99.7826 53.0632 99.3469C65.0688 94.1444 75.3624 85.6712 82.8323 74.8444C90.9966 63.0112 95.3125 49.144 95.3125 34.7435V23.7076C95.3125 20.3148 93.1648 17.2974 89.9681 16.1987ZM89.4531 34.7435C89.4531 47.95 85.4958 60.6659 78.009 71.5172C71.1632 81.44 61.731 89.2044 50.7332 93.9705C50.206 94.1994 49.5995 94.2001 49.0707 93.9705C38.0722 89.2044 28.6407 81.44 21.7949 71.5172C14.3089 60.6667 10.3516 47.9507 10.3516 34.7435V23.7076C10.3516 22.8165 10.91 22.0261 11.7409 21.7407C18.4662 19.4298 23.8533 14.016 26.1505 7.25784C26.4351 6.42166 27.2141 5.85938 28.0899 5.85938H71.7148C72.5899 5.85938 73.3696 6.42166 73.6542 7.25784C75.9514 14.016 81.3385 19.4298 88.0638 21.7407C88.8947 22.0261 89.4531 22.8165 89.4531 23.7076V34.7435Z" fill="white"/>
<path d="M62.3511 37.9849H62.152V29.6414C62.152 22.8871 56.6565 17.3916 49.9022 17.3916C43.1479 17.3916 37.6525 22.8871 37.6525 29.6414V37.9849H37.4533C33.5631 37.9849 30.3984 41.1503 30.3984 45.0405V61.9015C30.3984 69.1464 36.2929 75.0416 43.537 75.0416H56.2674C63.5123 75.0416 69.406 69.1464 69.406 61.9015V45.0405C69.406 41.1503 66.2413 37.9849 62.3511 37.9849ZM43.5118 29.6414C43.5118 26.1181 46.379 23.251 49.9022 23.251C53.4255 23.251 56.2926 26.1181 56.2926 29.6414V37.9856H43.5118V29.6414ZM63.5466 61.9015C63.5466 65.9161 60.2812 69.1815 56.2674 69.1815H43.537C39.5232 69.1815 36.2578 65.9161 36.2578 61.9015V45.0405C36.2578 44.3813 36.7942 43.845 37.4533 43.845H62.3511C63.0103 43.845 63.5466 44.3813 63.5466 45.0405V61.9015Z" fill="white"/>
<path d="M49.9023 50.8164C48.2841 50.8164 46.9727 52.1279 46.9727 53.7461V59.2812C46.9727 60.8994 48.2841 62.2109 49.9023 62.2109C51.5205 62.2109 52.832 60.8994 52.832 59.2812V53.7461C52.832 52.1279 51.5205 50.8164 49.9023 50.8164Z" fill="white"/>
</g>
<defs>
<clipPath id="clip0_8_4305">
<rect width="100" height="100" fill="white"/>
</clipPath>
</defs>
</svg>
