<svg width="116" height="36" viewBox="0 0 116 36" fill="none" xmlns="http://www.w3.org/2000/svg">
<g opacity="0.5" clip-path="url(#clip0_8_2709)">
<path d="M71.9482 28.1246C65.2153 33.2273 55.4564 35.9499 47.0542 35.9499C35.2728 35.9499 24.6666 31.4694 16.6426 24.0174C16.0122 23.4314 16.577 22.6328 17.3336 23.0892C25.993 28.2698 36.7001 31.3864 47.7602 31.3864C55.2194 31.3864 63.4249 29.7996 70.9698 26.5066C72.1096 26.0088 73.0628 27.2741 71.9482 28.1246Z" fill="white"/>
<path d="M74.7474 24.8312C73.89 23.7007 69.0584 24.2971 66.8898 24.5615C66.2291 24.6445 66.1282 24.0533 66.7233 23.6281C70.5714 20.8433 76.8857 21.6471 77.6221 22.5806C78.3584 23.5192 77.4304 30.0273 73.8143 33.1336C73.2596 33.6107 72.73 33.3566 72.9771 32.7239C73.7891 30.6392 75.6098 25.9669 74.7474 24.8312Z" fill="white"/>
<path d="M67.0409 3.96912V1.26215C67.0409 0.852481 67.3435 0.577637 67.7066 0.577637H79.493C79.8712 0.577637 80.1738 0.857667 80.1738 1.26215V3.58018C80.1688 3.96912 79.8511 4.47732 79.2862 5.28111L73.1787 14.2473C75.4482 14.1902 77.8438 14.5377 79.9015 15.7304C80.3655 16.0001 80.4916 16.3942 80.5269 16.7831V19.6716C80.5269 20.0657 80.1032 20.5272 79.6594 20.2887C76.0332 18.3336 71.2168 18.121 67.2073 20.3094C66.7988 20.5376 66.3701 20.0812 66.3701 19.6871V16.9439C66.3701 16.5031 66.3752 15.7511 66.8038 15.0822L73.8797 4.64845H67.7217C67.3435 4.64845 67.0409 4.37361 67.0409 3.96912Z" fill="white"/>
<path d="M24.0462 20.8589H20.4603C20.1174 20.833 19.845 20.5685 19.8198 20.2314V1.30862C19.8198 0.93006 20.1275 0.629284 20.5108 0.629284H23.8545C24.2025 0.644831 24.4799 0.919685 24.5051 1.26194V3.73555H24.5707C25.4432 1.34492 27.0823 0.22998 29.2913 0.22998C31.5356 0.22998 32.9376 1.34492 33.9463 3.73555C34.8138 1.34492 36.7857 0.22998 38.8989 0.22998C40.4018 0.22998 42.046 0.867827 43.0496 2.29909C44.1844 3.89112 43.9524 6.20396 43.9524 8.23159L43.9473 20.1744C43.9473 20.5529 43.6397 20.8589 43.2564 20.8589H39.6756C39.3175 20.833 39.03 20.5374 39.03 20.1744V10.1451C39.03 9.34653 39.1006 7.3552 38.9292 6.59808C38.6619 5.32757 37.86 4.96975 36.821 4.96975C35.9536 4.96975 35.0458 5.56612 34.6776 6.5203C34.3094 7.47447 34.3447 9.07168 34.3447 10.1451V20.1744C34.3447 20.5529 34.0371 20.8589 33.6538 20.8589H30.073C29.7099 20.833 29.4275 20.5374 29.4275 20.1744L29.4224 10.1451C29.4224 8.03453 29.7603 4.92827 27.2134 4.92827C24.6362 4.92827 24.7371 7.95675 24.7371 10.1451V20.1744C24.7371 20.5529 24.4295 20.8589 24.0462 20.8589Z" fill="white"/>
<path d="M90.3211 0.22998C95.6419 0.22998 98.5216 4.92827 98.5216 10.9023C98.5216 16.674 95.3393 21.253 90.3211 21.253C85.0962 21.253 82.2517 16.5547 82.2517 10.7C82.2517 4.809 85.1315 0.22998 90.3211 0.22998ZM90.3514 4.09337C87.7086 4.09337 87.5422 7.79599 87.5422 10.1036C87.5422 12.4165 87.5069 17.3533 90.3211 17.3533C93.1 17.3533 93.2311 13.3707 93.2311 10.9437C93.2311 9.34653 93.1656 7.43817 92.6965 5.92393C92.2931 4.60676 91.4912 4.09337 90.3514 4.09337Z" fill="white"/>
<path d="M105.421 20.8589H101.85C101.492 20.833 101.205 20.5374 101.205 20.1744L101.2 1.24639C101.23 0.898942 101.528 0.629284 101.891 0.629284H105.214C105.527 0.644831 105.784 0.862643 105.855 1.15823V4.05188H105.92C106.924 1.46419 108.331 0.22998 110.807 0.22998C112.416 0.22998 113.985 0.826342 114.993 2.45985C115.931 3.97409 115.931 6.5203 115.931 8.35086V20.2625C115.891 20.5944 115.593 20.8589 115.24 20.8589H111.645C111.317 20.833 111.044 20.584 111.009 20.2625V9.98438C111.009 7.91526 111.241 4.88678 108.765 4.88678C107.892 4.88678 107.09 5.48833 106.692 6.40102C106.188 7.55745 106.122 8.70868 106.122 9.98438V20.1744C106.117 20.5529 105.804 20.8589 105.421 20.8589Z" fill="white"/>
<path d="M57.6452 11.8205V11.0219C55.0529 11.0219 52.3144 11.5923 52.3144 14.7349C52.3144 16.3269 53.1163 17.4055 54.4931 17.4055C55.5018 17.4055 56.4045 16.7677 56.9744 15.7305C57.6805 14.4548 57.6452 13.2569 57.6452 11.8205ZM61.2613 20.8074C61.0243 21.0252 60.6813 21.0407 60.414 20.8955C59.2238 19.8791 59.012 19.4072 58.3563 18.4375C56.3894 20.5014 54.9974 21.1185 52.4455 21.1185C49.4296 21.1185 47.0793 19.205 47.0793 15.3727C47.0793 12.3805 48.6579 10.3425 50.9022 9.34688C52.849 8.4653 55.5673 8.30973 57.6452 8.066V7.58891C57.6452 6.71251 57.7108 5.67536 57.2115 4.91825C56.7727 4.23891 55.9355 3.95888 55.1992 3.95888C53.8324 3.95888 52.6119 4.6797 52.3144 6.1732C52.2538 6.50509 52.0168 6.83179 51.694 6.84735L48.2141 6.4636C47.9216 6.39619 47.5988 6.15245 47.6795 5.69093C48.4814 1.35564 52.2891 0.0488281 55.6985 0.0488281C57.4435 0.0488281 59.7231 0.525917 61.0999 1.88458C62.8449 3.55958 62.6785 5.79464 62.6785 8.22676V13.9726C62.6785 15.6994 63.3745 16.4565 64.0301 17.39C64.2621 17.7219 64.3125 18.1212 64.02 18.3701C63.2887 18.9976 61.9876 20.1644 61.2714 20.8178L61.2613 20.8074Z" fill="white"/>
<path d="M10.6359 11.8205V11.0219C8.04364 11.0219 5.30509 11.5923 5.30509 14.7349C5.30509 16.3269 6.10698 17.4055 7.48382 17.4055C8.4925 17.4055 9.39526 16.7677 9.96517 15.7305C10.6712 14.4548 10.6359 13.2569 10.6359 11.8205ZM14.252 20.8074C14.015 21.0252 13.672 21.0407 13.4047 20.8955C12.2145 19.8791 12.0027 19.4072 11.347 18.4375C9.38013 20.5014 7.98816 21.1185 5.43621 21.1185C2.42028 21.1185 0.0700684 19.205 0.0700684 15.3727C0.0700684 12.3805 1.64864 10.3425 3.89294 9.34688C5.83969 8.4653 8.55806 8.30973 10.6359 8.066V7.58891C10.6359 6.71251 10.7015 5.67536 10.2022 4.91825C9.76343 4.23891 8.92623 3.95888 8.1899 3.95888C6.82314 3.95888 5.60265 4.6797 5.30509 6.1732C5.24457 6.50509 5.00753 6.83179 4.68475 6.84735L1.20483 6.4636C0.912311 6.39619 0.589535 6.15245 0.670229 5.69093C1.47213 1.35564 5.27987 0.0488281 8.68919 0.0488281C10.4342 0.0488281 12.7138 0.525917 14.0906 1.88458C15.8357 3.55958 15.6692 5.79464 15.6692 8.22676V13.9726C15.6692 15.6994 16.3652 16.4565 17.0208 17.39C17.2528 17.7219 17.3033 18.1212 17.0108 18.3701C16.2795 18.9976 14.9783 20.1644 14.2621 20.8178L14.252 20.8074Z" fill="white"/>
</g>
<defs>
<clipPath id="clip0_8_2709">
<rect width="116" height="36" fill="white"/>
</clipPath>
</defs>
</svg>
