<svg width="353" height="90" viewBox="0 0 353 90" fill="none" xmlns="http://www.w3.org/2000/svg">
<mask id="path-1-outside-1_8_2653" maskUnits="userSpaceOnUse" x="-1" y="-1" width="355" height="92" fill="black">
<rect fill="white" x="-1" y="-1" width="355" height="92"/>
<path d="M25.7336 71.4C20.9336 71.4 16.5669 70.4 12.6336 68.4C8.76693 66.4 5.70026 63.5 3.43359 59.7C1.16693 55.9 0.0335941 51.3 0.0335941 45.9V44.5C0.0335941 39.1 1.16693 34.5 3.43359 30.7C5.70026 26.9 8.76693 24 12.6336 22C16.5669 20 20.9336 19 25.7336 19C30.4669 19 34.5336 19.8333 37.9336 21.5C41.3336 23.1667 44.0669 25.4667 46.1336 28.4C48.2669 31.2667 49.6669 34.5333 50.3336 38.2L38.1336 40.8C37.8669 38.8 37.2669 37 36.3336 35.4C35.4003 33.8 34.0669 32.5333 32.3336 31.6C30.6669 30.6667 28.5669 30.2 26.0336 30.2C23.5003 30.2 21.2003 30.7667 19.1336 31.9C17.1336 32.9667 15.5336 34.6 14.3336 36.8C13.2003 38.9333 12.6336 41.5667 12.6336 44.7V45.7C12.6336 48.8333 13.2003 51.5 14.3336 53.7C15.5336 55.8333 17.1336 57.4667 19.1336 58.6C21.2003 59.6667 23.5003 60.2 26.0336 60.2C29.8336 60.2 32.7003 59.2333 34.6336 57.3C36.6336 55.3 37.9003 52.7 38.4336 49.5L50.6336 52.4C49.7669 55.9333 48.2669 59.1667 46.1336 62.1C44.0669 64.9667 41.3336 67.2333 37.9336 68.9C34.5336 70.5667 30.4669 71.4 25.7336 71.4ZM61.0273 70V-4.76837e-06H73.6273V26.5H75.4273C75.9607 25.4333 76.794 24.3667 77.9273 23.3C79.0607 22.2333 80.5607 21.3667 82.4273 20.7C84.3607 19.9667 86.794 19.6 89.7273 19.6C93.594 19.6 96.9607 20.5 99.8273 22.3C102.761 24.0333 105.027 26.4667 106.627 29.6C108.227 32.6667 109.027 36.2667 109.027 40.4V70H96.4273V41.4C96.4273 37.6667 95.494 34.8667 93.6273 33C91.8273 31.1333 89.2273 30.2 85.8273 30.2C81.9607 30.2 78.9607 31.5 76.8273 34.1C74.694 36.6333 73.6273 40.2 73.6273 44.8V70H61.0273ZM138.048 71.4C134.515 71.4 131.348 70.8 128.548 69.6C125.748 68.3333 123.515 66.5333 121.848 64.2C120.248 61.8 119.448 58.9 119.448 55.5C119.448 52.1 120.248 49.2667 121.848 47C123.515 44.6667 125.782 42.9333 128.648 41.8C131.582 40.6 134.915 40 138.648 40H152.248V37.2C152.248 34.8667 151.515 32.9667 150.048 31.5C148.582 29.9667 146.248 29.2 143.048 29.2C139.915 29.2 137.582 29.9333 136.048 31.4C134.515 32.8 133.515 34.6333 133.048 36.9L121.448 33C122.248 30.4667 123.515 28.1667 125.248 26.1C127.048 23.9667 129.415 22.2667 132.348 21C135.348 19.6667 138.982 19 143.248 19C149.782 19 154.948 20.6333 158.748 23.9C162.548 27.1667 164.448 31.9 164.448 38.1V56.6C164.448 58.6 165.382 59.6 167.248 59.6H171.248V70H162.848C160.382 70 158.348 69.4 156.748 68.2C155.148 67 154.348 65.4 154.348 63.4V63.3H152.448C152.182 64.1 151.582 65.1667 150.648 66.5C149.715 67.7667 148.248 68.9 146.248 69.9C144.248 70.9 141.515 71.4 138.048 71.4ZM140.248 61.2C143.782 61.2 146.648 60.2333 148.848 58.3C151.115 56.3 152.248 53.6667 152.248 50.4V49.4H139.548C137.215 49.4 135.382 49.9 134.048 50.9C132.715 51.9 132.048 53.3 132.048 55.1C132.048 56.9 132.748 58.3667 134.148 59.5C135.548 60.6333 137.582 61.2 140.248 61.2ZM180.461 70V20.4H192.861V26.9H194.661C195.461 25.1667 196.961 23.5333 199.161 22C201.361 20.4 204.694 19.6 209.161 19.6C213.028 19.6 216.394 20.5 219.261 22.3C222.194 24.0333 224.461 26.4667 226.061 29.6C227.661 32.6667 228.461 36.2667 228.461 40.4V70H215.861V41.4C215.861 37.6667 214.928 34.8667 213.061 33C211.261 31.1333 208.661 30.2 205.261 30.2C201.394 30.2 198.394 31.5 196.261 34.1C194.128 36.6333 193.061 40.2 193.061 44.8V70H180.461ZM239.682 45.4V43.8C239.682 38.6 240.715 34.1667 242.782 30.5C244.849 26.7667 247.582 23.9333 250.982 22C254.449 20 258.215 19 262.282 19C266.815 19 270.249 19.8 272.582 21.4C274.915 23 276.615 24.6667 277.682 26.4H279.482V20.4H291.882V78.8C291.882 82.2 290.882 84.9 288.882 86.9C286.882 88.9667 284.215 90 280.882 90H247.682V79H276.482C278.349 79 279.282 78 279.282 76V63.1H277.482C276.815 64.1667 275.882 65.2667 274.682 66.4C273.482 67.4667 271.882 68.3667 269.882 69.1C267.882 69.8333 265.349 70.2 262.282 70.2C258.215 70.2 254.449 69.2333 250.982 67.3C247.582 65.3 244.849 62.4667 242.782 58.8C240.715 55.0667 239.682 50.6 239.682 45.4ZM265.882 59.2C269.749 59.2 272.982 57.9667 275.582 55.5C278.182 53.0333 279.482 49.5667 279.482 45.1V44.1C279.482 39.5667 278.182 36.1 275.582 33.7C273.049 31.2333 269.815 30 265.882 30C262.015 30 258.782 31.2333 256.182 33.7C253.582 36.1 252.282 39.5667 252.282 44.1V45.1C252.282 49.5667 253.582 53.0333 256.182 55.5C258.782 57.9667 262.015 59.2 265.882 59.2ZM328.452 71.4C323.518 71.4 319.152 70.3667 315.352 68.3C311.618 66.1667 308.685 63.2 306.552 59.4C304.485 55.5333 303.452 51 303.452 45.8V44.6C303.452 39.4 304.485 34.9 306.552 31.1C308.618 27.2333 311.518 24.2667 315.252 22.2C318.985 20.0667 323.318 19 328.252 19C333.118 19 337.352 20.1 340.952 22.3C344.552 24.4333 347.352 27.4333 349.352 31.3C351.352 35.1 352.352 39.5333 352.352 44.6V48.9H316.252C316.385 52.3 317.652 55.0667 320.052 57.2C322.452 59.3333 325.385 60.4 328.852 60.4C332.385 60.4 334.985 59.6333 336.652 58.1C338.318 56.5667 339.585 54.8667 340.452 53L350.752 58.4C349.818 60.1333 348.452 62.0333 346.652 64.1C344.918 66.1 342.585 67.8333 339.652 69.3C336.718 70.7 332.985 71.4 328.452 71.4ZM316.352 39.5H339.552C339.285 36.6333 338.118 34.3333 336.052 32.6C334.052 30.8667 331.418 30 328.152 30C324.752 30 322.052 30.8667 320.052 32.6C318.052 34.3333 316.818 36.6333 316.352 39.5Z"/>
</mask>
<path d="M25.7336 71.4C20.9336 71.4 16.5669 70.4 12.6336 68.4C8.76693 66.4 5.70026 63.5 3.43359 59.7C1.16693 55.9 0.0335941 51.3 0.0335941 45.9V44.5C0.0335941 39.1 1.16693 34.5 3.43359 30.7C5.70026 26.9 8.76693 24 12.6336 22C16.5669 20 20.9336 19 25.7336 19C30.4669 19 34.5336 19.8333 37.9336 21.5C41.3336 23.1667 44.0669 25.4667 46.1336 28.4C48.2669 31.2667 49.6669 34.5333 50.3336 38.2L38.1336 40.8C37.8669 38.8 37.2669 37 36.3336 35.4C35.4003 33.8 34.0669 32.5333 32.3336 31.6C30.6669 30.6667 28.5669 30.2 26.0336 30.2C23.5003 30.2 21.2003 30.7667 19.1336 31.9C17.1336 32.9667 15.5336 34.6 14.3336 36.8C13.2003 38.9333 12.6336 41.5667 12.6336 44.7V45.7C12.6336 48.8333 13.2003 51.5 14.3336 53.7C15.5336 55.8333 17.1336 57.4667 19.1336 58.6C21.2003 59.6667 23.5003 60.2 26.0336 60.2C29.8336 60.2 32.7003 59.2333 34.6336 57.3C36.6336 55.3 37.9003 52.7 38.4336 49.5L50.6336 52.4C49.7669 55.9333 48.2669 59.1667 46.1336 62.1C44.0669 64.9667 41.3336 67.2333 37.9336 68.9C34.5336 70.5667 30.4669 71.4 25.7336 71.4ZM61.0273 70V-4.76837e-06H73.6273V26.5H75.4273C75.9607 25.4333 76.794 24.3667 77.9273 23.3C79.0607 22.2333 80.5607 21.3667 82.4273 20.7C84.3607 19.9667 86.794 19.6 89.7273 19.6C93.594 19.6 96.9607 20.5 99.8273 22.3C102.761 24.0333 105.027 26.4667 106.627 29.6C108.227 32.6667 109.027 36.2667 109.027 40.4V70H96.4273V41.4C96.4273 37.6667 95.494 34.8667 93.6273 33C91.8273 31.1333 89.2273 30.2 85.8273 30.2C81.9607 30.2 78.9607 31.5 76.8273 34.1C74.694 36.6333 73.6273 40.2 73.6273 44.8V70H61.0273ZM138.048 71.4C134.515 71.4 131.348 70.8 128.548 69.6C125.748 68.3333 123.515 66.5333 121.848 64.2C120.248 61.8 119.448 58.9 119.448 55.5C119.448 52.1 120.248 49.2667 121.848 47C123.515 44.6667 125.782 42.9333 128.648 41.8C131.582 40.6 134.915 40 138.648 40H152.248V37.2C152.248 34.8667 151.515 32.9667 150.048 31.5C148.582 29.9667 146.248 29.2 143.048 29.2C139.915 29.2 137.582 29.9333 136.048 31.4C134.515 32.8 133.515 34.6333 133.048 36.9L121.448 33C122.248 30.4667 123.515 28.1667 125.248 26.1C127.048 23.9667 129.415 22.2667 132.348 21C135.348 19.6667 138.982 19 143.248 19C149.782 19 154.948 20.6333 158.748 23.9C162.548 27.1667 164.448 31.9 164.448 38.1V56.6C164.448 58.6 165.382 59.6 167.248 59.6H171.248V70H162.848C160.382 70 158.348 69.4 156.748 68.2C155.148 67 154.348 65.4 154.348 63.4V63.3H152.448C152.182 64.1 151.582 65.1667 150.648 66.5C149.715 67.7667 148.248 68.9 146.248 69.9C144.248 70.9 141.515 71.4 138.048 71.4ZM140.248 61.2C143.782 61.2 146.648 60.2333 148.848 58.3C151.115 56.3 152.248 53.6667 152.248 50.4V49.4H139.548C137.215 49.4 135.382 49.9 134.048 50.9C132.715 51.9 132.048 53.3 132.048 55.1C132.048 56.9 132.748 58.3667 134.148 59.5C135.548 60.6333 137.582 61.2 140.248 61.2ZM180.461 70V20.4H192.861V26.9H194.661C195.461 25.1667 196.961 23.5333 199.161 22C201.361 20.4 204.694 19.6 209.161 19.6C213.028 19.6 216.394 20.5 219.261 22.3C222.194 24.0333 224.461 26.4667 226.061 29.6C227.661 32.6667 228.461 36.2667 228.461 40.4V70H215.861V41.4C215.861 37.6667 214.928 34.8667 213.061 33C211.261 31.1333 208.661 30.2 205.261 30.2C201.394 30.2 198.394 31.5 196.261 34.1C194.128 36.6333 193.061 40.2 193.061 44.8V70H180.461ZM239.682 45.4V43.8C239.682 38.6 240.715 34.1667 242.782 30.5C244.849 26.7667 247.582 23.9333 250.982 22C254.449 20 258.215 19 262.282 19C266.815 19 270.249 19.8 272.582 21.4C274.915 23 276.615 24.6667 277.682 26.4H279.482V20.4H291.882V78.8C291.882 82.2 290.882 84.9 288.882 86.9C286.882 88.9667 284.215 90 280.882 90H247.682V79H276.482C278.349 79 279.282 78 279.282 76V63.1H277.482C276.815 64.1667 275.882 65.2667 274.682 66.4C273.482 67.4667 271.882 68.3667 269.882 69.1C267.882 69.8333 265.349 70.2 262.282 70.2C258.215 70.2 254.449 69.2333 250.982 67.3C247.582 65.3 244.849 62.4667 242.782 58.8C240.715 55.0667 239.682 50.6 239.682 45.4ZM265.882 59.2C269.749 59.2 272.982 57.9667 275.582 55.5C278.182 53.0333 279.482 49.5667 279.482 45.1V44.1C279.482 39.5667 278.182 36.1 275.582 33.7C273.049 31.2333 269.815 30 265.882 30C262.015 30 258.782 31.2333 256.182 33.7C253.582 36.1 252.282 39.5667 252.282 44.1V45.1C252.282 49.5667 253.582 53.0333 256.182 55.5C258.782 57.9667 262.015 59.2 265.882 59.2ZM328.452 71.4C323.518 71.4 319.152 70.3667 315.352 68.3C311.618 66.1667 308.685 63.2 306.552 59.4C304.485 55.5333 303.452 51 303.452 45.8V44.6C303.452 39.4 304.485 34.9 306.552 31.1C308.618 27.2333 311.518 24.2667 315.252 22.2C318.985 20.0667 323.318 19 328.252 19C333.118 19 337.352 20.1 340.952 22.3C344.552 24.4333 347.352 27.4333 349.352 31.3C351.352 35.1 352.352 39.5333 352.352 44.6V48.9H316.252C316.385 52.3 317.652 55.0667 320.052 57.2C322.452 59.3333 325.385 60.4 328.852 60.4C332.385 60.4 334.985 59.6333 336.652 58.1C338.318 56.5667 339.585 54.8667 340.452 53L350.752 58.4C349.818 60.1333 348.452 62.0333 346.652 64.1C344.918 66.1 342.585 67.8333 339.652 69.3C336.718 70.7 332.985 71.4 328.452 71.4ZM316.352 39.5H339.552C339.285 36.6333 338.118 34.3333 336.052 32.6C334.052 30.8667 331.418 30 328.152 30C324.752 30 322.052 30.8667 320.052 32.6C318.052 34.3333 316.818 36.6333 316.352 39.5Z" fill="#D5D9E6"/>
<path d="M12.6336 68.4L12.1742 69.2882L12.1803 69.2914L12.6336 68.4ZM3.43359 30.7L4.29241 31.2123L3.43359 30.7ZM12.6336 22L12.1803 21.1086L12.1742 21.1118L12.6336 22ZM37.9336 21.5L37.4934 22.3979L37.9336 21.5ZM46.1336 28.4L45.3161 28.976L45.3236 28.9866L45.3314 28.997L46.1336 28.4ZM50.3336 38.2L50.542 39.178L51.491 38.9758L51.3175 38.0211L50.3336 38.2ZM38.1336 40.8L37.1424 40.9322L37.2852 42.0033L38.342 41.778L38.1336 40.8ZM32.3336 31.6L31.845 32.4725L31.8522 32.4765L31.8595 32.4805L32.3336 31.6ZM19.1336 31.9L19.6042 32.7824L19.6144 32.7768L19.1336 31.9ZM14.3336 36.8L13.4556 36.3211L13.4505 36.3308L14.3336 36.8ZM14.3336 53.7L13.4446 54.158L13.453 54.1743L13.462 54.1903L14.3336 53.7ZM19.1336 58.6L18.6406 59.47L18.6576 59.4797L18.675 59.4886L19.1336 58.6ZM34.6336 57.3L35.3407 58.0071L34.6336 57.3ZM38.4336 49.5L38.6649 48.5271L37.6232 48.2795L37.4472 49.3356L38.4336 49.5ZM50.6336 52.4L51.6048 52.6382L51.8447 51.66L50.8649 51.4271L50.6336 52.4ZM46.1336 62.1L45.3249 61.5118L45.3224 61.5152L46.1336 62.1ZM25.7336 70.4C21.077 70.4 16.8677 69.4311 13.0868 67.5086L12.1803 69.2914C16.2662 71.3689 20.7902 72.4 25.7336 72.4V70.4ZM13.093 67.5118C9.39476 65.5989 6.46524 62.8304 4.29241 59.1877L2.57477 60.2123C4.93528 64.1696 8.13909 67.2011 12.1742 69.2882L13.093 67.5118ZM4.29241 59.1877C2.13656 55.5735 1.03359 51.1593 1.03359 45.9H-0.966406C-0.966406 51.4407 0.197295 56.2265 2.57477 60.2123L4.29241 59.1877ZM1.03359 45.9V44.5H-0.966406V45.9H1.03359ZM1.03359 44.5C1.03359 39.2407 2.13656 34.8265 4.29241 31.2123L2.57477 30.1877C0.197295 34.1735 -0.966406 38.9593 -0.966406 44.5H1.03359ZM4.29241 31.2123C6.46524 27.5696 9.39476 24.8011 13.093 22.8882L12.1742 21.1118C8.13909 23.1989 4.93528 26.2304 2.57477 30.1877L4.29241 31.2123ZM13.0868 22.8914C16.8677 20.9689 21.077 20 25.7336 20V18C20.7902 18 16.2662 19.0311 12.1803 21.1086L13.0868 22.8914ZM25.7336 20C30.3516 20 34.2604 20.8131 37.4934 22.3979L38.3738 20.6021C34.8068 18.8536 30.5823 18 25.7336 18V20ZM37.4934 22.3979C40.7512 23.9949 43.3516 26.1876 45.3161 28.976L46.9511 27.824C44.7823 24.7458 41.916 22.3385 38.3738 20.6021L37.4934 22.3979ZM45.3314 28.997C47.3688 31.7348 48.7094 34.857 49.3497 38.3789L51.3175 38.0211C50.6245 34.2096 49.1651 30.7985 46.9358 27.803L45.3314 28.997ZM50.1252 37.222L37.9252 39.822L38.342 41.778L50.542 39.178L50.1252 37.222ZM39.1248 40.6678C38.8422 38.5485 38.2031 36.6202 37.1974 34.8961L35.4698 35.9039C36.3308 37.3798 36.8916 39.0515 37.1424 40.9322L39.1248 40.6678ZM37.1974 34.8961C36.1654 33.127 34.6925 31.7344 32.8077 30.7195L31.8595 32.4805C33.4414 33.3322 34.6351 34.473 35.4698 35.9039L37.1974 34.8961ZM32.8222 30.7275C30.9654 29.6877 28.6841 29.2 26.0336 29.2V31.2C28.4498 31.2 30.3685 31.6457 31.845 32.4725L32.8222 30.7275ZM26.0336 29.2C23.3451 29.2 20.8778 29.803 18.6528 31.0232L19.6144 32.7768C21.5228 31.7303 23.6554 31.2 26.0336 31.2V29.2ZM18.663 31.0176C16.4728 32.1858 14.7389 33.9686 13.4557 36.3211L15.2115 37.2789C16.3283 35.2314 17.7944 33.7476 19.6042 32.7824L18.663 31.0176ZM13.4505 36.3308C12.221 38.6452 11.6336 41.4502 11.6336 44.7H13.6336C13.6336 41.6831 14.1795 39.2215 15.2167 37.2692L13.4505 36.3308ZM11.6336 44.7V45.7H13.6336V44.7H11.6336ZM11.6336 45.7C11.6336 48.9513 12.2215 51.7837 13.4446 54.158L15.2226 53.242C14.179 51.2163 13.6336 48.7153 13.6336 45.7H11.6336ZM13.462 54.1903C14.7453 56.4716 16.4718 58.2411 18.6406 59.47L19.6266 57.73C17.7954 56.6923 16.3219 55.1951 15.2052 53.2097L13.462 54.1903ZM18.675 59.4886C20.8958 60.6349 23.3552 61.2 26.0336 61.2V59.2C23.6453 59.2 21.5047 58.6985 19.5922 57.7114L18.675 59.4886ZM26.0336 61.2C29.9936 61.2 33.1566 60.1912 35.3407 58.0071L33.9265 56.5929C32.2439 58.2755 29.6736 59.2 26.0336 59.2V61.2ZM35.3407 58.0071C37.5091 55.8388 38.8576 53.0387 39.42 49.6644L37.4472 49.3356C36.9429 52.3613 35.7581 54.7612 33.9265 56.5929L35.3407 58.0071ZM38.2023 50.4729L50.4023 53.3729L50.8649 51.4271L38.6649 48.5271L38.2023 50.4729ZM49.6624 52.1618C48.8266 55.5694 47.3816 58.6838 45.3249 61.5118L46.9423 62.6882C49.1523 59.6495 50.7073 56.2972 51.6048 52.6382L49.6624 52.1618ZM45.3224 61.5152C43.3586 64.2391 40.7568 66.4024 37.4934 68.0021L38.3738 69.7979C41.9104 68.0643 44.7752 65.6942 46.9448 62.6848L45.3224 61.5152ZM37.4934 68.0021C34.2604 69.5869 30.3516 70.4 25.7336 70.4V72.4C30.5823 72.4 34.8068 71.5464 38.3738 69.7979L37.4934 68.0021ZM61.0273 70H60.0273V71H61.0273V70ZM61.0273 -3.8147e-06V-1H60.0273V-3.8147e-06H61.0273ZM73.6273 -3.8147e-06H74.6273V-1H73.6273V-3.8147e-06ZM73.6273 26.5H72.6273V27.5H73.6273V26.5ZM75.4273 26.5V27.5H76.0454L76.3218 26.9472L75.4273 26.5ZM77.9273 23.3L78.6127 24.0282L77.9273 23.3ZM82.4273 20.7L82.7637 21.6417L82.7729 21.6385L82.782 21.635L82.4273 20.7ZM99.8273 22.3L99.2956 23.1469L99.307 23.1541L99.3186 23.1609L99.8273 22.3ZM106.627 29.6L105.737 30.0548L105.741 30.0626L106.627 29.6ZM109.027 70V71H110.027V70H109.027ZM96.4273 70H95.4273V71H96.4273V70ZM93.6273 33L92.9075 33.6941L92.9138 33.7007L92.9202 33.7071L93.6273 33ZM76.8273 34.1L77.5923 34.7442L77.6004 34.7343L76.8273 34.1ZM73.6273 70V71H74.6273V70H73.6273ZM62.0273 70V-3.8147e-06H60.0273V70H62.0273ZM61.0273 0.999996H73.6273V-1H61.0273V0.999996ZM72.6273 -3.8147e-06V26.5H74.6273V-3.8147e-06H72.6273ZM73.6273 27.5H75.4273V25.5H73.6273V27.5ZM76.3218 26.9472C76.7892 26.0124 77.5403 25.0375 78.6127 24.0282L77.242 22.5718C76.0477 23.6958 75.1322 24.8543 74.5329 26.0528L76.3218 26.9472ZM78.6127 24.0282C79.6222 23.0781 80.9926 22.2743 82.7637 21.6417L82.091 19.7583C80.1287 20.4591 78.4991 21.3886 77.242 22.5718L78.6127 24.0282ZM82.782 21.635C84.5653 20.9586 86.8685 20.6 89.7273 20.6V18.6C86.7195 18.6 84.156 18.9748 82.0727 19.765L82.782 21.635ZM89.7273 20.6C93.4333 20.6 96.61 21.4606 99.2956 23.1469L100.359 21.4531C97.3114 19.5394 93.7547 18.6 89.7273 18.6V20.6ZM99.3186 23.1609C102.083 24.7945 104.22 27.0845 105.737 30.0548L107.518 29.1452C105.835 25.8488 103.438 23.2721 100.336 21.4391L99.3186 23.1609ZM105.741 30.0626C107.253 32.9611 108.027 36.3965 108.027 40.4H110.027C110.027 36.1368 109.202 32.3722 107.514 29.1374L105.741 30.0626ZM108.027 40.4V70H110.027V40.4H108.027ZM109.027 69H96.4273V71H109.027V69ZM97.4273 70V41.4H95.4273V70H97.4273ZM97.4273 41.4C97.4273 37.5125 96.4548 34.4132 94.3344 32.2929L92.9202 33.7071C94.5332 35.3201 95.4273 37.8208 95.4273 41.4H97.4273ZM94.3472 32.3059C92.3052 30.1882 89.4106 29.2 85.8273 29.2V31.2C89.0441 31.2 91.3495 32.0785 92.9075 33.6941L94.3472 32.3059ZM85.8273 29.2C81.7115 29.2 78.4073 30.598 76.0543 33.4657L77.6004 34.7343C79.5141 32.402 82.2099 31.2 85.8273 31.2V29.2ZM76.0624 33.4559C73.7275 36.2286 72.6273 40.0553 72.6273 44.8H74.6273C74.6273 40.3447 75.6606 37.038 77.5923 34.7441L76.0624 33.4559ZM72.6273 44.8V70H74.6273V44.8H72.6273ZM73.6273 69H61.0273V71H73.6273V69ZM128.548 69.6L128.136 70.5111L128.145 70.5152L128.155 70.5191L128.548 69.6ZM121.848 64.2L121.016 64.7547L121.025 64.7681L121.035 64.7812L121.848 64.2ZM121.848 47L121.035 46.4188L121.031 46.4233L121.848 47ZM128.648 41.8L129.016 42.73L129.027 42.7255L128.648 41.8ZM152.248 40V41H153.248V40H152.248ZM150.048 31.5L149.326 32.1912L149.333 32.1992L149.341 32.2071L150.048 31.5ZM136.048 31.4L136.723 32.1385L136.731 32.1307L136.74 32.1226L136.048 31.4ZM133.048 36.9L132.73 37.8479L133.8 38.2077L134.028 37.1017L133.048 36.9ZM121.448 33L120.495 32.6989L120.199 33.635L121.13 33.9479L121.448 33ZM125.248 26.1L124.484 25.4551L124.482 25.4574L125.248 26.1ZM132.348 21L132.745 21.9181L132.755 21.9138L132.348 21ZM158.748 23.9L158.097 24.6583L158.748 23.9ZM171.248 59.6H172.248V58.6H171.248V59.6ZM171.248 70V71H172.248V70H171.248ZM156.748 68.2L156.148 69L156.748 68.2ZM154.348 63.3H155.348V62.3H154.348V63.3ZM152.448 63.3V62.3H151.728L151.5 62.9838L152.448 63.3ZM150.648 66.5L151.453 67.0932L151.461 67.0834L151.468 67.0735L150.648 66.5ZM146.248 69.9L146.696 70.7944L146.248 69.9ZM148.848 58.3L149.509 59.0512L149.51 59.0498L148.848 58.3ZM152.248 49.4H153.248V48.4H152.248V49.4ZM134.048 50.9L134.648 51.7L134.048 50.9ZM134.148 59.5L133.519 60.2772L134.148 59.5ZM138.048 70.4C134.629 70.4 131.6 69.8197 128.942 68.6809L128.155 70.5191C131.097 71.7803 134.401 72.4 138.048 72.4V70.4ZM128.961 68.6889C126.309 67.4895 124.219 65.7984 122.662 63.6188L121.035 64.7812C122.811 67.2683 125.188 69.1772 128.136 70.5111L128.961 68.6889ZM122.68 63.6453C121.208 61.4372 120.448 58.7386 120.448 55.5H118.448C118.448 59.0614 119.288 62.1628 121.016 64.7547L122.68 63.6453ZM120.448 55.5C120.448 52.2593 121.209 49.6398 122.665 47.5767L121.031 46.4233C119.288 48.8936 118.448 51.9407 118.448 55.5H120.448ZM122.662 47.5812C124.208 45.4165 126.315 43.798 129.016 42.73L128.281 40.87C125.249 42.0687 122.822 43.9168 121.035 46.4188L122.662 47.5812ZM129.027 42.7255C131.821 41.5826 135.022 41 138.648 41V39C134.808 39 131.343 39.6174 128.27 40.8745L129.027 42.7255ZM138.648 41H152.248V39H138.648V41ZM153.248 40V37.2H151.248V40H153.248ZM153.248 37.2C153.248 34.6376 152.434 32.4712 150.756 30.7929L149.341 32.2071C150.596 33.4621 151.248 35.0957 151.248 37.2H153.248ZM150.771 30.8088C149.038 28.997 146.384 28.2 143.048 28.2V30.2C146.113 30.2 148.125 30.9363 149.326 32.1912L150.771 30.8088ZM143.048 28.2C139.779 28.2 137.149 28.9636 135.357 30.6774L136.74 32.1226C138.015 30.9031 140.051 30.2 143.048 30.2V28.2ZM135.374 30.6615C133.667 32.22 132.573 34.2498 132.069 36.6983L134.028 37.1017C134.457 35.0168 135.363 33.38 136.723 32.1385L135.374 30.6615ZM133.367 35.9521L121.767 32.0521L121.13 33.9479L132.73 37.8479L133.367 35.9521ZM122.402 33.3011C123.162 30.8948 124.364 28.7104 126.015 26.7426L124.482 25.4574C122.666 27.6229 121.335 30.0386 120.495 32.6989L122.402 33.3011ZM126.013 26.7449C127.699 24.7459 129.933 23.1323 132.745 21.9181L131.952 20.0819C128.897 21.4011 126.398 23.1874 124.484 25.4551L126.013 26.7449ZM132.755 21.9138C135.595 20.6516 139.082 20 143.248 20V18C138.882 18 135.102 18.6817 131.942 20.0862L132.755 21.9138ZM143.248 20C149.617 20 154.527 21.5899 158.097 24.6583L159.4 23.1417C155.37 19.6768 149.947 18 143.248 18V20ZM158.097 24.6583C161.624 27.691 163.448 32.1163 163.448 38.1H165.448C165.448 31.6837 163.473 26.6424 159.4 23.1417L158.097 24.6583ZM163.448 38.1V56.6H165.448V38.1H163.448ZM163.448 56.6C163.448 57.7376 163.713 58.7771 164.417 59.5323C165.134 60.3005 166.143 60.6 167.248 60.6V58.6C166.488 58.6 166.096 58.3995 165.88 58.1677C165.651 57.9229 165.448 57.4624 165.448 56.6H163.448ZM167.248 60.6H171.248V58.6H167.248V60.6ZM170.248 59.6V70H172.248V59.6H170.248ZM171.248 69H162.848V71H171.248V69ZM162.848 69C160.547 69 158.738 68.4424 157.348 67.4L156.148 69C157.959 70.3576 160.217 71 162.848 71V69ZM157.348 67.4C156 66.3889 155.348 65.0852 155.348 63.4H153.348C153.348 65.7148 154.297 67.6111 156.148 69L157.348 67.4ZM155.348 63.4V63.3H153.348V63.4H155.348ZM154.348 62.3H152.448V64.3H154.348V62.3ZM151.5 62.9838C151.28 63.6426 150.749 64.6133 149.829 65.9265L151.468 67.0735C152.415 65.7201 153.083 64.5574 153.397 63.6162L151.5 62.9838ZM149.843 65.9068C149.035 67.004 147.716 68.0484 145.801 69.0056L146.696 70.7944C148.781 69.7516 150.395 68.5293 151.453 67.0932L149.843 65.9068ZM145.801 69.0056C143.996 69.9083 141.437 70.4 138.048 70.4V72.4C141.593 72.4 144.501 71.8917 146.696 70.7944L145.801 69.0056ZM140.248 62.2C143.972 62.2 147.09 61.1765 149.509 59.0512L148.188 57.5488C146.207 59.2902 143.591 60.2 140.248 60.2V62.2ZM149.51 59.0498C152.011 56.8434 153.248 53.9275 153.248 50.4H151.248C151.248 53.4058 150.22 55.7566 148.187 57.5502L149.51 59.0498ZM153.248 50.4V49.4H151.248V50.4H153.248ZM152.248 48.4H139.548V50.4H152.248V48.4ZM139.548 48.4C137.083 48.4 135.012 48.9273 133.448 50.1L134.648 51.7C135.751 50.8727 137.347 50.4 139.548 50.4V48.4ZM133.448 50.1C131.841 51.3057 131.048 53.0145 131.048 55.1H133.048C133.048 53.5855 133.589 52.4943 134.648 51.7L133.448 50.1ZM131.048 55.1C131.048 57.202 131.885 58.9542 133.519 60.2772L134.778 58.7228C133.612 57.7791 133.048 56.598 133.048 55.1H131.048ZM133.519 60.2772C135.165 61.6097 137.459 62.2 140.248 62.2V60.2C137.705 60.2 135.932 59.657 134.778 58.7228L133.519 60.2772ZM180.461 70H179.461V71H180.461V70ZM180.461 20.4V19.4H179.461V20.4H180.461ZM192.861 20.4H193.861V19.4H192.861V20.4ZM192.861 26.9H191.861V27.9H192.861V26.9ZM194.661 26.9V27.9H195.301L195.569 27.3191L194.661 26.9ZM199.161 22L199.733 22.8204L199.741 22.8146L199.749 22.8087L199.161 22ZM219.261 22.3L218.729 23.1469L218.741 23.1541L218.752 23.1609L219.261 22.3ZM226.061 29.6L225.17 30.0548L225.174 30.0626L226.061 29.6ZM228.461 70V71H229.461V70H228.461ZM215.861 70H214.861V71H215.861V70ZM213.061 33L212.341 33.6941L212.347 33.7007L212.354 33.7071L213.061 33ZM196.261 34.1L197.026 34.7442L197.034 34.7343L196.261 34.1ZM193.061 70V71H194.061V70H193.061ZM181.461 70V20.4H179.461V70H181.461ZM180.461 21.4H192.861V19.4H180.461V21.4ZM191.861 20.4V26.9H193.861V20.4H191.861ZM192.861 27.9H194.661V25.9H192.861V27.9ZM195.569 27.3191C196.27 25.7994 197.622 24.2912 199.733 22.8204L198.589 21.1796C196.299 22.7754 194.652 24.534 193.753 26.4809L195.569 27.3191ZM199.749 22.8087C201.7 21.3901 204.782 20.6 209.161 20.6V18.6C204.607 18.6 201.022 19.4099 198.573 21.1913L199.749 22.8087ZM209.161 20.6C212.867 20.6 216.044 21.4606 218.729 23.1469L219.793 21.4531C216.745 19.5394 213.188 18.6 209.161 18.6V20.6ZM218.752 23.1609C221.517 24.7945 223.654 27.0845 225.17 30.0548L226.952 29.1452C225.268 25.8488 222.872 23.2721 219.77 21.4391L218.752 23.1609ZM225.174 30.0626C226.687 32.9611 227.461 36.3965 227.461 40.4H229.461C229.461 36.1368 228.635 32.3722 226.948 29.1374L225.174 30.0626ZM227.461 40.4V70H229.461V40.4H227.461ZM228.461 69H215.861V71H228.461V69ZM216.861 70V41.4H214.861V70H216.861ZM216.861 41.4C216.861 37.5125 215.888 34.4132 213.768 32.2929L212.354 33.7071C213.967 35.3201 214.861 37.8208 214.861 41.4H216.861ZM213.781 32.3059C211.739 30.1882 208.844 29.2 205.261 29.2V31.2C208.478 31.2 210.783 32.0785 212.341 33.6941L213.781 32.3059ZM205.261 29.2C201.145 29.2 197.841 30.598 195.488 33.4657L197.034 34.7343C198.948 32.402 201.643 31.2 205.261 31.2V29.2ZM195.496 33.4559C193.161 36.2286 192.061 40.0553 192.061 44.8H194.061C194.061 40.3447 195.094 37.038 197.026 34.7441L195.496 33.4559ZM192.061 44.8V70H194.061V44.8H192.061ZM193.061 69H180.461V71H193.061V69ZM242.782 30.5L243.653 30.991L243.657 30.9843L242.782 30.5ZM250.982 22L251.476 22.8693L251.482 22.8662L250.982 22ZM272.582 21.4L273.148 20.5753L272.582 21.4ZM277.682 26.4L276.83 26.9241L277.123 27.4H277.682V26.4ZM279.482 26.4V27.4H280.482V26.4H279.482ZM279.482 20.4V19.4H278.482V20.4H279.482ZM291.882 20.4H292.882V19.4H291.882V20.4ZM288.882 86.9L288.175 86.1929L288.169 86.1987L288.163 86.2046L288.882 86.9ZM247.682 90H246.682V91H247.682V90ZM247.682 79V78H246.682V79H247.682ZM279.282 63.1H280.282V62.1H279.282V63.1ZM277.482 63.1V62.1H276.928L276.634 62.57L277.482 63.1ZM274.682 66.4L275.346 67.1474L275.358 67.1374L275.369 67.127L274.682 66.4ZM269.882 69.1L270.226 70.0389L269.882 69.1ZM250.982 67.3L250.475 68.1619L250.485 68.1678L250.495 68.1734L250.982 67.3ZM242.782 58.8L241.907 59.2843L241.911 59.291L242.782 58.8ZM275.582 55.5L274.894 54.7745L275.582 55.5ZM275.582 33.7L274.884 34.4165L274.894 34.4258L274.904 34.4348L275.582 33.7ZM256.182 33.7L256.86 34.4349L256.87 34.4255L256.182 33.7ZM256.182 55.5L256.87 54.7745L256.182 55.5ZM240.682 45.4V43.8H238.682V45.4H240.682ZM240.682 43.8C240.682 38.7319 241.689 34.4764 243.653 30.991L241.911 30.009C239.742 33.8569 238.682 38.4681 238.682 43.8H240.682ZM243.657 30.9843C245.643 27.3967 248.251 24.7035 251.476 22.8693L250.488 21.1307C246.913 23.1631 244.054 26.1366 241.907 30.0157L243.657 30.9843ZM251.482 22.8662C254.794 20.9553 258.388 20 262.282 20V18C258.043 18 254.103 19.0447 250.482 21.1338L251.482 22.8662ZM262.282 20C266.725 20 269.923 20.7888 272.017 22.2247L273.148 20.5753C270.575 18.8111 266.906 18 262.282 18V20ZM272.017 22.2247C274.277 23.7745 275.86 25.3468 276.83 26.9241L278.534 25.8759C277.371 23.9866 275.554 22.2255 273.148 20.5753L272.017 22.2247ZM277.682 27.4H279.482V25.4H277.682V27.4ZM280.482 26.4V20.4H278.482V26.4H280.482ZM279.482 21.4H291.882V19.4H279.482V21.4ZM290.882 20.4V78.8H292.882V20.4H290.882ZM290.882 78.8C290.882 81.9921 289.95 84.4174 288.175 86.1929L289.589 87.6071C291.814 85.3826 292.882 82.4079 292.882 78.8H290.882ZM288.163 86.2046C286.382 88.0453 283.991 89 280.882 89V91C284.439 91 287.382 89.888 289.601 87.5954L288.163 86.2046ZM280.882 89H247.682V91H280.882V89ZM248.682 90V79H246.682V90H248.682ZM247.682 80H276.482V78H247.682V80ZM276.482 80C277.588 80 278.596 79.7005 279.313 78.9323C280.018 78.1771 280.282 77.1376 280.282 76H278.282C278.282 76.8624 278.079 77.3229 277.851 77.5677C277.635 77.7995 277.243 78 276.482 78V80ZM280.282 76V63.1H278.282V76H280.282ZM279.282 62.1H277.482V64.1H279.282V62.1ZM276.634 62.57C276.024 63.546 275.152 64.5811 273.995 65.673L275.369 67.127C276.613 65.9522 277.607 64.7874 278.33 63.63L276.634 62.57ZM274.018 65.6526C272.937 66.6136 271.456 67.4576 269.538 68.1611L270.226 70.0389C272.308 69.2757 274.028 68.3198 275.346 67.1474L274.018 65.6526ZM269.538 68.1611C267.685 68.8405 265.278 69.2 262.282 69.2V71.2C265.419 71.2 268.079 70.8262 270.226 70.0389L269.538 68.1611ZM262.282 69.2C258.382 69.2 254.783 68.2748 251.469 66.4266L250.495 68.1734C254.114 70.1918 258.049 71.2 262.282 71.2V69.2ZM251.489 66.4381C248.251 64.5335 245.639 61.8327 243.653 58.309L241.911 59.291C244.058 63.1006 246.913 66.0665 250.475 68.1619L251.489 66.4381ZM243.657 58.3157C241.688 54.7597 240.682 50.4673 240.682 45.4H238.682C238.682 50.7327 239.742 55.3736 241.907 59.2843L243.657 58.3157ZM265.882 60.2C269.983 60.2 273.469 58.8831 276.27 56.2255L274.894 54.7745C272.495 57.0503 269.515 58.2 265.882 58.2V60.2ZM276.27 56.2255C279.116 53.5255 280.482 49.769 280.482 45.1H278.482C278.482 49.3644 277.248 52.5411 274.894 54.7745L276.27 56.2255ZM280.482 45.1V44.1H278.482V45.1H280.482ZM280.482 44.1C280.482 39.3708 279.119 35.6044 276.26 32.9652L274.904 34.4348C277.245 36.5956 278.482 39.7625 278.482 44.1H280.482ZM276.28 32.9835C273.538 30.3139 270.044 29 265.882 29V31C269.587 31 272.56 32.1527 274.884 34.4165L276.28 32.9835ZM265.882 29C261.781 29 258.295 30.3169 255.494 32.9745L256.87 34.4255C259.269 32.1497 262.249 31 265.882 31V29ZM255.504 32.9652C252.645 35.6044 251.282 39.3708 251.282 44.1H253.282C253.282 39.7625 254.519 36.5956 256.86 34.4348L255.504 32.9652ZM251.282 44.1V45.1H253.282V44.1H251.282ZM251.282 45.1C251.282 49.769 252.648 53.5255 255.494 56.2255L256.87 54.7745C254.516 52.5411 253.282 49.3644 253.282 45.1H251.282ZM255.494 56.2255C258.295 58.8831 261.781 60.2 265.882 60.2V58.2C262.249 58.2 259.269 57.0503 256.87 54.7745L255.494 56.2255ZM315.352 68.3L314.855 69.1682L314.865 69.1735L314.874 69.1785L315.352 68.3ZM306.552 59.4L305.67 59.8714L305.674 59.8805L305.68 59.8895L306.552 59.4ZM306.552 31.1L307.43 31.5778L307.434 31.5714L306.552 31.1ZM315.252 22.2L315.736 23.075L315.748 23.0682L315.252 22.2ZM340.952 22.3L340.43 23.1534L340.442 23.1603L340.952 22.3ZM349.352 31.3L348.463 31.7594L348.467 31.7657L349.352 31.3ZM352.352 48.9V49.9H353.352V48.9H352.352ZM316.252 48.9V47.9H315.212L315.252 48.9392L316.252 48.9ZM336.652 58.1L335.975 57.3641L336.652 58.1ZM340.452 53L340.916 52.1143L339.986 51.6271L339.545 52.5789L340.452 53ZM350.752 58.4L351.632 58.8741L352.111 57.9838L351.216 57.5143L350.752 58.4ZM346.652 64.1L345.897 63.4432L345.896 63.4451L346.652 64.1ZM339.652 69.3L340.082 70.2025L340.091 70.1985L340.099 70.1944L339.652 69.3ZM316.352 39.5L315.365 39.3393L315.176 40.5H316.352V39.5ZM339.552 39.5V40.5H340.649L340.547 39.4074L339.552 39.5ZM336.052 32.6L335.397 33.3557L335.403 33.361L335.409 33.3662L336.052 32.6ZM328.452 70.4C323.661 70.4 319.463 69.3978 315.829 67.4215L314.874 69.1785C318.84 71.3355 323.375 72.4 328.452 72.4V70.4ZM315.848 67.4318C312.274 65.3896 309.469 62.5548 307.424 58.9105L305.68 59.8895C307.9 63.8452 310.963 66.9438 314.855 69.1682L315.848 67.4318ZM307.434 58.9286C305.458 55.2317 304.452 50.8661 304.452 45.8H302.452C302.452 51.1339 303.512 55.8349 305.67 59.8714L307.434 58.9286ZM304.452 45.8V44.6H302.452V45.8H304.452ZM304.452 44.6C304.452 39.5333 305.458 35.2042 307.43 31.5778L305.673 30.6222C303.512 34.5958 302.452 39.2667 302.452 44.6H304.452ZM307.434 31.5714C309.412 27.8698 312.176 25.0455 315.736 23.0749L314.767 21.3251C310.86 23.4878 307.825 26.5969 305.67 30.6286L307.434 31.5714ZM315.748 23.0682C319.309 21.0333 323.466 20 328.252 20V18C323.17 18 318.661 19.1 314.755 21.3318L315.748 23.0682ZM328.252 20C332.963 20 337.01 21.0632 340.43 23.1533L341.473 21.4467C337.693 19.1368 333.273 18 328.252 18V20ZM340.442 23.1603C343.874 25.1941 346.546 28.0521 348.463 31.7594L350.24 30.8406C348.157 26.8145 345.229 23.6725 341.461 21.4397L340.442 23.1603ZM348.467 31.7657C350.379 35.3984 351.352 39.6665 351.352 44.6H353.352C353.352 39.4002 352.325 34.8016 350.236 30.8343L348.467 31.7657ZM351.352 44.6V48.9H353.352V44.6H351.352ZM352.352 47.9H316.252V49.9H352.352V47.9ZM315.252 48.9392C315.396 52.5929 316.771 55.6217 319.387 57.9474L320.716 56.4526C318.532 54.5117 317.374 52.0071 317.251 48.8608L315.252 48.9392ZM319.387 57.9474C321.985 60.257 325.161 61.4 328.852 61.4V59.4C325.609 59.4 322.918 58.4097 320.716 56.4526L319.387 57.9474ZM328.852 61.4C332.501 61.4 335.398 60.6125 337.329 58.8359L335.975 57.3641C334.572 58.6542 332.269 59.4 328.852 59.4V61.4ZM337.329 58.8359C339.082 57.2227 340.431 55.4182 341.359 53.4211L339.545 52.5789C338.738 54.3151 337.554 55.9106 335.975 57.3641L337.329 58.8359ZM339.987 53.8857L350.287 59.2857L351.216 57.5143L340.916 52.1143L339.987 53.8857ZM349.871 57.9259C348.984 59.574 347.666 61.4125 345.897 63.4432L347.406 64.7568C349.237 62.6542 350.653 60.6927 351.632 58.8741L349.871 57.9259ZM345.896 63.4451C344.267 65.3251 342.047 66.9841 339.204 68.4056L340.099 70.1944C343.122 68.6826 345.57 66.8749 347.407 64.7549L345.896 63.4451ZM339.221 68.3975C336.464 69.7132 332.891 70.4 328.452 70.4V72.4C333.079 72.4 336.972 71.6868 340.082 70.2025L339.221 68.3975ZM316.352 40.5H339.552V38.5H316.352V40.5ZM340.547 39.4074C340.258 36.298 338.977 33.7486 336.694 31.8338L335.409 33.3662C337.259 34.9181 338.312 36.9687 338.556 39.5926L340.547 39.4074ZM336.706 31.8443C334.485 29.9189 331.6 29 328.152 29V31C331.236 31 333.618 31.8144 335.397 33.3557L336.706 31.8443ZM328.152 29C324.581 29 321.625 29.9128 319.397 31.8443L320.706 33.3557C322.478 31.8205 324.922 31 328.152 31V29ZM319.397 31.8443C317.202 33.7463 315.865 36.2657 315.365 39.3393L317.339 39.6607C317.772 37.001 318.901 34.9204 320.706 33.3557L319.397 31.8443Z" fill="#11112B" mask="url(#path-1-outside-1_8_2653)"/>
</svg>
