<svg width="125" height="42" viewBox="0 0 125 42" fill="none" xmlns="http://www.w3.org/2000/svg">
<g opacity="0.5">
<path d="M53.194 21.5387C53.194 27.3685 48.603 31.6644 42.9688 31.6644C37.3346 31.6644 32.7437 27.3685 32.7437 21.5387C32.7437 15.6679 37.3346 11.4131 42.9688 11.4131C48.603 11.4131 53.194 15.6679 53.194 21.5387ZM48.7179 21.5387C48.7179 17.8957 46.0571 15.4031 42.9688 15.4031C39.8806 15.4031 37.2198 17.8957 37.2198 21.5387C37.2198 25.1453 39.8806 27.6744 42.9688 27.6744C46.0571 27.6744 48.7179 25.1407 48.7179 21.5387Z" fill="white"/>
<path d="M75.2529 21.5387C75.2529 27.3685 70.6619 31.6644 65.0277 31.6644C59.3935 31.6644 54.8025 27.3685 54.8025 21.5387C54.8025 15.6724 59.3935 11.4131 65.0277 11.4131C70.6619 11.4131 75.2529 15.6679 75.2529 21.5387ZM70.7768 21.5387C70.7768 17.8957 68.1159 15.4031 65.0277 15.4031C61.9394 15.4031 59.2786 17.8957 59.2786 21.5387C59.2786 25.1453 61.9394 27.6744 65.0277 27.6744C68.1159 27.6744 70.7768 25.1407 70.7768 21.5387Z" fill="white"/>
<path d="M96.3925 12.0248V30.2035C96.3925 37.6813 91.9532 40.7355 86.705 40.7355C81.7647 40.7355 78.7914 37.4531 77.6701 34.7687L81.5671 33.1572C82.2611 34.8053 83.9614 36.75 86.7004 36.75C90.0598 36.75 92.1416 34.6911 92.1416 30.8153V29.359H91.9853C90.9835 30.587 89.0533 31.6598 86.6177 31.6598C81.5212 31.6598 76.8521 27.2498 76.8521 21.5753C76.8521 15.8596 81.5212 11.4131 86.6177 11.4131C89.0487 11.4131 90.9789 12.4859 91.9853 13.6774H92.1416V12.0294H96.3925V12.0248ZM92.4587 21.5753C92.4587 18.0098 90.0644 15.4031 87.0175 15.4031C83.9293 15.4031 81.3419 18.0098 81.3419 21.5753C81.3419 25.1042 83.9293 27.6744 87.0175 27.6744C90.0644 27.6744 92.4587 25.1042 92.4587 21.5753Z" fill="white"/>
<path d="M103.401 1.36963V31.0435H99.0349V1.36963H103.401Z" fill="white"/>
<path d="M120.414 24.8715L123.888 27.1724C122.766 28.8204 120.064 31.66 115.395 31.66C109.605 31.66 105.28 27.2135 105.28 21.5343C105.28 15.5128 109.641 11.4087 114.894 11.4087C120.184 11.4087 122.771 15.5904 123.617 17.8502L124.081 19.0006L110.455 24.6067C111.498 26.6383 113.12 27.6746 115.395 27.6746C117.675 27.6746 119.255 26.5606 120.414 24.8715ZM109.72 21.2285L118.828 17.4713C118.327 16.2067 116.82 15.3256 115.046 15.3256C112.771 15.3256 109.605 17.3206 109.72 21.2285Z" fill="white"/>
<path d="M16.2179 18.9044V14.6085H30.7905C30.933 15.3572 31.0065 16.2428 31.0065 17.2015C31.0065 20.4246 30.1196 24.41 27.2611 27.2496C24.4808 30.1257 20.9284 31.6596 16.2225 31.6596C7.50009 31.6596 0.165527 24.6017 0.165527 15.937C0.165527 7.27218 7.50009 0.214355 16.2225 0.214355C21.0479 0.214355 24.4854 2.09522 27.0681 4.54675L24.0166 7.57805C22.1646 5.8524 19.6554 4.51023 16.2179 4.51023C9.84843 4.51023 4.86681 9.60957 4.86681 15.937C4.86681 22.2644 9.84843 27.3637 16.2179 27.3637C20.3494 27.3637 22.7023 25.7157 24.2096 24.2183C25.4321 23.0039 26.2363 21.2691 26.5534 18.8998L16.2179 18.9044Z" fill="white"/>
</g>
</svg>
