<svg width="140" height="140" viewBox="0 0 140 140" fill="none" xmlns="http://www.w3.org/2000/svg">
<g opacity="0.8" clip-path="url(#clip0_329_2)">
<path d="M62.589 139.853L61.5149 139.728C36.9474 136.786 10.4013 111.203 2.35156 82.6895L2.75857 82.5537C5.70939 90.1121 17.1961 95.6112 34.2679 97.6592H34.4149L34.4488 97.8176C40.0565 117.675 49.9604 132.803 61.6393 139.332L62.589 139.864V139.853ZM3.44823 84.8506C12.052 111.871 37.0378 135.734 60.4974 139.162C49.1577 132.328 39.5703 117.438 34.0757 98.0665C18.5528 96.1882 7.62008 91.436 3.44823 84.8506Z" fill="#92DEED"/>
<path d="M41.3906 116.679C31.8937 115.548 21.6506 105.67 18.5415 94.6717L18.9598 94.5586C22.0237 105.41 32.1085 115.152 41.4471 116.261L41.4019 116.691L41.3906 116.679Z" fill="#92DEED"/>
<path d="M50.7176 130.733C32.9223 128.606 13.7024 110.083 7.87988 89.4335L8.2982 89.3203C14.0868 109.812 33.1371 128.199 50.7742 130.303L50.7289 130.733H50.7176Z" fill="#92DEED"/>
<path d="M37.0041 129.963C31.2947 125.788 30.2093 114.066 34.042 97.8174L34.4603 97.9192C30.6729 113.986 31.7017 125.55 37.2642 129.612L37.0154 129.963H37.0041Z" fill="#92DEED"/>
<path d="M34.5394 98.1232L34.2228 98.0893C16.9814 96.03 5.37036 90.4291 2.36301 82.7123C-1.98973 67.29 -0.237324 53.4857 7.1793 44.8071C13.0131 37.9842 21.9899 34.9066 32.4478 36.1625L32.6852 36.1965L32.6287 36.4341C28.1742 55.5677 28.8412 77.9373 34.4489 97.8177L34.5394 98.1232ZM27.9594 36.3209C19.5479 36.3209 12.3913 39.3646 7.50716 45.09C0.192297 53.6554 -1.53749 67.3126 2.77002 82.5765C5.69823 90.067 17.0606 95.5434 33.9515 97.6254C28.4229 77.8355 27.7672 55.6129 32.1652 36.5699C30.7406 36.4114 29.3387 36.3322 27.9707 36.3322L27.9594 36.3209Z" fill="#92DEED"/>
<path d="M18.5414 94.6608C16.8569 88.6978 17.5465 83.3458 20.4182 79.974C22.6907 77.3149 26.1729 76.1155 30.243 76.6021L30.1977 77.0321C26.2746 76.5682 22.9168 77.711 20.7461 80.2568C17.9648 83.5155 17.3091 88.7204 18.9484 94.5363L18.5301 94.6495L18.5414 94.6608Z" fill="#92DEED"/>
<path d="M7.8805 89.4329C4.72617 78.2763 6.00373 68.2739 11.3853 61.9828C15.6137 57.0268 22.1258 54.7978 29.712 55.7143L29.6668 56.1443C22.2276 55.2504 15.8511 57.4342 11.7132 62.2656C6.43335 68.4436 5.18971 78.3103 8.29881 89.331L7.8805 89.4442V89.4329Z" fill="#92DEED"/>
<path d="M34.1324 98.0442C16.4388 86.1974 4.38683 71.3748 1.07422 57.3782L1.49253 57.2764C4.78253 71.1711 16.7667 85.8919 34.3699 97.6934L34.1324 98.0442Z" fill="#92DEED"/>
<path d="M34.0758 97.9988C20.5428 79.7365 12.4139 58.8604 11.7808 40.7451H12.2104C12.8435 58.7698 20.9385 79.5441 34.4263 97.7499L34.0871 98.0101L34.0758 97.9988Z" fill="#92DEED"/>
<path d="M49.3613 98.9382C44.1041 98.9382 39.0165 98.6554 34.2228 98.0783H34.0758L34.0419 97.9199C28.4116 77.9716 27.7446 55.5227 32.2217 36.3213L32.2669 36.1289L32.4591 36.1515C57.0267 39.0934 83.5727 64.6765 91.6225 93.1902L91.679 93.4052L91.4642 93.4618C77.6372 97.06 62.9396 98.9382 49.3726 98.9382H49.3613ZM34.415 97.671C51.4529 99.685 72.1086 98.0217 91.1363 93.0997C83.0753 64.9028 56.891 39.6252 32.5948 36.6041C28.1968 55.6472 28.8638 77.8924 34.415 97.671Z" fill="#92DEED"/>
<path d="M52.685 98.7463C49.6212 87.8953 39.5364 78.1531 30.1978 77.0442L30.243 76.6143C39.7399 77.7458 49.9829 87.6237 53.092 98.6332L52.6737 98.7463H52.685Z" fill="#92DEED"/>
<path d="M72.1425 97.1169C66.3539 76.6255 47.3036 58.2387 29.6665 56.1341L29.7117 55.7041C47.5071 57.8313 66.727 76.3539 72.5495 97.0037L72.1312 97.1169H72.1425Z" fill="#92DEED"/>
<path d="M34.4603 97.92L34.042 97.8182C37.8521 81.6378 46.094 62.7418 56.6536 45.9844L57.0154 46.2107C46.4784 62.9342 38.2591 81.7849 34.4603 97.92Z" fill="#92DEED"/>
<path d="M66.0037 140C64.5452 140 63.0415 139.91 61.5153 139.729L61.4361 139.706C49.6668 133.132 39.6837 117.902 34.0421 97.9314L33.9517 97.6259L34.2682 97.6598C51.3965 99.7078 72.1993 98.0332 91.34 93.0546L91.5435 92.998L91.6 93.2017C95.9415 108.601 94.1891 122.406 86.7725 131.084C81.7979 136.911 74.5283 140 65.9924 140H66.0037ZM61.6057 139.31C71.9053 140.521 80.7352 137.511 86.4559 130.801C93.7369 122.27 95.4893 108.692 91.2496 93.5185C72.2332 98.4405 51.6 100.115 34.5396 98.1237C40.1586 117.812 50.0059 132.804 61.6057 139.31Z" fill="#92DEED"/>
<path d="M43.1322 116.782C42.5669 116.782 41.979 116.748 41.3911 116.68L41.4363 116.25C45.3482 116.714 48.7173 115.571 50.888 113.025C53.6692 109.767 54.325 104.562 52.6856 98.746L53.1039 98.6328C54.7885 104.596 54.0989 109.948 51.2272 113.308C49.2939 115.583 46.4561 116.782 43.1435 116.782H43.1322Z" fill="#92DEED"/>
<path d="M53.9743 130.926C52.9116 130.926 51.8262 130.858 50.7183 130.733L50.7635 130.303C58.214 131.197 64.5792 129.013 68.7171 124.182C73.9969 118.004 75.2406 108.137 72.1315 97.1278L72.5498 97.0146C75.7041 108.171 74.4266 118.174 69.045 124.465C65.4271 128.697 60.1586 130.937 53.963 130.937L53.9743 130.926Z" fill="#92DEED"/>
<path d="M92.6739 118.773C73.1487 117.449 51.8146 109.891 34.1323 98.0441L34.3697 97.6934C51.9842 109.495 73.2505 117.019 92.7078 118.343L92.6739 118.773Z" fill="#92DEED"/>
<path d="M81.9111 135.361C65.0541 129.885 47.6205 116.262 34.0762 97.9995L34.4153 97.7393C47.9032 115.934 65.2576 129.5 82.0355 134.943L81.8998 135.35L81.9111 135.361Z" fill="#92DEED"/>
<path d="M66.0035 140C64.8729 140 63.731 139.943 62.5552 139.841L62.5891 139.864L61.4699 139.728C52.6061 138.665 43.1996 134.625 34.2567 128.04C32.1086 126.377 29.4065 124.17 27.5298 122.541C26.6931 121.828 25.7095 120.855 24.8503 119.995C24.579 119.723 24.3189 119.475 24.0815 119.237C22.0351 117.257 18.9373 113.67 17.2415 111.498C15.9752 109.879 14.3246 107.537 12.1765 104.335C11.566 103.419 10.8763 102.231 10.2658 101.167L9.89269 100.533C9.20304 99.3566 8.32118 97.6933 7.69936 96.4034C6.87404 94.7061 5.8226 92.3639 5.07641 90.5875C4.01366 87.9737 3.09789 85.3147 2.36301 82.7009C-1.98973 67.29 -0.237324 53.4857 7.1793 44.8071C13.0131 37.9842 21.9899 34.9066 32.4478 36.1625C57.0154 39.1044 83.5614 64.6875 91.6112 93.2012C95.9526 108.601 94.2002 122.405 86.7836 131.084C81.809 136.911 74.5394 140 66.0035 140ZM61.6055 139.31C71.9051 140.52 80.735 137.511 86.4557 130.801C93.7706 122.235 95.5004 108.567 91.1929 93.3144C83.1883 64.9591 56.8119 39.5117 32.3913 36.5925C22.0691 35.3592 13.2279 38.3802 7.49586 45.09C0.192297 53.6554 -1.53749 67.3126 2.77002 82.5765C3.5049 85.1789 4.40937 87.8153 5.47212 90.4177C6.2183 92.1942 7.26974 94.5251 8.08376 96.211C8.70558 97.4896 9.57613 99.1416 10.2658 100.318L10.6389 100.952C11.2494 102.004 11.9277 103.192 12.5383 104.098C14.6751 107.288 16.3257 109.619 17.5807 111.237C19.2652 113.41 22.3517 116.963 24.3868 118.943C24.6355 119.18 24.8955 119.441 25.1669 119.701C26.0261 120.549 27.0097 121.511 27.835 122.224C29.7118 123.842 32.4026 126.049 34.5394 127.701C43.0753 133.98 52.0295 137.929 60.5202 139.163C49.1578 132.317 39.5479 117.37 34.0645 97.9309L34.4829 97.8177C40.0792 117.653 49.9831 132.781 61.6394 139.31H61.6055Z" fill="#92DEED"/>
<path d="M62.589 139.853L61.5149 139.728C36.9474 136.786 10.4013 111.203 2.35156 82.6895L2.75857 82.5537C5.70939 90.1121 17.1961 95.6112 34.2679 97.6592H34.4149L34.4488 97.8176C40.0565 117.675 49.9604 132.803 61.6393 139.332L62.589 139.864V139.853ZM3.44823 84.8506C12.052 111.871 37.0378 135.734 60.4974 139.162C49.1577 132.328 39.5703 117.438 34.0757 98.0665C18.5528 96.1882 7.62008 91.436 3.44823 84.8506Z" fill="#92DEED"/>
<path d="M16.0202 109.732C15.9298 109.732 15.8846 109.699 15.8506 109.676C15.8167 109.642 15.6924 109.529 15.7715 109.314L16.1785 109.461C16.1785 109.461 16.1785 109.404 16.1446 109.359C16.1107 109.314 16.0655 109.303 16.0541 109.303C16.3594 109.303 18.5866 108.431 34.1208 97.6934L34.3583 98.0441C19.1406 108.567 16.5855 109.732 16.0089 109.732H16.0202Z" fill="#92DEED"/>
<path d="M34.2679 128.04C34.1096 127.927 33.9626 127.814 33.8043 127.701C32.7529 126.92 31.4414 125.924 30.4804 125.098C30.3221 124.963 30.1526 124.815 29.9717 124.668C29.6664 124.408 29.3612 124.148 29.0672 123.888C28.4002 123.311 27.6879 122.7 27.1226 122.19C26.3651 121.5 25.4493 120.606 24.6466 119.814L23.9909 119.169C21.2662 116.522 18.338 112.878 17.2413 111.509C15.602 109.472 14.9462 108.488 12.1763 104.347C11.5432 103.396 10.8422 102.186 10.2204 101.111L9.79077 100.364C8.82978 98.7118 7.73312 96.4715 6.87387 94.7176C6.67037 94.2877 6.45556 93.8125 6.22944 93.3033C5.82243 92.3981 5.43803 91.4929 5.06494 90.5877L5.46065 90.418C5.63023 90.814 5.82243 91.2553 6.01463 91.7079C6.21814 92.1831 6.42164 92.6696 6.62514 93.1336C11.758 104.528 19.7851 115.254 29.3272 123.548C29.4968 123.695 29.6664 123.842 29.8247 123.978C29.9717 124.103 30.1073 124.227 30.243 124.34C31.4866 125.393 32.7529 126.388 34.0305 127.361C34.1887 127.486 34.347 127.599 34.494 127.701L34.2453 128.052L34.2679 128.04Z" fill="#92DEED"/>
<path d="M2.40824 82.8707L2.36301 82.6896C-1.98973 67.29 -0.237324 53.4857 7.1793 44.8071C13.0131 37.9842 21.9899 34.9066 32.4478 36.1625H32.5383L32.5948 36.2417C38.1007 43.223 44.2059 47.0701 50.1979 47.6246C53.1714 44.4677 57.5693 43.0646 62.6683 43.6756L63.1883 43.7322L62.7813 44.049C58.8808 47.0928 54.6637 48.4053 50.3675 48.0659C50.2771 48.1564 50.1979 48.2582 50.1075 48.36C46.4218 52.671 45.5626 59.5505 47.7333 67.2447L47.7785 67.3805L47.6654 67.471C38.2251 74.8257 21.3794 80.5737 2.61174 82.8367L2.43085 82.8594L2.40824 82.8707ZM27.9707 36.3209C19.5592 36.3209 12.4026 39.3646 7.51847 45.09C0.214909 53.6215 -1.52619 67.2108 2.7135 82.3954C21.2663 80.1325 37.8859 74.475 47.2584 67.2334C45.099 59.46 46.0035 52.49 49.757 48.0885C49.7796 48.0659 49.7909 48.0432 49.8136 48.0206C43.8441 47.353 37.7842 43.4833 32.3008 36.5699C30.8198 36.4001 29.3726 36.3096 27.9594 36.3096L27.9707 36.3209ZM50.7519 47.6698C54.6411 47.8961 58.4964 46.7081 62.0691 44.049C57.4789 43.6191 53.5106 44.8977 50.7519 47.6698Z" fill="#92DEED"/>
<path d="M19.8419 79.442C16.6197 68.0252 17.9199 57.7852 23.4258 51.347C27.756 46.2779 34.4151 44.0036 42.1822 44.9314L42.137 45.3614C34.5169 44.4449 27.9934 46.6739 23.7537 51.6299C18.3495 57.9549 17.072 68.0592 20.2602 79.3289L19.8419 79.442Z" fill="#92DEED"/>
<path d="M35.3308 74.2259C32.8549 65.4455 33.8611 57.559 38.0895 52.603C41.4247 48.6994 46.5462 46.9456 52.5383 47.6584L52.4931 48.0884C46.6593 47.3982 41.6621 49.0954 38.4286 52.8859C34.2907 57.7287 33.3184 65.4682 35.7492 74.1128L35.3308 74.2259Z" fill="#92DEED"/>
<path d="M38.6659 50.6683C30.7179 50.6683 21.4245 47.3643 11.8711 40.9035L12.1085 40.5527C27.8462 51.1888 42.8151 53.2029 52.1537 45.9273L52.4138 46.2668C48.6263 49.22 43.9457 50.6683 38.6659 50.6683Z" fill="#92DEED"/>
<path d="M91.7582 93.7331L91.2834 93.4276C87.3037 90.9044 85.1217 87.8041 84.9521 84.4549C84.8843 82.95 85.2235 81.4111 85.947 79.861C79.367 66.6564 69.1466 54.9228 57.7051 46.9684C49.3727 50.2271 40.1811 46.5611 32.2444 36.5021L31.9165 36.0947L32.4366 36.1513C40.9159 37.1696 49.6327 40.881 57.7503 46.4819C59.367 45.8256 60.9499 44.9091 62.4874 43.7097L62.5553 43.6531H62.6457C75.1274 45.158 88.6039 58.1476 92.6853 72.6194L92.7305 72.7552L92.6175 72.8457C89.6666 75.154 87.5751 77.5188 86.4219 79.8497C88.5587 84.1607 90.3111 88.6301 91.5999 93.1787L91.7469 93.7218L91.7582 93.7331ZM86.2071 80.3588C85.6079 81.7393 85.3252 83.1084 85.393 84.4435C85.54 87.4986 87.4846 90.3726 91.046 92.76C89.8136 88.5396 88.1856 84.387 86.2184 80.3702L86.2071 80.3588ZM58.1912 46.776C69.5197 54.7192 79.6271 66.3283 86.2071 79.3858C87.3942 77.1115 89.4292 74.8258 92.2557 72.6081C88.1743 58.3739 74.9578 45.6332 62.7023 44.117C61.2438 45.2485 59.7288 46.1424 58.1912 46.7874V46.776ZM32.9227 36.6378C40.5655 46.1085 49.3275 49.6048 57.2868 46.6629C49.4744 41.3109 41.0968 37.7241 32.9227 36.6378Z" fill="#92DEED"/>
<path d="M85.6077 87.3058C79.6834 66.3278 60.1809 47.511 42.1255 45.3499L42.1707 44.9199C60.3844 47.0924 80.0452 66.0563 86.0147 87.1813L85.5964 87.2944L85.6077 87.3058Z" fill="#92DEED"/>
<path d="M85.834 80.2679C81.2891 64.178 66.3315 49.7402 52.4932 48.0882L52.5384 47.6582C66.535 49.3328 81.6622 63.9065 86.241 80.1435L85.8227 80.2566L85.834 80.2679Z" fill="#92DEED"/>
<path d="M64.251 53.8591C63.3804 53.8591 62.5664 53.7233 61.8202 53.4517C59.2651 52.5239 57.4675 49.9894 56.6309 46.1423L57.0492 46.0518C57.8519 49.7517 59.5591 52.1731 61.9672 53.0557C65.2007 54.2325 69.6665 52.705 74.8672 48.6542L75.1272 48.9936C70.9893 52.2184 67.2809 53.8704 64.251 53.8704V53.8591Z" fill="#92DEED"/>
<path d="M66.0039 140C64.5454 140 63.0417 139.909 61.5154 139.728L61.3232 139.706V139.513C61.832 119.61 67.7902 103.317 77.2418 95.9508L77.3097 95.8943H77.4001C82.3295 96.494 86.5804 95.1588 89.4634 92.1377C86.6483 89.8747 85.0994 87.2609 84.9637 84.4662C84.7715 80.5738 87.3379 76.4438 92.369 72.5175L92.6178 72.3252L92.7082 72.6307C94.9241 80.4607 94.0197 87.4872 90.2435 91.9114C90.1983 91.968 90.1418 92.0245 90.0966 92.0811C90.5375 92.4206 91.0236 92.7487 91.5211 93.0768L91.5889 93.1221L91.6115 93.2013C95.953 108.601 94.2006 122.405 86.784 131.084C81.8094 136.911 74.5397 140 66.0039 140ZM61.7642 139.321C71.9959 140.487 80.7693 137.477 86.4674 130.801C93.771 122.247 95.5007 108.612 91.2271 93.3937C90.7297 93.0768 90.2548 92.7374 89.8026 92.3979C86.8405 95.5209 82.4877 96.9126 77.4453 96.3355C68.152 103.634 62.3068 119.678 61.7642 139.321ZM92.3803 73.0607C87.6319 76.8286 85.2237 80.7662 85.3933 84.4435C85.5177 87.1138 87.0214 89.6258 89.7574 91.8096C89.8139 91.753 89.8704 91.6851 89.9157 91.6285C93.5448 87.3741 94.438 80.6191 92.3803 73.0494V73.0607Z" fill="#92DEED"/>
<path d="M67.01 121.896C65.9247 121.896 64.8167 121.828 63.6748 121.692L63.72 121.262C71.3402 122.167 77.8636 119.938 82.1033 114.994C87.5075 108.669 88.785 98.5758 85.5968 87.2948L86.0151 87.1816C89.2373 98.5984 87.9371 108.838 82.4312 115.277C78.7342 119.61 73.3413 121.896 67.01 121.896Z" fill="#92DEED"/>
<path d="M71.6001 106.869C70.7635 106.869 69.9042 106.813 69.0337 106.711L69.0789 106.281C74.9127 106.983 79.9099 105.274 83.1434 101.484C87.2813 96.6408 88.2536 88.9013 85.8228 80.2567L86.2412 80.1436C88.7171 88.924 87.7109 96.8105 83.4825 101.766C80.6335 105.104 76.4729 106.869 71.6001 106.869Z" fill="#92DEED"/>
<path d="M92.5049 118.682C83.3133 105.217 83.4942 92.7482 93.0137 85.3369L93.2737 85.6764C83.969 92.9293 83.8107 105.183 92.8554 118.444L92.5049 118.682Z" fill="#92DEED"/>
<path d="M47.3943 67.6742L47.3039 67.3687C45.0993 59.5388 45.9924 52.5122 49.7686 48.088C49.8138 48.0314 49.8703 47.9749 49.9155 47.9183C49.4746 47.5788 48.9885 47.2507 48.491 46.9226L48.4232 46.8773L48.4006 46.7981C44.0591 31.3985 45.8115 17.5942 53.2281 8.91562C59.0506 2.0927 68.0275 -0.97365 78.4853 0.28231L78.6775 0.30494V0.497294C78.1688 20.4003 72.2106 36.6939 62.7589 44.0599L62.6911 44.1165H62.6007C57.6713 43.5168 53.4203 44.8519 50.5374 47.873C53.3525 50.136 54.9014 52.7498 55.0371 55.5446C55.2293 59.4369 52.6629 63.5669 47.6318 67.4932L47.383 67.6855L47.3943 67.6742ZM50.2547 48.1785C50.1982 48.2351 50.153 48.303 50.0964 48.3596C46.4673 52.614 45.5741 59.369 47.6318 66.9387C52.3802 63.1709 54.7883 59.2332 54.6188 55.5559C54.4944 52.8856 52.9907 50.3736 50.2547 48.1898V48.1785ZM48.785 46.6058C49.2824 46.9226 49.7573 47.262 50.2095 47.6015C53.1716 44.4785 57.5244 43.0868 62.5668 43.6639C71.8601 36.3657 77.7052 20.3211 78.2479 0.678334C68.0162 -0.498422 59.2428 2.52267 53.5447 9.1985C46.2411 17.7526 44.5114 31.3871 48.785 46.6058Z" fill="#92DEED"/>
<path d="M52.4143 46.2668L52.1543 45.9273C61.4929 38.6518 63.6071 23.32 57.8298 4.9106L58.2368 4.78613C64.0706 23.3653 61.8999 38.8781 52.4143 46.2668Z" fill="#92DEED"/>
<path d="M92.3801 73.0602L92.2896 72.7547C88.2422 58.43 74.9352 45.5875 62.6119 44.1052L62.0918 44.0487L62.4988 43.7318C71.86 36.4337 77.7504 20.2759 78.2478 0.49738V0.259766L78.4852 0.282396C103.053 3.22428 129.599 28.8074 137.649 57.3211L137.716 57.5587L137.468 57.5927C118.768 59.8443 102.001 65.5584 92.6288 72.8679L92.3801 73.0602ZM63.1659 43.7432C75.4101 45.5083 88.4909 58.1697 92.6175 72.3247C102.058 65.0945 118.666 59.4483 137.174 57.1853C129.113 29.0111 102.951 3.77872 78.6774 0.734994C78.1348 20.2533 72.3575 36.264 63.1659 43.7432Z" fill="#92DEED"/>
<path d="M75.116 48.9821L74.856 48.6427C84.2398 41.3332 94.6411 26.9293 102.68 10.1152L103.064 10.2963C95.0029 27.1556 84.5564 41.6161 75.116 48.9708V48.9821Z" fill="#92DEED"/>
<path d="M85.8342 59.3123L85.5742 58.9728C94.9807 51.6408 109.316 40.9707 123.912 30.4365L124.161 30.7873C109.576 41.3102 95.252 51.9802 85.8342 59.3123Z" fill="#92DEED"/>
<path d="M112.041 104.12C110.582 104.12 109.079 104.029 107.553 103.848H107.462L107.406 103.769C101.9 96.799 95.7945 92.9406 89.8024 92.3862C86.829 95.543 82.431 96.9348 77.3321 96.3351L76.812 96.2785L77.219 95.9617C81.1195 92.9179 85.3479 91.6054 89.6328 91.9449C89.7233 91.8543 89.8024 91.7525 89.8928 91.6507C93.5785 87.3397 94.4378 80.4602 92.2671 72.766L92.2218 72.6302L92.3349 72.5397C101.775 65.185 118.621 59.437 137.389 57.174L137.569 57.1514L137.615 57.3324C141.956 72.7321 140.204 86.5363 132.787 95.2149C127.813 101.042 120.543 104.131 112.007 104.131L112.041 104.12ZM107.688 103.43C117.965 104.64 126.772 101.619 132.493 94.9207C139.785 86.3892 141.527 72.8 137.276 57.6153C118.723 59.8783 102.103 65.5358 92.7306 72.7773C94.89 80.5507 93.9855 87.5207 90.232 91.9222C90.2094 91.9449 90.1981 91.9675 90.1755 91.9788C96.145 92.6464 102.205 96.5161 107.688 103.43ZM77.9313 95.9617C82.5214 96.3803 86.4898 95.1131 89.2484 92.3409C85.3479 92.1033 81.5039 93.3027 77.9313 95.9617Z" fill="#92DEED"/>
<path d="M93.2732 85.676L93.0132 85.3365C102.476 77.9592 119.582 76.8843 138.79 82.4739L138.666 82.8925C119.593 77.3482 102.634 78.3892 93.2732 85.6873V85.676Z" fill="#92DEED"/>
<path d="M86.6707 95.7577L86.2637 95.622C86.4333 94.9883 86.4898 93.9813 86.422 92.6348C86.3541 91.2883 86.1619 90.3039 85.9132 88.9575C85.7549 88.0975 85.4949 87.0565 85.2688 86.3324C84.76 84.6804 84.0817 82.7455 83.5616 81.3878C83.392 80.9465 81.8092 77.2804 80.6221 75.2437C79.6498 73.5691 78.2252 71.2722 77.0834 69.5297C76.5294 68.6811 75.7267 67.6174 75.0144 66.7009C74.0986 65.5016 73.3864 64.6303 72.855 64.0306C70.9443 61.8921 69.4067 60.2514 68.2761 59.1425C67.6317 58.5089 66.7046 57.6377 65.9584 57.0153L65.2914 56.4609C64.7374 55.997 64.1382 55.4878 63.6294 55.0918C63.132 54.6958 62.4762 54.2205 61.8996 53.7906L61.3457 53.3832C61.3457 53.3832 58.5192 51.3013 54.9013 49.6267C54.0082 49.2193 51.7244 48.2236 49.712 47.986C49.3728 47.9407 49.2258 47.9407 49.0788 47.952L49.0449 47.5221C49.3276 47.4881 50.3451 47.3071 51.5887 46.334C54.483 44.0823 58.3044 43.1658 62.6345 43.675C75.1161 45.1686 88.5927 58.1581 92.6741 72.63C95.2405 81.7046 93.6238 89.5685 88.3666 93.6645C87.9256 94.0379 87.6656 94.2529 87.3377 94.6602C86.8855 95.2033 86.7159 95.5767 86.6481 95.7577H86.6707ZM50.2433 47.6239C52.1879 47.952 54.2569 48.8459 55.0935 49.2306C58.7453 50.9279 61.5831 53.0212 61.6057 53.0438L62.1597 53.4511C62.7363 53.8811 63.392 54.3563 63.9008 54.7523C64.4095 55.1484 65.0087 55.6575 65.574 56.1328L66.2298 56.6872C66.9873 57.3208 67.9256 58.2034 68.5701 58.837C69.7007 59.9459 71.2496 61.5979 73.1715 63.7364C73.7142 64.3474 74.4265 65.23 75.3536 66.4407C76.0658 67.3685 76.8685 68.4321 77.4338 69.3034C78.587 71.0572 80.0116 73.3654 80.9839 75.0401C82.1936 77.1333 83.7764 80.7767 83.946 81.252C84.4661 82.6098 85.1444 84.5559 85.6645 86.2192C85.8906 86.9547 86.1506 88.0183 86.3089 88.8669C86.5689 90.2587 86.7611 91.2544 86.829 92.6348C86.8742 93.4042 86.8742 94.0831 86.829 94.6376C86.8855 94.5584 86.942 94.4792 87.0099 94.4C87.3717 93.9587 87.6543 93.7211 88.0839 93.359C93.2168 89.3535 94.777 81.6593 92.2558 72.7544C88.2083 58.4297 74.9013 45.5872 62.578 44.105C58.3609 43.5958 54.6413 44.4897 51.8375 46.6735C51.2269 47.1374 50.673 47.4429 50.2094 47.6239H50.2433Z" fill="#92DEED"/>
<path d="M2.40824 82.8707L2.36301 82.6896C-1.98973 67.29 -0.237324 53.4857 7.1793 44.8071C13.0131 37.9842 21.9899 34.9066 32.4478 36.1625H32.5383L32.5948 36.2417C38.1007 43.223 44.2059 47.0701 50.1979 47.6246C53.1714 44.4677 57.5693 43.0646 62.6683 43.6756L63.1883 43.7322L62.7813 44.049C58.8808 47.0928 54.6637 48.4053 50.3675 48.0659C50.2771 48.1564 50.1979 48.2582 50.1075 48.36C46.4218 52.671 45.5626 59.5505 47.7333 67.2447L47.7785 67.3805L47.6654 67.471C38.2251 74.8257 21.3794 80.5737 2.61174 82.8367L2.43085 82.8594L2.40824 82.8707ZM27.9707 36.3209C19.5592 36.3209 12.4026 39.3646 7.51847 45.09C0.214909 53.6215 -1.52619 67.2108 2.7135 82.3954C21.2663 80.1325 37.8859 74.475 47.2584 67.2334C45.099 59.46 46.0035 52.49 49.757 48.0885C49.7796 48.0659 49.7909 48.0432 49.8136 48.0206C43.8441 47.353 37.7842 43.4833 32.3008 36.5699C30.8198 36.4001 29.3726 36.3096 27.9594 36.3096L27.9707 36.3209ZM50.7519 47.6698C54.6411 47.8961 58.4964 46.7081 62.0691 44.049C57.4789 43.6191 53.5106 44.8977 50.7519 47.6698Z" fill="#92DEED"/>
<path d="M19.8419 79.442C16.6197 68.0252 17.9199 57.7852 23.4258 51.347C27.756 46.2779 34.4151 44.0036 42.1822 44.9314L42.137 45.3614C34.5169 44.4449 27.9934 46.6739 23.7537 51.6299C18.3495 57.9549 17.072 68.0592 20.2602 79.3289L19.8419 79.442Z" fill="#92DEED"/>
<path d="M35.3308 74.2259C32.8549 65.4455 33.8611 57.559 38.0895 52.603C41.4247 48.6994 46.5462 46.9456 52.5383 47.6584L52.4931 48.0884C46.6593 47.3982 41.6621 49.0954 38.4286 52.8859C34.2907 57.7287 33.3184 65.4682 35.7492 74.1128L35.3308 74.2259Z" fill="#92DEED"/>
<path d="M38.6659 50.6683C30.7179 50.6683 21.4245 47.3643 11.8711 40.9035L12.1085 40.5527C27.8462 51.1888 42.8151 53.2029 52.1537 45.9273L52.4138 46.2668C48.6263 49.22 43.9457 50.6683 38.6659 50.6683Z" fill="#92DEED"/>
<path d="M91.7582 93.7331L91.2834 93.4276C87.3037 90.9044 85.1217 87.8041 84.9521 84.4549C84.8843 82.95 85.2235 81.4111 85.947 79.861C79.367 66.6564 69.1466 54.9228 57.7051 46.9684C49.3727 50.2271 40.1811 46.5611 32.2444 36.5021L31.9165 36.0947L32.4366 36.1513C40.9159 37.1696 49.6327 40.881 57.7503 46.4819C59.367 45.8256 60.9499 44.9091 62.4874 43.7097L62.5553 43.6531H62.6457C75.1274 45.158 88.6039 58.1476 92.6853 72.6194L92.7305 72.7552L92.6175 72.8457C89.6666 75.154 87.5751 77.5188 86.4219 79.8497C88.5587 84.1607 90.3111 88.6301 91.5999 93.1787L91.7469 93.7218L91.7582 93.7331ZM86.2071 80.3588C85.6079 81.7393 85.3252 83.1084 85.393 84.4435C85.54 87.4986 87.4846 90.3726 91.046 92.76C89.8136 88.5396 88.1856 84.387 86.2184 80.3702L86.2071 80.3588ZM58.1912 46.776C69.5197 54.7192 79.6271 66.3283 86.2071 79.3858C87.3942 77.1115 89.4292 74.8258 92.2557 72.6081C88.1743 58.3739 74.9578 45.6332 62.7023 44.117C61.2438 45.2485 59.7288 46.1424 58.1912 46.7874V46.776ZM32.9227 36.6378C40.5655 46.1085 49.3275 49.6048 57.2868 46.6629C49.4744 41.3109 41.0968 37.7241 32.9227 36.6378Z" fill="#92DEED"/>
<path d="M85.6077 87.3058C79.6834 66.3278 60.1809 47.511 42.1255 45.3499L42.1707 44.9199C60.3844 47.0924 80.0452 66.0563 86.0147 87.1813L85.5964 87.2944L85.6077 87.3058Z" fill="#92DEED"/>
<path d="M85.834 80.2679C81.2891 64.178 66.3315 49.7402 52.4932 48.0882L52.5384 47.6582C66.535 49.3328 81.6622 63.9065 86.241 80.1435L85.8227 80.2566L85.834 80.2679Z" fill="#92DEED"/>
<path d="M64.251 53.8591C63.3804 53.8591 62.5664 53.7233 61.8202 53.4517C59.2651 52.5239 57.4675 49.9894 56.6309 46.1423L57.0492 46.0518C57.8519 49.7517 59.5591 52.1731 61.9672 53.0557C65.2007 54.2325 69.6665 52.705 74.8672 48.6542L75.1272 48.9936C70.9893 52.2184 67.2809 53.8704 64.251 53.8704V53.8591Z" fill="#92DEED"/>
<path d="M66.0039 140C64.5454 140 63.0417 139.909 61.5154 139.728L61.3232 139.706V139.513C61.832 119.61 67.7902 103.317 77.2418 95.9508L77.3097 95.8943H77.4001C82.3295 96.494 86.5804 95.1588 89.4634 92.1377C86.6483 89.8747 85.0994 87.2609 84.9637 84.4662C84.7715 80.5738 87.3379 76.4438 92.369 72.5175L92.6178 72.3252L92.7082 72.6307C94.9241 80.4607 94.0197 87.4872 90.2435 91.9114C90.1983 91.968 90.1418 92.0245 90.0966 92.0811C90.5375 92.4206 91.0236 92.7487 91.5211 93.0768L91.5889 93.1221L91.6115 93.2013C95.953 108.601 94.2006 122.405 86.784 131.084C81.8094 136.911 74.5397 140 66.0039 140ZM61.7642 139.321C71.9959 140.487 80.7693 137.477 86.4674 130.801C93.771 122.247 95.5007 108.612 91.2271 93.3937C90.7297 93.0768 90.2548 92.7374 89.8026 92.3979C86.8405 95.5209 82.4877 96.9126 77.4453 96.3355C68.152 103.634 62.3068 119.678 61.7642 139.321ZM92.3803 73.0607C87.6319 76.8286 85.2237 80.7662 85.3933 84.4435C85.5177 87.1138 87.0214 89.6258 89.7574 91.8096C89.8139 91.753 89.8704 91.6851 89.9157 91.6285C93.5448 87.3741 94.438 80.6191 92.3803 73.0494V73.0607Z" fill="#92DEED"/>
<path d="M67.01 121.896C65.9247 121.896 64.8167 121.828 63.6748 121.692L63.72 121.262C71.3402 122.167 77.8636 119.938 82.1033 114.994C87.5075 108.669 88.785 98.5758 85.5968 87.2948L86.0151 87.1816C89.2373 98.5984 87.9371 108.838 82.4312 115.277C78.7342 119.61 73.3413 121.896 67.01 121.896Z" fill="#92DEED"/>
<path d="M71.6001 106.869C70.7635 106.869 69.9042 106.813 69.0337 106.711L69.0789 106.281C74.9127 106.983 79.9099 105.274 83.1434 101.484C87.2813 96.6408 88.2536 88.9013 85.8228 80.2567L86.2412 80.1436C88.7171 88.924 87.7109 96.8105 83.4825 101.766C80.6335 105.104 76.4729 106.869 71.6001 106.869Z" fill="#92DEED"/>
<path d="M92.5049 118.682C83.3133 105.217 83.4942 92.7482 93.0137 85.3369L93.2737 85.6764C83.969 92.9293 83.8107 105.183 92.8554 118.444L92.5049 118.682Z" fill="#92DEED"/>
<path d="M47.3943 67.6742L47.3039 67.3687C45.0993 59.5388 45.9924 52.5122 49.7686 48.088C49.8138 48.0314 49.8703 47.9749 49.9155 47.9183C49.4746 47.5788 48.9885 47.2507 48.491 46.9226L48.4232 46.8773L48.4006 46.7981C44.0591 31.3985 45.8115 17.5942 53.2281 8.91562C59.0506 2.0927 68.0275 -0.97365 78.4853 0.28231L78.6775 0.30494V0.497294C78.1688 20.4003 72.2106 36.6939 62.7589 44.0599L62.6911 44.1165H62.6007C57.6713 43.5168 53.4203 44.8519 50.5374 47.873C53.3525 50.136 54.9014 52.7498 55.0371 55.5446C55.2293 59.4369 52.6629 63.5669 47.6318 67.4932L47.383 67.6855L47.3943 67.6742ZM50.2547 48.1785C50.1982 48.2351 50.153 48.303 50.0964 48.3596C46.4673 52.614 45.5741 59.369 47.6318 66.9387C52.3802 63.1709 54.7883 59.2332 54.6188 55.5559C54.4944 52.8856 52.9907 50.3736 50.2547 48.1898V48.1785ZM48.785 46.6058C49.2824 46.9226 49.7573 47.262 50.2095 47.6015C53.1716 44.4785 57.5244 43.0868 62.5668 43.6639C71.8601 36.3657 77.7052 20.3211 78.2479 0.678334C68.0162 -0.498422 59.2428 2.52267 53.5447 9.1985C46.2411 17.7526 44.5114 31.3871 48.785 46.6058Z" fill="#92DEED"/>
<path d="M52.4143 46.2668L52.1543 45.9273C61.4929 38.6518 63.6071 23.32 57.8298 4.9106L58.2368 4.78613C64.0706 23.3653 61.8999 38.8781 52.4143 46.2668Z" fill="#92DEED"/>
<path d="M92.3801 73.0602L92.2896 72.7547C88.2422 58.43 74.9352 45.5875 62.6119 44.1052L62.0918 44.0487L62.4988 43.7318C71.86 36.4337 77.7504 20.2759 78.2478 0.49738V0.259766L78.4852 0.282396C103.053 3.22428 129.599 28.8074 137.649 57.3211L137.716 57.5587L137.468 57.5927C118.768 59.8443 102.001 65.5584 92.6288 72.8679L92.3801 73.0602ZM63.1659 43.7432C75.4101 45.5083 88.4909 58.1697 92.6175 72.3247C102.058 65.0945 118.666 59.4483 137.174 57.1853C129.113 29.0111 102.951 3.77872 78.6774 0.734994C78.1348 20.2533 72.3575 36.264 63.1659 43.7432Z" fill="#92DEED"/>
<path d="M75.116 48.9821L74.856 48.6427C84.2398 41.3332 94.6411 26.9293 102.68 10.1152L103.064 10.2963C95.0029 27.1556 84.5564 41.6161 75.116 48.9708V48.9821Z" fill="#92DEED"/>
<path d="M85.8342 59.3123L85.5742 58.9728C94.9807 51.6408 109.316 40.9707 123.912 30.4365L124.161 30.7873C109.576 41.3102 95.252 51.9802 85.8342 59.3123Z" fill="#92DEED"/>
<path d="M112.041 104.12C110.582 104.12 109.079 104.029 107.553 103.848H107.462L107.406 103.769C101.9 96.799 95.7945 92.9406 89.8024 92.3862C86.829 95.543 82.431 96.9348 77.3321 96.3351L76.812 96.2785L77.219 95.9617C81.1195 92.9179 85.3479 91.6054 89.6328 91.9449C89.7233 91.8543 89.8024 91.7525 89.8928 91.6507C93.5785 87.3397 94.4378 80.4602 92.2671 72.766L92.2218 72.6302L92.3349 72.5397C101.775 65.185 118.621 59.437 137.389 57.174L137.569 57.1514L137.615 57.3324C141.956 72.7321 140.204 86.5363 132.787 95.2149C127.813 101.042 120.543 104.131 112.007 104.131L112.041 104.12ZM107.688 103.43C117.965 104.64 126.772 101.619 132.493 94.9207C139.785 86.3892 141.527 72.8 137.276 57.6153C118.723 59.8783 102.103 65.5358 92.7306 72.7773C94.89 80.5507 93.9855 87.5207 90.232 91.9222C90.2094 91.9449 90.1981 91.9675 90.1755 91.9788C96.145 92.6464 102.205 96.5161 107.688 103.43ZM77.9313 95.9617C82.5214 96.3803 86.4898 95.1131 89.2484 92.3409C85.3479 92.1033 81.5039 93.3027 77.9313 95.9617Z" fill="#92DEED"/>
<path d="M93.2732 85.676L93.0132 85.3365C102.476 77.9592 119.582 76.8843 138.79 82.4739L138.666 82.8925C119.593 77.3482 102.634 78.3892 93.2732 85.6873V85.676Z" fill="#92DEED"/>
<path d="M82.9509 134.716L82.8605 134.433C77.0832 117.268 78.4399 102.717 86.4105 94.8644C86.5122 93.9139 86.4331 92.7598 86.3879 92.0696C86.32 91.1078 86.2748 90.8476 85.7887 88.3809C85.6417 87.6455 85.393 86.6837 85.1669 85.9595C84.6807 84.466 83.9684 82.4632 83.4031 80.9923C83.0527 80.0757 82.51 78.899 82.069 78.0391C81.9334 77.7675 81.7751 77.4733 81.6168 77.1565C81.2663 76.4776 80.9159 75.7761 80.5993 75.199C80.2714 74.5993 79.8418 73.8865 79.4348 73.1963C79.2539 72.8907 79.073 72.5852 78.9147 72.3137C78.5643 71.7253 76.6875 68.8174 75.0255 66.7015C74.0419 65.4455 71.7468 62.5036 68.2533 59.1204C65.2234 56.1786 62.9283 54.5266 61.0741 53.1914C60.9498 53.1009 57.9537 50.951 54.3019 49.3556C52.7191 48.6654 51.1024 48.1789 49.9153 48.0091C40.3506 53.7798 25.9583 51.5168 10.7858 41.7067L10.5371 41.5483L10.7745 41.3673C16.4387 36.9431 23.9345 35.1554 32.4478 36.1737C57.0154 39.1156 83.5614 64.6987 91.6112 93.2124C96.6423 111.056 93.4992 126.501 83.1883 134.546L82.9509 134.727V134.716ZM86.2861 95.5886C78.8582 103.373 77.6598 117.438 83.1657 133.992C93.1488 126.014 96.1448 110.83 91.2042 93.3029C83.1996 64.9476 56.8232 39.5003 32.4026 36.581C24.1267 35.5966 16.8345 37.2939 11.2833 41.503C25.9356 50.9058 39.8192 53.2027 49.1804 47.9299C49.1465 47.9299 49.1239 47.9299 49.09 47.9299L49.0674 47.5C49.3161 47.4773 49.7796 47.3642 50.311 47.1153C50.8537 46.8663 51.125 46.674 51.6112 46.3119L51.8712 46.6514L51.7581 46.4929L51.8825 46.6514C51.4303 47.0021 50.9667 47.3416 50.4806 47.6471C51.6451 47.8734 53.0922 48.326 54.4942 48.9483C58.1799 50.555 61.2098 52.7388 61.3455 52.8293C63.1996 54.1758 65.5173 55.8391 68.5699 58.7923C72.086 62.1981 74.3924 65.1626 75.376 66.4186C77.038 68.5571 78.9486 71.4877 79.2878 72.0761C79.4461 72.3476 79.627 72.6418 79.8079 72.9586C80.2149 73.6488 80.6445 74.3617 80.9837 74.9727C81.3003 75.5498 81.662 76.2513 82.0125 76.9415C82.1708 77.247 82.3178 77.5525 82.4648 77.8127C82.9057 78.6727 83.4484 79.8721 83.8102 80.7999C84.3867 82.2709 85.099 84.2849 85.5852 85.7898C85.8226 86.514 86.0826 87.5097 86.2183 88.2451C86.7044 90.7458 86.761 91.0173 86.8288 92.0017C86.8627 92.5901 86.9306 93.5179 86.8853 94.3892C87.2923 94.0158 87.722 93.6537 88.1516 93.3142L88.4229 93.6537C88.0724 93.9366 87.1454 94.6947 86.6931 95.7583L86.2861 95.6225C86.2861 95.6225 86.2861 95.5999 86.2861 95.5886Z" fill="#92DEED"/>
<path d="M61.7528 139.751L61.5154 139.728C36.9478 136.786 10.4018 111.203 2.35201 82.6893L2.28418 82.4517L2.53291 82.4177C21.2327 80.1661 37.9993 74.452 47.3718 67.1426L47.6205 66.9502L47.711 67.2557C51.7585 81.5804 65.0654 94.4229 77.3888 95.9052L77.9088 95.9618L77.5018 96.2786C68.1406 103.577 62.2503 119.734 61.7528 139.513V139.751ZM2.83817 82.8138C10.8992 110.988 37.0496 136.22 61.3345 139.275C61.8772 119.757 67.6545 103.746 76.8461 96.2673C64.6019 94.5021 51.521 81.8407 47.3944 67.6857C37.954 74.9159 21.3458 80.5621 2.83817 82.8251V82.8138Z" fill="#92DEED"/>
<path d="M63.675 121.704C45.4614 119.531 25.8005 100.567 19.8311 79.4422L20.2494 79.3291C26.1736 100.307 45.6762 119.124 63.7316 121.285L63.6863 121.715L63.675 121.704Z" fill="#92DEED"/>
<path d="M69.0337 106.711C55.0371 105.036 39.9099 90.4624 35.3311 74.2255L35.7494 74.1123C40.2943 90.2022 55.2519 104.64 69.0902 106.292L69.045 106.722L69.0337 106.711Z" fill="#92DEED"/>
<path d="M37.3209 129.884L36.9365 129.703C44.9976 112.832 55.4442 98.383 64.8845 91.0283L65.1446 91.3678C55.7607 98.6772 45.3594 113.081 37.3209 129.895V129.884Z" fill="#92DEED"/>
<path d="M2.40824 82.8707L2.36301 82.6896C-1.98973 67.29 -0.237324 53.4857 7.1793 44.8071C13.0131 37.9842 21.9899 34.9066 32.4478 36.1625H32.5383L32.5948 36.2417C38.1007 43.223 44.2059 47.0701 50.1979 47.6246C53.1714 44.4677 57.5693 43.0646 62.6683 43.6756L63.1883 43.7322L62.7813 44.049C58.8808 47.0928 54.6637 48.4053 50.3675 48.0659C50.2771 48.1564 50.1979 48.2582 50.1075 48.36C46.4218 52.671 45.5626 59.5505 47.7333 67.2447L47.7785 67.3805L47.6654 67.471C38.2251 74.8257 21.3794 80.5737 2.61174 82.8367L2.43085 82.8594L2.40824 82.8707ZM27.9707 36.3209C19.5592 36.3209 12.4026 39.3646 7.51847 45.09C0.214909 53.6215 -1.52619 67.2108 2.7135 82.3954C21.2663 80.1325 37.8859 74.475 47.2584 67.2334C45.099 59.46 46.0035 52.49 49.757 48.0885C49.7796 48.0659 49.7909 48.0432 49.8136 48.0206C43.8441 47.353 37.7842 43.4833 32.3008 36.5699C30.8198 36.4001 29.3726 36.3096 27.9594 36.3096L27.9707 36.3209ZM50.7519 47.6698C54.6411 47.8961 58.4964 46.7081 62.0691 44.049C57.4789 43.6191 53.5106 44.8977 50.7519 47.6698Z" fill="#92DEED"/>
<path d="M19.8419 79.442C16.6197 68.0252 17.9199 57.7852 23.4258 51.347C27.756 46.2779 34.4151 44.0036 42.1822 44.9314L42.137 45.3614C34.5169 44.4449 27.9934 46.6739 23.7537 51.6299C18.3495 57.9549 17.072 68.0592 20.2602 79.3289L19.8419 79.442Z" fill="#92DEED"/>
<path d="M35.3308 74.2259C32.8549 65.4455 33.8611 57.559 38.0895 52.603C41.4247 48.6994 46.5462 46.9456 52.5383 47.6584L52.4931 48.0884C46.6593 47.3982 41.6621 49.0954 38.4286 52.8859C34.2907 57.7287 33.3184 65.4682 35.7492 74.1128L35.3308 74.2259Z" fill="#92DEED"/>
<path d="M24.1042 61.0783C17.1398 61.0783 9.36138 59.9128 1.22119 57.5367L1.34556 57.118C20.4072 62.6624 37.3772 61.6214 46.7384 54.3232L46.9985 54.6627C41.5491 58.9058 33.5672 61.067 24.1042 61.067V61.0783Z" fill="#92DEED"/>
<path d="M108.073 103.904L107.553 103.848C99.0734 102.83 90.3566 99.1182 82.239 93.5173C80.6223 94.1736 79.0395 95.0901 77.5019 96.2895L77.434 96.346H77.3436C64.862 94.8411 51.3854 81.8516 47.304 67.3797L47.2588 67.244L47.3718 67.1534C50.3227 64.8452 52.4142 62.4804 53.5561 60.1495C51.4193 55.8385 49.6669 51.3691 48.3781 46.8205L48.2311 46.2773L48.7059 46.5828C52.6856 49.1061 54.8676 52.2064 55.0372 55.5556C55.105 57.0605 54.7659 58.5993 54.0423 60.1495C60.6223 73.354 70.8427 85.0877 82.2842 93.0421C90.6166 89.7947 99.8083 93.4494 107.745 103.508L108.073 103.916V103.904ZM82.7252 93.3249C90.5375 98.6769 98.9151 102.264 107.089 103.35C99.4465 93.8907 90.6958 90.3831 82.7252 93.3249ZM47.7676 67.3911C51.849 81.6253 65.0655 94.3659 77.321 95.8821C78.7794 94.7506 80.2944 93.8567 81.832 93.2118C70.5036 85.28 60.3962 73.6595 53.8162 60.6021C52.6291 62.8764 50.594 65.162 47.7676 67.3797V67.3911ZM48.9773 47.2391C50.2096 51.4596 51.8376 55.6122 53.8162 59.629C54.4154 58.2486 54.698 56.8795 54.6302 55.5443C54.4832 52.4893 52.5386 49.6153 48.9773 47.2278V47.2391Z" fill="#92DEED"/>
<path d="M82.9628 93.9475C82.1601 90.2475 80.4642 87.8261 78.0447 86.9435C74.8113 85.7668 70.3568 87.2943 65.1448 91.345L64.8848 91.0056C70.2098 86.853 74.8226 85.3142 78.1917 86.5362C80.7468 87.464 82.5445 89.9986 83.3811 93.8456L82.9628 93.9362V93.9475Z" fill="#92DEED"/>
<path d="M54.4378 81.0253L54.1777 80.6859C60.9838 75.3791 63.0528 73.5009 63.6746 72.8333C63.392 72.9578 62.9284 73.2067 62.137 73.6819L61.9222 73.3085C63.9234 72.1091 64.1608 72.1544 64.3191 72.3807C64.5 72.6409 64.7487 73.003 54.4604 81.0253H54.4378Z" fill="#92DEED"/>
<path d="M47.3943 67.6742L47.3039 67.3687C45.0993 59.5388 45.9924 52.5122 49.7686 48.088C49.8138 48.0314 49.8703 47.9749 49.9155 47.9183C49.4746 47.5788 48.9885 47.2507 48.491 46.9226L48.4232 46.8773L48.4006 46.7981C44.0591 31.3985 45.8115 17.5942 53.2281 8.91562C59.0506 2.0927 68.0275 -0.97365 78.4853 0.28231L78.6775 0.30494V0.497294C78.1688 20.4003 72.2106 36.6939 62.7589 44.0599L62.6911 44.1165H62.6007C57.6713 43.5168 53.4203 44.8519 50.5374 47.873C53.3525 50.136 54.9014 52.7498 55.0371 55.5446C55.2293 59.4369 52.6629 63.5669 47.6318 67.4932L47.383 67.6855L47.3943 67.6742ZM50.2547 48.1785C50.1982 48.2351 50.153 48.303 50.0964 48.3596C46.4673 52.614 45.5741 59.369 47.6318 66.9387C52.3802 63.1709 54.7883 59.2332 54.6188 55.5559C54.4944 52.8856 52.9907 50.3736 50.2547 48.1898V48.1785ZM48.785 46.6058C49.2824 46.9226 49.7573 47.262 50.2095 47.6015C53.1716 44.4785 57.5244 43.0868 62.5668 43.6639C71.8601 36.3657 77.7052 20.3211 78.2479 0.678334C68.0162 -0.498422 59.2428 2.52267 53.5447 9.1985C46.2411 17.7526 44.5114 31.3871 48.785 46.6058Z" fill="#92DEED"/>
<path d="M46.9988 54.6733L46.7388 54.3339C56.0435 47.081 56.2017 34.8269 47.1571 21.5657L47.5076 21.3281C56.6992 34.7929 56.5183 47.262 46.9988 54.6733Z" fill="#92DEED"/>
<path d="M61.7526 139.751L61.5152 139.728C36.9476 136.787 10.4015 111.203 2.35179 82.6897C-2.69061 64.846 0.463716 49.4011 10.7746 41.3561L10.899 41.2656L11.0234 41.3448C27.1002 51.7433 42.2613 53.5989 51.6 46.3234L51.86 46.6629C46.7498 50.6457 45.1896 58.3399 47.7108 67.2448C51.7582 81.5695 65.0652 94.412 77.3885 95.8942L77.9086 95.9508L77.5016 96.2676C68.1404 103.566 62.25 119.724 61.7526 139.502V139.74V139.751ZM10.9216 41.7974C0.848114 49.7405 -2.20446 64.9705 2.7701 82.5765C10.752 110.841 36.9815 136.221 61.3343 139.276C61.8769 119.757 67.6542 103.747 76.8459 96.2676C64.5112 94.4912 51.3399 81.66 47.3037 67.3805C45.0765 59.4827 46.0036 52.5127 49.7345 48.1338C40.1924 53.746 25.947 51.483 10.9216 41.8087V41.7974Z" fill="#92DEED"/>
<path d="M66.0034 140C64.5449 140 63.0412 139.909 61.515 139.728L61.3228 139.706V139.513C61.8315 119.61 67.7897 103.317 77.2413 95.9508L77.3092 95.8943H77.3996C82.329 96.494 86.58 95.1588 89.4629 92.1377C86.6478 89.8747 85.0989 87.2609 84.9632 84.4662C84.771 80.5738 87.3374 76.4438 92.3685 72.5175L92.6173 72.3252L92.7077 72.6307C94.9237 80.4607 94.0192 87.4872 90.243 91.9114C90.1978 91.968 90.1413 92.0245 90.0961 92.0811C90.537 92.4206 91.0231 92.7487 91.5206 93.0768L91.5884 93.1221L91.611 93.2013C95.9525 108.601 94.2001 122.405 86.7835 131.084C81.8089 136.911 74.5393 140 66.0034 140ZM61.7637 139.321C71.9954 140.487 80.7688 137.477 86.4669 130.801C93.7705 122.247 95.5003 108.612 91.2267 93.3937C90.7292 93.0768 90.2543 92.7374 89.8021 92.3979C86.84 95.5209 82.4872 96.9126 77.4449 96.3355C68.1515 103.634 62.3064 119.678 61.7637 139.321ZM92.3798 73.0607C87.6314 76.8286 85.2233 80.7662 85.3928 84.4435C85.5172 87.1138 87.0209 89.6258 89.7569 91.8096C89.8134 91.753 89.8699 91.6851 89.9152 91.6285C93.5443 87.3741 94.4375 80.6191 92.3798 73.0494V73.0607Z" fill="#92DEED"/>
<path d="M67.0095 121.896C65.9242 121.896 64.8162 121.828 63.6743 121.692L63.7195 121.262C71.3397 122.167 77.8631 119.938 82.1028 114.994C87.507 108.669 88.7845 98.5758 85.5963 87.2948L86.0146 87.1816C89.2368 98.5984 87.9366 108.838 82.4307 115.277C78.7337 119.61 73.3408 121.896 67.0095 121.896Z" fill="#92DEED"/>
<path d="M71.5996 106.869C70.763 106.869 69.9038 106.813 69.0332 106.711L69.0784 106.281C74.9122 106.983 79.9094 105.274 83.1429 101.484C87.2808 96.6408 88.2531 88.9013 85.8224 80.2567L86.2407 80.1436C88.7166 88.924 87.7104 96.8105 83.482 101.766C80.633 105.104 76.4724 106.869 71.5996 106.869Z" fill="#92DEED"/>
<path d="M81.7636 135.214C75.9185 116.635 78.1005 101.122 87.5861 93.7334L87.8462 94.0729C78.5075 101.348 76.3934 116.68 82.1706 135.09L81.7636 135.214Z" fill="#92DEED"/>
<path d="M112.04 104.12C110.582 104.12 109.078 104.029 107.552 103.848H107.462L107.405 103.769C101.899 96.799 95.794 92.9406 89.8019 92.3862C86.8285 95.543 82.4305 96.9348 77.3316 96.3351L76.8115 96.2785L77.2185 95.9617C81.119 92.9179 85.3474 91.6054 89.6323 91.9449C89.7228 91.8543 89.8019 91.7525 89.8924 91.6507C93.5781 87.3397 94.4373 80.4602 92.2666 72.766L92.2214 72.6302L92.3344 72.5397C101.775 65.185 118.62 59.437 137.388 57.174L137.569 57.1514L137.614 57.3324C141.956 72.7321 140.203 86.5363 132.787 95.2149C127.812 101.042 120.542 104.131 112.007 104.131L112.04 104.12ZM107.688 103.43C117.965 104.64 126.772 101.619 132.493 94.9207C139.785 86.3892 141.526 72.8 137.275 57.6153C118.722 59.8783 102.103 65.5358 92.7301 72.7773C94.8895 80.5507 93.9851 87.5207 90.2315 91.9222C90.2089 91.9449 90.1976 91.9675 90.175 91.9788C96.1445 92.6464 102.204 96.5161 107.688 103.43ZM77.9308 95.9617C82.521 96.3803 86.4893 95.1131 89.2479 92.3409C85.3474 92.1033 81.5034 93.3027 77.9308 95.9617Z" fill="#92DEED"/>
<path d="M127.891 99.447C112.153 88.8109 97.1846 86.7968 87.846 94.0724L87.5859 93.7329C97.0715 86.3329 112.233 88.3357 128.129 99.0849L127.891 99.4357V99.447Z" fill="#92DEED"/>
<path d="M66.0486 140C64.5788 140 63.0638 139.909 61.515 139.728L61.3228 139.706V139.513C61.8315 119.61 67.7897 103.317 77.2413 95.9507L77.3092 95.8941H77.3996C81.628 96.4033 85.3363 95.5207 88.1402 93.3369L88.4002 93.6764C79.0616 100.952 77.1396 116.137 83.256 134.297L83.3013 134.444L83.1769 134.535C78.5415 138.155 72.6738 140.011 66.0373 140.011L66.0486 140ZM61.7637 139.321C70.0169 140.26 77.2866 138.529 82.8038 134.274C77.1283 117.302 78.4285 102.898 86.2295 95.0228C83.7196 96.2562 80.7235 96.7088 77.4449 96.3241C68.1515 103.622 62.3064 119.667 61.7637 139.31V139.321Z" fill="#92DEED"/>
<path d="M61.7528 139.751L61.5154 139.728C36.9478 136.786 10.4018 111.203 2.35201 82.6893L2.28418 82.4517L2.53291 82.4177C21.2327 80.1661 37.9993 74.452 47.3718 67.1426L47.6205 66.9502L47.711 67.2557C51.7585 81.5804 65.0654 94.4229 77.3888 95.9052L77.9088 95.9618L77.5018 96.2786C68.1406 103.577 62.2503 119.734 61.7528 139.513V139.751ZM2.83817 82.8138C10.8992 110.988 37.0496 136.22 61.3345 139.275C61.8772 119.757 67.6545 103.746 76.8461 96.2673C64.6019 94.5021 51.521 81.8407 47.3944 67.6857C37.954 74.9159 21.3458 80.5621 2.83817 82.8251V82.8138Z" fill="#92DEED"/>
<path d="M37.3209 129.884L36.9365 129.703C44.9976 112.832 55.4442 98.383 64.8845 91.0283L65.1446 91.3678C55.7607 98.6772 45.3594 113.081 37.3209 129.895V129.884Z" fill="#92DEED"/>
<path d="M2.40824 82.8707L2.36301 82.6896C-1.98973 67.29 -0.237324 53.4857 7.1793 44.8071C13.0131 37.9842 21.9899 34.9066 32.4478 36.1625H32.5383L32.5948 36.2417C38.1007 43.223 44.2059 47.0701 50.1979 47.6246C53.1714 44.4677 57.5693 43.0646 62.6683 43.6756L63.1883 43.7322L62.7813 44.049C58.8808 47.0928 54.6637 48.4053 50.3675 48.0659C50.2771 48.1564 50.1979 48.2582 50.1075 48.36C46.4218 52.671 45.5626 59.5505 47.7333 67.2447L47.7785 67.3805L47.6654 67.471C38.2251 74.8257 21.3794 80.5737 2.61174 82.8367L2.43085 82.8594L2.40824 82.8707ZM27.9707 36.3209C19.5592 36.3209 12.4026 39.3646 7.51847 45.09C0.214909 53.6215 -1.52619 67.2108 2.7135 82.3954C21.2663 80.1325 37.8859 74.475 47.2584 67.2334C45.099 59.46 46.0035 52.49 49.757 48.0885C49.7796 48.0659 49.7909 48.0432 49.8136 48.0206C43.8441 47.353 37.7842 43.4833 32.3008 36.5699C30.8198 36.4001 29.3726 36.3096 27.9594 36.3096L27.9707 36.3209ZM50.7519 47.6698C54.6411 47.8961 58.4964 46.7081 62.0691 44.049C57.4789 43.6191 53.5106 44.8977 50.7519 47.6698Z" fill="#92DEED"/>
<path d="M24.1042 61.0783C17.1398 61.0783 9.36138 59.9128 1.22119 57.5367L1.34556 57.118C20.4072 62.6624 37.3772 61.6214 46.7384 54.3232L46.9985 54.6627C41.5491 58.9058 33.5672 61.067 24.1042 61.067V61.0783Z" fill="#92DEED"/>
<path d="M108.073 103.904L107.553 103.848C99.0734 102.83 90.3566 99.1182 82.239 93.5173C80.6223 94.1736 79.0395 95.0901 77.5019 96.2895L77.434 96.346H77.3436C64.862 94.8411 51.3854 81.8516 47.304 67.3797L47.2588 67.244L47.3718 67.1534C50.3227 64.8452 52.4142 62.4804 53.5561 60.1495C51.4193 55.8385 49.6669 51.3691 48.3781 46.8205L48.2311 46.2773L48.7059 46.5828C52.6856 49.1061 54.8676 52.2064 55.0372 55.5556C55.105 57.0605 54.7659 58.5993 54.0423 60.1495C60.6223 73.354 70.8427 85.0877 82.2842 93.0421C90.6166 89.7947 99.8083 93.4494 107.745 103.508L108.073 103.916V103.904ZM82.7252 93.3249C90.5375 98.6769 98.9151 102.264 107.089 103.35C99.4465 93.8907 90.6958 90.3831 82.7252 93.3249ZM47.7676 67.3911C51.849 81.6253 65.0655 94.3659 77.321 95.8821C78.7794 94.7506 80.2944 93.8567 81.832 93.2118C70.5036 85.28 60.3962 73.6595 53.8162 60.6021C52.6291 62.8764 50.594 65.162 47.7676 67.3797V67.3911ZM48.9773 47.2391C50.2096 51.4596 51.8376 55.6122 53.8162 59.629C54.4154 58.2486 54.698 56.8795 54.6302 55.5443C54.4832 52.4893 52.5386 49.6153 48.9773 47.2278V47.2391Z" fill="#92DEED"/>
<path d="M87.4624 92.3406C73.4658 90.666 58.3386 76.0923 53.7598 59.8553L54.1781 59.7422C58.723 75.8321 73.6806 90.2699 87.519 91.9219L87.4737 92.3519L87.4624 92.3406Z" fill="#92DEED"/>
<path d="M97.8298 95.0786C79.6161 92.9062 59.9553 73.9423 53.9858 52.8172L54.4042 52.7041C60.3284 73.682 79.831 92.4988 97.8863 94.66L97.8411 95.0899L97.8298 95.0786Z" fill="#92DEED"/>
<path d="M82.9628 93.9475C82.1601 90.2475 80.4642 87.8261 78.0447 86.9435C74.8113 85.7668 70.3568 87.2943 65.1448 91.345L64.8848 91.0056C70.2098 86.853 74.8226 85.3142 78.1917 86.5362C80.7468 87.464 82.5445 89.9986 83.3811 93.8456L82.9628 93.9362V93.9475Z" fill="#92DEED"/>
<path d="M47.3943 67.6742L47.3039 67.3687C45.0993 59.5388 45.9924 52.5122 49.7686 48.088C49.8138 48.0314 49.8703 47.9749 49.9155 47.9183C49.4746 47.5788 48.9885 47.2507 48.491 46.9226L48.4232 46.8773L48.4006 46.7981C44.0591 31.3985 45.8115 17.5942 53.2281 8.91562C59.0506 2.0927 68.0275 -0.97365 78.4853 0.28231L78.6775 0.30494V0.497294C78.1688 20.4003 72.2106 36.6939 62.7589 44.0599L62.6911 44.1165H62.6007C57.6713 43.5168 53.4203 44.8519 50.5374 47.873C53.3525 50.136 54.9014 52.7498 55.0371 55.5446C55.2293 59.4369 52.6629 63.5669 47.6318 67.4932L47.383 67.6855L47.3943 67.6742ZM50.2547 48.1785C50.1982 48.2351 50.153 48.303 50.0964 48.3596C46.4673 52.614 45.5741 59.369 47.6318 66.9387C52.3802 63.1709 54.7883 59.2332 54.6188 55.5559C54.4944 52.8856 52.9907 50.3736 50.2547 48.1898V48.1785ZM48.785 46.6058C49.2824 46.9226 49.7573 47.262 50.2095 47.6015C53.1716 44.4785 57.5244 43.0868 62.5668 43.6639C71.8601 36.3657 77.7052 20.3211 78.2479 0.678334C68.0162 -0.498422 59.2428 2.52267 53.5447 9.1985C46.2411 17.7526 44.5114 31.3871 48.785 46.6058Z" fill="#92DEED"/>
<path d="M53.7596 59.8558C51.2836 51.0754 52.2898 43.1889 56.5182 38.2329C59.8534 34.3293 64.9862 32.5754 70.967 33.2883L70.9218 33.7183C65.0993 33.0167 60.0908 34.7253 56.846 38.5158C52.7081 43.3586 51.7358 51.098 54.1779 59.7427L53.7596 59.8558Z" fill="#92DEED"/>
<path d="M53.9855 52.8177C50.7633 41.4009 52.0635 31.1609 57.5694 24.7227C61.8995 19.6536 68.5587 17.368 76.3258 18.3071L76.2805 18.7371C68.6604 17.8206 62.1369 20.0496 57.8973 25.0056C52.4931 31.3306 51.2155 41.4349 54.4038 52.7046L53.9855 52.8177Z" fill="#92DEED"/>
<path d="M46.9988 54.6733L46.7388 54.3339C56.0435 47.081 56.2017 34.8269 47.1571 21.5657L47.5076 21.3281C56.6992 34.7929 56.5183 47.262 46.9988 54.6733Z" fill="#92DEED"/>
<path d="M77.434 96.3353H77.3436C64.8619 94.8304 51.3854 81.8408 47.304 67.369C44.7376 58.2944 46.3543 50.4305 51.6115 46.3345C51.9507 46.0516 52.8778 45.3048 53.3413 44.2412L53.7483 44.3883C53.4657 45.4067 53.5787 47.0586 53.6352 47.9525C53.7031 48.9143 53.737 49.1293 54.2345 51.6525C54.3701 52.3767 54.6302 53.3384 54.8563 54.0739C55.3424 55.5675 56.0547 57.5702 56.62 59.0412C56.9705 59.9351 57.5018 61.1231 57.9541 61.9944C58.0897 62.2659 58.248 62.5601 58.4063 62.8656C58.7568 63.5445 59.1073 64.2461 59.4238 64.8231C59.7517 65.4228 60.1813 66.1357 60.5996 66.8259C60.7805 67.1314 60.9614 67.4369 61.1197 67.7084C61.131 67.7311 62.6008 70.1864 65.0089 73.3207C65.936 74.5314 66.6482 75.4139 67.1909 76.0249C68.5363 77.5298 70.3792 79.4986 71.7698 80.9017C73.3413 82.4858 76.4617 85.009 76.7783 85.2466C78.0219 86.1744 79.7517 87.3625 81.0632 88.2225C81.7189 88.6524 82.6347 89.1729 83.3469 89.535C85.0993 90.4176 85.6873 90.7118 87.0326 91.1983C87.5979 91.402 88.3215 91.6283 88.8303 91.764C89.2599 91.8772 89.8591 91.979 90.2887 92.0469L90.2322 92.4769C85.7551 91.9451 81.4702 93.235 77.5131 96.3127L77.4453 96.3692L77.434 96.3353ZM53.1491 45.384C52.6742 46.0177 52.1203 46.4703 51.8715 46.6739C46.75 50.6568 45.2011 58.3623 47.711 67.2558C51.7472 81.5466 65.0089 94.3665 77.3096 95.894C80.6222 93.3368 84.1497 92.0017 87.8467 91.9111C87.5188 91.8093 87.1796 91.6962 86.8744 91.583C85.5064 91.0851 84.9072 90.791 83.1434 89.8971C82.4199 89.535 81.4815 89.0032 80.8144 88.5619C79.4917 87.702 77.7619 86.4913 76.5069 85.5634C76.1904 85.3258 73.0247 82.78 71.4419 81.1846C70.04 79.7702 68.1971 77.8014 66.8404 76.2852C66.2865 75.6629 65.5629 74.769 64.6358 73.5583C62.2277 70.424 60.7353 67.9234 60.724 67.9008C60.5657 67.6292 60.3848 67.335 60.2039 67.0295C59.7856 66.3393 59.3673 65.6152 59.0281 65.0042C58.7116 64.4271 58.3498 63.7256 57.9993 63.0354C57.841 62.7299 57.694 62.4244 57.5471 62.1641C57.0948 61.2929 56.5521 60.0822 56.2017 59.177C55.6251 57.706 54.9128 55.692 54.4267 54.1871C54.1892 53.4516 53.9292 52.4559 53.7935 51.7317C53.2961 49.1745 53.2508 48.9596 53.183 47.9752C53.1378 47.3302 53.07 46.3119 53.1378 45.384H53.1491Z" fill="#92DEED"/>
<path d="M61.7528 139.751L61.5154 139.728C36.9478 136.786 10.4018 111.203 2.35201 82.6893L2.28418 82.4517L2.53291 82.4177C21.2327 80.1661 37.9993 74.452 47.3718 67.1426L47.6205 66.9502L47.711 67.2557C51.7585 81.5804 65.0654 94.4229 77.3888 95.9052L77.9088 95.9618L77.5018 96.2786C68.1406 103.577 62.2503 119.734 61.7528 139.513V139.751ZM2.83817 82.8138C10.8992 110.988 37.0496 136.22 61.3345 139.275C61.8772 119.757 67.6545 103.746 76.8461 96.2673C64.6019 94.5021 51.521 81.8407 47.3944 67.6857C37.954 74.9159 21.3458 80.5621 2.83817 82.8251V82.8138Z" fill="#92DEED"/>
<path d="M37.3209 129.884L36.9365 129.703C44.9976 112.832 55.4442 98.383 64.8845 91.0283L65.1446 91.3678C55.7607 98.6772 45.3594 113.081 37.3209 129.895V129.884Z" fill="#92DEED"/>
<path d="M16.0998 109.562L15.8511 109.212C30.4243 98.6999 44.7488 88.0299 54.1778 80.6865L54.4378 81.026C45.0088 88.3694 30.6843 99.0394 16.0998 109.562Z" fill="#92DEED"/>
<path d="M2.40824 82.8707L2.36301 82.6896C-1.98973 67.29 -0.237324 53.4857 7.1793 44.8071C13.0131 37.9842 21.9899 34.9066 32.4478 36.1625H32.5383L32.5948 36.2417C38.1007 43.223 44.2059 47.0701 50.1979 47.6246C53.1714 44.4677 57.5693 43.0646 62.6683 43.6756L63.1883 43.7322L62.7813 44.049C58.8808 47.0928 54.6637 48.4053 50.3675 48.0659C50.2771 48.1564 50.1979 48.2582 50.1075 48.36C46.4218 52.671 45.5626 59.5505 47.7333 67.2447L47.7785 67.3805L47.6654 67.471C38.2251 74.8257 21.3794 80.5737 2.61174 82.8367L2.43085 82.8594L2.40824 82.8707ZM27.9707 36.3209C19.5592 36.3209 12.4026 39.3646 7.51847 45.09C0.214909 53.6215 -1.52619 67.2108 2.7135 82.3954C21.2663 80.1325 37.8859 74.475 47.2584 67.2334C45.099 59.46 46.0035 52.49 49.757 48.0885C49.7796 48.0659 49.7909 48.0432 49.8136 48.0206C43.8441 47.353 37.7842 43.4833 32.3008 36.5699C30.8198 36.4001 29.3726 36.3096 27.9594 36.3096L27.9707 36.3209ZM50.7519 47.6698C54.6411 47.8961 58.4964 46.7081 62.0691 44.049C57.4789 43.6191 53.5106 44.8977 50.7519 47.6698Z" fill="#92DEED"/>
<path d="M24.1042 61.0783C17.1398 61.0783 9.36138 59.9128 1.22119 57.5367L1.34556 57.118C20.4072 62.6624 37.3772 61.6214 46.7384 54.3232L46.9985 54.6627C41.5491 58.9058 33.5672 61.067 24.1042 61.067V61.0783Z" fill="#92DEED"/>
<path d="M108.073 103.904L107.553 103.848C99.0734 102.83 90.3566 99.1182 82.239 93.5173C80.6223 94.1736 79.0395 95.0901 77.5019 96.2895L77.434 96.346H77.3436C64.862 94.8411 51.3854 81.8516 47.304 67.3797L47.2588 67.244L47.3718 67.1534C50.3227 64.8452 52.4142 62.4804 53.5561 60.1495C51.4193 55.8385 49.6669 51.3691 48.3781 46.8205L48.2311 46.2773L48.7059 46.5828C52.6856 49.1061 54.8676 52.2064 55.0372 55.5556C55.105 57.0605 54.7659 58.5993 54.0423 60.1495C60.6223 73.354 70.8427 85.0877 82.2842 93.0421C90.6166 89.7947 99.8083 93.4494 107.745 103.508L108.073 103.916V103.904ZM82.7252 93.3249C90.5375 98.6769 98.9151 102.264 107.089 103.35C99.4465 93.8907 90.6958 90.3831 82.7252 93.3249ZM47.7676 67.3911C51.849 81.6253 65.0655 94.3659 77.321 95.8821C78.7794 94.7506 80.2944 93.8567 81.832 93.2118C70.5036 85.28 60.3962 73.6595 53.8162 60.6021C52.6291 62.8764 50.594 65.162 47.7676 67.3797V67.3911ZM48.9773 47.2391C50.2096 51.4596 51.8376 55.6122 53.8162 59.629C54.4154 58.2486 54.698 56.8795 54.6302 55.5443C54.4832 52.4893 52.5386 49.6153 48.9773 47.2278V47.2391Z" fill="#92DEED"/>
<path d="M87.4624 92.3406C73.4658 90.666 58.3386 76.0923 53.7598 59.8553L54.1781 59.7422C58.723 75.8321 73.6806 90.2699 87.519 91.9219L87.4737 92.3519L87.4624 92.3406Z" fill="#92DEED"/>
<path d="M97.8298 95.0786C79.6161 92.9062 59.9553 73.9423 53.9858 52.8172L54.4042 52.7041C60.3284 73.682 79.831 92.4988 97.8863 94.66L97.8411 95.0899L97.8298 95.0786Z" fill="#92DEED"/>
<path d="M82.9628 93.9475C82.1601 90.2475 80.4642 87.8261 78.0447 86.9435C74.8113 85.7668 70.3568 87.2943 65.1448 91.345L64.8848 91.0056C70.2098 86.853 74.8226 85.3142 78.1917 86.5362C80.7468 87.464 82.5445 89.9986 83.3811 93.8456L82.9628 93.9362V93.9475Z" fill="#92DEED"/>
<path d="M47.3943 67.6742L47.3039 67.3687C45.0993 59.5388 45.9924 52.5122 49.7686 48.088C49.8138 48.0314 49.8703 47.9749 49.9155 47.9183C49.4746 47.5788 48.9885 47.2507 48.491 46.9226L48.4232 46.8773L48.4006 46.7981C44.0591 31.3985 45.8115 17.5942 53.2281 8.91562C59.0506 2.0927 68.0275 -0.97365 78.4853 0.28231L78.6775 0.30494V0.497294C78.1688 20.4003 72.2106 36.6939 62.7589 44.0599L62.6911 44.1165H62.6007C57.6713 43.5168 53.4203 44.8519 50.5374 47.873C53.3525 50.136 54.9014 52.7498 55.0371 55.5446C55.2293 59.4369 52.6629 63.5669 47.6318 67.4932L47.383 67.6855L47.3943 67.6742ZM50.2547 48.1785C50.1982 48.2351 50.153 48.303 50.0964 48.3596C46.4673 52.614 45.5741 59.369 47.6318 66.9387C52.3802 63.1709 54.7883 59.2332 54.6188 55.5559C54.4944 52.8856 52.9907 50.3736 50.2547 48.1898V48.1785ZM48.785 46.6058C49.2824 46.9226 49.7573 47.262 50.2095 47.6015C53.1716 44.4785 57.5244 43.0868 62.5668 43.6639C71.8601 36.3657 77.7052 20.3211 78.2479 0.678334C68.0162 -0.498422 59.2428 2.52267 53.5447 9.1985C46.2411 17.7526 44.5114 31.3871 48.785 46.6058Z" fill="#92DEED"/>
<path d="M53.7596 59.8558C51.2836 51.0754 52.2898 43.1889 56.5182 38.2329C59.8534 34.3293 64.9862 32.5754 70.967 33.2883L70.9218 33.7183C65.0993 33.0167 60.0908 34.7253 56.846 38.5158C52.7081 43.3586 51.7358 51.098 54.1779 59.7427L53.7596 59.8558Z" fill="#92DEED"/>
<path d="M53.9855 52.8177C50.7633 41.4009 52.0635 31.1609 57.5694 24.7227C61.8995 19.6536 68.5587 17.368 76.3258 18.3071L76.2805 18.7371C68.6604 17.8206 62.1369 20.0496 57.8973 25.0056C52.4931 31.3306 51.2155 41.4349 54.4038 52.7046L53.9855 52.8177Z" fill="#92DEED"/>
<path d="M46.9988 54.6733L46.7388 54.3339C56.0435 47.081 56.2017 34.8269 47.1571 21.5657L47.5076 21.3281C56.6992 34.7929 56.5183 47.262 46.9988 54.6733Z" fill="#92DEED"/>
<path d="M108.073 103.905L107.553 103.848C82.9852 100.906 56.4391 75.3232 48.3894 46.8095C43.347 28.9658 46.5013 13.5096 56.8122 5.47596L57.0496 5.29492L57.1401 5.5778C62.9174 22.7426 61.5607 37.2936 53.5901 45.1462C53.4092 46.9453 53.7031 50.1927 54.7206 53.6551C55.1729 55.2052 55.8965 57.2193 56.4278 58.5884C56.7105 59.3125 57.1175 60.2064 57.4793 60.9985C57.6036 61.27 57.728 61.5303 57.8411 61.7792C58.6325 63.5217 59.4352 64.8908 61.0519 67.629C61.0632 67.6517 62.5556 70.1523 64.9637 73.2865C65.8795 74.4746 66.9083 75.8211 69.373 78.4801C71.0463 80.2792 73.2509 82.3272 74.0197 82.9721C76.4165 84.9862 77.6149 85.9932 80.758 88.0186C81.4476 88.4712 82.2842 88.9577 82.8608 89.2519C84.1949 89.9384 85.3896 90.5041 86.4448 90.9492C87.1231 91.232 88.5364 91.7525 90.2548 92.0015C96.3261 92.7256 102.363 96.6972 107.722 103.475L108.05 103.882L108.073 103.905ZM56.8461 6.00776C46.8631 13.9848 43.8558 29.1695 48.8077 46.6964C56.7557 74.848 82.8156 100.137 107.078 103.362C101.877 96.9235 96.0547 93.1556 90.2209 92.4541C88.4459 92.1938 86.9988 91.662 86.2978 91.3678C85.2275 90.9228 84.0216 90.3532 82.6799 89.6593C81.9564 89.2859 81.0745 88.7427 80.5318 88.4033C77.3775 86.3666 76.1678 85.3483 73.7597 83.3229C72.9909 82.6779 70.7636 80.6073 69.079 78.7969C66.6031 76.1266 65.5629 74.7688 64.6472 73.5694C62.2051 70.3899 60.7127 67.8893 60.7014 67.8666C59.0734 65.1171 58.2594 63.7367 57.468 61.9716C57.3549 61.7339 57.2418 61.4624 57.1062 61.1908C56.7331 60.3988 56.3261 59.4936 56.0434 58.7581C55.5121 57.3777 54.7885 55.341 54.3249 53.7908C53.3753 50.5774 53.0474 47.511 53.1378 45.5988C52.7308 45.9722 52.3012 46.3343 51.8603 46.685L51.5889 46.3456C52.0186 45.9835 52.2899 45.7572 52.6291 45.3499C53.07 44.8068 53.2509 44.4334 53.3187 44.2523L53.7257 44.3881C53.7257 44.3881 53.7257 44.4107 53.7257 44.4221C61.1537 36.6374 62.3521 22.5729 56.8461 6.00776Z" fill="#92DEED"/>
<path d="M2.40824 82.8707L2.36301 82.6896C-1.98973 67.29 -0.237324 53.4857 7.1793 44.8071C13.0131 37.9842 21.9899 34.9066 32.4478 36.1625H32.5383L32.5948 36.2417C38.1007 43.223 44.2059 47.0701 50.1979 47.6246C53.1714 44.4677 57.5693 43.0646 62.6683 43.6756L63.1883 43.7322L62.7813 44.049C58.8808 47.0928 54.6637 48.4053 50.3675 48.0659C50.2771 48.1564 50.1979 48.2582 50.1075 48.36C46.4218 52.671 45.5626 59.5505 47.7333 67.2447L47.7785 67.3805L47.6654 67.471C38.2251 74.8257 21.3794 80.5737 2.61174 82.8367L2.43085 82.8594L2.40824 82.8707ZM27.9707 36.3209C19.5592 36.3209 12.4026 39.3646 7.51847 45.09C0.214909 53.6215 -1.52619 67.2108 2.7135 82.3954C21.2663 80.1325 37.8859 74.475 47.2584 67.2334C45.099 59.46 46.0035 52.49 49.757 48.0885C49.7796 48.0659 49.7909 48.0432 49.8136 48.0206C43.8441 47.353 37.7842 43.4833 32.3008 36.5699C30.8198 36.4001 29.3726 36.3096 27.9594 36.3096L27.9707 36.3209ZM50.7519 47.6698C54.6411 47.8961 58.4964 46.7081 62.0691 44.049C57.4789 43.6191 53.5106 44.8977 50.7519 47.6698Z" fill="#92DEED"/>
<path d="M38.6659 50.6683C30.7179 50.6683 21.4245 47.3643 11.8711 40.9035L12.1085 40.5527C27.8462 51.1888 42.8151 53.2029 52.1537 45.9273L52.4138 46.2668C48.6263 49.22 43.9457 50.6683 38.6659 50.6683Z" fill="#92DEED"/>
<path d="M91.7582 93.7331L91.2834 93.4276C87.3037 90.9044 85.1217 87.8041 84.9521 84.4549C84.8843 82.95 85.2235 81.4111 85.947 79.861C79.367 66.6564 69.1466 54.9228 57.7051 46.9684C49.3727 50.2271 40.1811 46.5611 32.2444 36.5021L31.9165 36.0947L32.4366 36.1513C40.9159 37.1696 49.6327 40.881 57.7503 46.4819C59.367 45.8256 60.9499 44.9091 62.4874 43.7097L62.5553 43.6531H62.6457C75.1274 45.158 88.6039 58.1476 92.6853 72.6194L92.7305 72.7552L92.6175 72.8457C89.6666 75.154 87.5751 77.5188 86.4219 79.8497C88.5587 84.1607 90.3111 88.6301 91.5999 93.1787L91.7469 93.7218L91.7582 93.7331ZM86.2071 80.3588C85.6079 81.7393 85.3252 83.1084 85.393 84.4435C85.54 87.4986 87.4846 90.3726 91.046 92.76C89.8136 88.5396 88.1856 84.387 86.2184 80.3702L86.2071 80.3588ZM58.1912 46.776C69.5197 54.7192 79.6271 66.3283 86.2071 79.3858C87.3942 77.1115 89.4292 74.8258 92.2557 72.6081C88.1743 58.3739 74.9578 45.6332 62.7023 44.117C61.2438 45.2485 59.7288 46.1424 58.1912 46.7874V46.776ZM32.9227 36.6378C40.5655 46.1085 49.3275 49.6048 57.2868 46.6629C49.4744 41.3109 41.0968 37.7241 32.9227 36.6378Z" fill="#92DEED"/>
<path d="M64.251 53.8591C63.3804 53.8591 62.5664 53.7233 61.8202 53.4517C59.2651 52.5239 57.4675 49.9894 56.6309 46.1423L57.0492 46.0518C57.8519 49.7517 59.5591 52.1731 61.9672 53.0557C65.2007 54.2325 69.6665 52.705 74.8672 48.6542L75.1272 48.9936C70.9893 52.2184 67.2809 53.8704 64.251 53.8704V53.8591Z" fill="#92DEED"/>
<path d="M75.9299 67.7427C75.8055 67.7427 75.749 67.6862 75.7037 67.6183C75.5228 67.358 75.2741 66.9959 85.5624 58.9736L85.8224 59.3131C79.0163 64.6198 76.9474 66.4981 76.3256 67.1657C76.6082 67.0299 77.0717 66.7923 77.8744 66.317L78.0893 66.6904C76.7213 67.5051 76.1786 67.7427 75.9185 67.7427H75.9299Z" fill="#92DEED"/>
<path d="M66.0039 140C64.5454 140 63.0417 139.909 61.5154 139.728L61.3232 139.706V139.513C61.832 119.61 67.7902 103.317 77.2418 95.9508L77.3097 95.8943H77.4001C82.3295 96.494 86.5804 95.1588 89.4634 92.1377C86.6483 89.8747 85.0994 87.2609 84.9637 84.4662C84.7715 80.5738 87.3379 76.4438 92.369 72.5175L92.6178 72.3252L92.7082 72.6307C94.9241 80.4607 94.0197 87.4872 90.2435 91.9114C90.1983 91.968 90.1418 92.0245 90.0966 92.0811C90.5375 92.4206 91.0236 92.7487 91.5211 93.0768L91.5889 93.1221L91.6115 93.2013C95.953 108.601 94.2006 122.405 86.784 131.084C81.8094 136.911 74.5397 140 66.0039 140ZM61.7642 139.321C71.9959 140.487 80.7693 137.477 86.4674 130.801C93.771 122.247 95.5007 108.612 91.2271 93.3937C90.7297 93.0768 90.2548 92.7374 89.8026 92.3979C86.8405 95.5209 82.4877 96.9126 77.4453 96.3355C68.152 103.634 62.3068 119.678 61.7642 139.321ZM92.3803 73.0607C87.6319 76.8286 85.2237 80.7662 85.3933 84.4435C85.5177 87.1138 87.0214 89.6258 89.7574 91.8096C89.8139 91.753 89.8704 91.6851 89.9157 91.6285C93.5448 87.3741 94.438 80.6191 92.3803 73.0494V73.0607Z" fill="#92DEED"/>
<path d="M92.5049 118.682C83.3133 105.217 83.4942 92.7482 93.0137 85.3369L93.2737 85.6764C83.969 92.9293 83.8107 105.183 92.8554 118.444L92.5049 118.682Z" fill="#92DEED"/>
<path d="M47.3943 67.6742L47.3039 67.3687C45.0993 59.5388 45.9924 52.5122 49.7686 48.088C49.8138 48.0314 49.8703 47.9749 49.9155 47.9183C49.4746 47.5788 48.9885 47.2507 48.491 46.9226L48.4232 46.8773L48.4006 46.7981C44.0591 31.3985 45.8115 17.5942 53.2281 8.91562C59.0506 2.0927 68.0275 -0.97365 78.4853 0.28231L78.6775 0.30494V0.497294C78.1688 20.4003 72.2106 36.6939 62.7589 44.0599L62.6911 44.1165H62.6007C57.6713 43.5168 53.4203 44.8519 50.5374 47.873C53.3525 50.136 54.9014 52.7498 55.0371 55.5446C55.2293 59.4369 52.6629 63.5669 47.6318 67.4932L47.383 67.6855L47.3943 67.6742ZM50.2547 48.1785C50.1982 48.2351 50.153 48.303 50.0964 48.3596C46.4673 52.614 45.5741 59.369 47.6318 66.9387C52.3802 63.1709 54.7883 59.2332 54.6188 55.5559C54.4944 52.8856 52.9907 50.3736 50.2547 48.1898V48.1785ZM48.785 46.6058C49.2824 46.9226 49.7573 47.262 50.2095 47.6015C53.1716 44.4785 57.5244 43.0868 62.5668 43.6639C71.8601 36.3657 77.7052 20.3211 78.2479 0.678334C68.0162 -0.498422 59.2428 2.52267 53.5447 9.1985C46.2411 17.7526 44.5114 31.3871 48.785 46.6058Z" fill="#92DEED"/>
<path d="M53.7596 59.8558C51.2836 51.0754 52.2898 43.1889 56.5182 38.2329C59.8534 34.3293 64.9862 32.5754 70.967 33.2883L70.9218 33.7183C65.0993 33.0167 60.0908 34.7253 56.846 38.5158C52.7081 43.3586 51.7358 51.098 54.1779 59.7427L53.7596 59.8558Z" fill="#92DEED"/>
<path d="M53.9855 52.8177C50.7633 41.4009 52.0635 31.1609 57.5694 24.7227C61.8995 19.6536 68.5587 17.368 76.3258 18.3071L76.2805 18.7371C68.6604 17.8206 62.1369 20.0496 57.8973 25.0056C52.4931 31.3306 51.2155 41.4349 54.4038 52.7046L53.9855 52.8177Z" fill="#92DEED"/>
<path d="M52.4143 46.2668L52.1543 45.9273C61.4929 38.6518 63.6071 23.32 57.8298 4.9106L58.2368 4.78613C64.0706 23.3653 61.8999 38.8781 52.4143 46.2668Z" fill="#92DEED"/>
<path d="M92.3801 73.0602L92.2896 72.7547C88.2422 58.43 74.9352 45.5875 62.6119 44.1052L62.0918 44.0487L62.4988 43.7318C71.86 36.4337 77.7504 20.2759 78.2478 0.49738V0.259766L78.4852 0.282396C103.053 3.22428 129.599 28.8074 137.649 57.3211L137.716 57.5587L137.468 57.5927C118.768 59.8443 102.001 65.5584 92.6288 72.8679L92.3801 73.0602ZM63.1659 43.7432C75.4101 45.5083 88.4909 58.1697 92.6175 72.3247C102.058 65.0945 118.666 59.4483 137.174 57.1853C129.113 29.0111 102.951 3.77872 78.6774 0.734994C78.1348 20.2533 72.3575 36.264 63.1659 43.7432Z" fill="#92DEED"/>
<path d="M104.263 65.8978C99.7178 49.8079 84.7602 35.37 70.9219 33.7181L70.9671 33.2881C84.9637 34.9627 100.091 49.5364 104.67 65.7733L104.251 65.8865L104.263 65.8978Z" fill="#92DEED"/>
<path d="M119.752 60.6817C113.827 39.7038 94.3249 20.887 76.2695 18.7259L76.3148 18.2959C94.5284 20.4684 114.189 39.4322 120.159 60.5573L119.74 60.6704L119.752 60.6817Z" fill="#92DEED"/>
<path d="M75.116 48.9821L74.856 48.6427C84.2398 41.3332 94.6411 26.9293 102.68 10.1152L103.064 10.2963C95.0029 27.1556 84.5564 41.6161 75.116 48.9708V48.9821Z" fill="#92DEED"/>
<path d="M112.041 104.12C110.582 104.12 109.079 104.029 107.553 103.848H107.462L107.406 103.769C101.9 96.799 95.7945 92.9406 89.8024 92.3862C86.829 95.543 82.431 96.9348 77.3321 96.3351L76.812 96.2785L77.219 95.9617C81.1195 92.9179 85.3479 91.6054 89.6328 91.9449C89.7233 91.8543 89.8024 91.7525 89.8928 91.6507C93.5785 87.3397 94.4378 80.4602 92.2671 72.766L92.2218 72.6302L92.3349 72.5397C101.775 65.185 118.621 59.437 137.389 57.174L137.569 57.1514L137.615 57.3324C141.956 72.7321 140.204 86.5363 132.787 95.2149C127.813 101.042 120.543 104.131 112.007 104.131L112.041 104.12ZM107.688 103.43C117.965 104.64 126.772 101.619 132.493 94.9207C139.785 86.3892 141.527 72.8 137.276 57.6153C118.723 59.8783 102.103 65.5358 92.7306 72.7773C94.89 80.5507 93.9855 87.5207 90.232 91.9222C90.2094 91.9449 90.1981 91.9675 90.1755 91.9788C96.145 92.6464 102.205 96.5161 107.688 103.43ZM77.9313 95.9617C82.5214 96.3803 86.4898 95.1131 89.2484 92.3409C85.3479 92.1033 81.5039 93.3027 77.9313 95.9617Z" fill="#92DEED"/>
<path d="M90.0283 92.4994C89.1917 92.4994 88.3325 92.4428 87.4619 92.341L87.5071 91.911C93.3409 92.6125 98.3381 90.904 101.572 87.1134C105.71 82.2706 106.682 74.5312 104.251 65.8866L104.669 65.7734C107.145 74.5538 106.139 82.4404 101.911 87.3963C99.0617 90.7342 94.9011 92.4994 90.0283 92.4994Z" fill="#92DEED"/>
<path d="M101.154 95.2827C100.068 95.2827 98.9602 95.2148 97.8184 95.079L97.8636 94.649C105.484 95.5655 112.007 93.3365 116.247 88.3805C121.651 82.0555 122.929 71.9512 119.74 60.6815L120.159 60.5684C123.381 71.9852 122.081 82.2252 116.575 88.6634C112.878 92.997 107.485 95.2827 101.154 95.2827Z" fill="#92DEED"/>
<path d="M93.2732 85.676L93.0132 85.3365C102.476 77.9592 119.582 76.8843 138.79 82.4739L138.666 82.8925C119.593 77.3482 102.634 78.3892 93.2732 85.6873V85.676Z" fill="#92DEED"/>
<path d="M129.101 98.7339L128.977 98.6547C112.9 88.2676 97.7391 86.4006 88.4005 93.6648L88.1404 93.3254C93.2507 89.3425 94.8109 81.6483 92.2897 72.7435C88.2422 58.4187 74.9352 45.5762 62.6119 44.094C58.3948 43.5848 54.6752 44.4787 51.8714 46.6625L51.6113 46.323C60.9386 39.0475 62.8719 23.8628 56.7555 5.70232L56.7103 5.55523L56.8346 5.46471C62.4875 1.06319 69.9833 -0.747206 78.4853 0.282455C103.053 3.22434 129.599 28.8075 137.649 57.3212C142.691 75.1649 139.537 90.6098 129.226 98.6547L129.101 98.7452V98.7339ZM102.216 88.856C110.164 88.856 119.469 92.0128 129.079 98.2021C139.152 90.2477 142.205 75.0178 137.23 57.423C129.226 29.0677 102.849 3.62037 78.44 0.701108C70.1076 -0.294608 62.7702 1.43658 57.2077 5.72495C62.8832 22.6974 61.5718 37.1013 53.7934 44.9765C56.3259 43.7319 59.3445 43.2906 62.6684 43.6866C75.15 45.1802 88.6266 58.1698 92.708 72.6416C94.9352 80.5395 94.0082 87.5095 90.2772 91.8884C93.7142 89.863 97.7617 88.8673 102.227 88.8673L102.216 88.856Z" fill="#92DEED"/>
<path d="M66.0034 140C64.5449 140 63.0412 139.909 61.515 139.728L61.3228 139.706V139.513C61.8315 119.61 67.7897 103.317 77.2413 95.9508L77.3092 95.8943H77.3996C82.329 96.494 86.58 95.1588 89.4629 92.1377C86.6478 89.8747 85.0989 87.2609 84.9632 84.4662C84.771 80.5738 87.3374 76.4438 92.3685 72.5175L92.6173 72.3252L92.7077 72.6307C94.9237 80.4607 94.0192 87.4872 90.243 91.9114C90.1978 91.968 90.1413 92.0245 90.0961 92.0811C90.537 92.4206 91.0231 92.7487 91.5206 93.0768L91.5884 93.1221L91.611 93.2013C95.9525 108.601 94.2001 122.405 86.7835 131.084C81.8089 136.911 74.5393 140 66.0034 140ZM61.7637 139.321C71.9954 140.487 80.7688 137.477 86.4669 130.801C93.7705 122.247 95.5003 108.612 91.2267 93.3937C90.7292 93.0768 90.2543 92.7374 89.8021 92.3979C86.84 95.5209 82.4872 96.9126 77.4449 96.3355C68.1515 103.634 62.3064 119.678 61.7637 139.321ZM92.3798 73.0607C87.6314 76.8286 85.2233 80.7662 85.3928 84.4435C85.5172 87.1138 87.0209 89.6258 89.7569 91.8096C89.8134 91.753 89.8699 91.6851 89.9152 91.6285C93.5443 87.3741 94.4375 80.6191 92.3798 73.0494V73.0607Z" fill="#92DEED"/>
<path d="M81.7636 135.214C75.9185 116.635 78.1005 101.122 87.5861 93.7334L87.8462 94.0729C78.5075 101.348 76.3934 116.68 82.1706 135.09L81.7636 135.214Z" fill="#92DEED"/>
<path d="M112.04 104.12C110.582 104.12 109.078 104.029 107.552 103.848H107.462L107.405 103.769C101.899 96.799 95.794 92.9406 89.8019 92.3862C86.8285 95.543 82.4305 96.9348 77.3316 96.3351L76.8115 96.2785L77.2185 95.9617C81.119 92.9179 85.3474 91.6054 89.6323 91.9449C89.7228 91.8543 89.8019 91.7525 89.8924 91.6507C93.5781 87.3397 94.4373 80.4602 92.2666 72.766L92.2214 72.6302L92.3344 72.5397C101.775 65.185 118.62 59.437 137.388 57.174L137.569 57.1514L137.614 57.3324C141.956 72.7321 140.203 86.5363 132.787 95.2149C127.812 101.042 120.542 104.131 112.007 104.131L112.04 104.12ZM107.688 103.43C117.965 104.64 126.772 101.619 132.493 94.9207C139.785 86.3892 141.526 72.8 137.275 57.6153C118.722 59.8783 102.103 65.5358 92.7301 72.7773C94.8895 80.5507 93.9851 87.5207 90.2315 91.9222C90.2089 91.9449 90.1976 91.9675 90.175 91.9788C96.1445 92.6464 102.204 96.5161 107.688 103.43ZM77.9308 95.9617C82.521 96.3803 86.4893 95.1131 89.2479 92.3409C85.3474 92.1033 81.5034 93.3027 77.9308 95.9617Z" fill="#92DEED"/>
<path d="M90.0278 92.4994C89.1912 92.4994 88.332 92.4428 87.4614 92.341L87.5067 91.911C93.3405 92.6125 98.3376 90.904 101.571 87.1134C105.709 82.2706 106.681 74.5312 104.251 65.8866L104.669 65.7734C107.145 74.5538 106.139 82.4404 101.91 87.3963C99.0612 90.7342 94.9007 92.4994 90.0278 92.4994Z" fill="#92DEED"/>
<path d="M127.891 99.447C112.153 88.8109 97.1846 86.7968 87.846 94.0724L87.5859 93.7329C97.0715 86.3329 112.233 88.3357 128.129 99.0849L127.891 99.4357V99.447Z" fill="#92DEED"/>
<path d="M79.6609 96.4705C78.9147 96.4705 78.1459 96.4252 77.3545 96.3347L76.8345 96.2781L77.2415 95.9613C81.289 92.8044 85.6756 91.4806 90.2771 92.035C90.6841 92.0803 90.7972 92.0803 90.8989 92.0803L90.9328 92.5102C90.4015 92.5781 89.5422 92.8384 88.4003 93.6983C86.0374 95.5426 83.0414 96.4931 79.6609 96.4931V96.4705ZM77.9424 95.9613C81.9447 96.3347 85.4608 95.4295 88.1403 93.3362C88.7395 92.8836 89.2709 92.5894 89.7231 92.3971C85.5739 92.0237 81.6168 93.2231 77.9311 95.9613H77.9424Z" fill="#92DEED"/>
<path d="M66.0034 140C64.5449 140 63.0412 139.909 61.515 139.728L61.3228 139.706V139.513C61.8315 119.61 67.7897 103.317 77.2413 95.9508L77.3092 95.8943H77.3996C82.329 96.494 86.58 95.1588 89.4629 92.1377C86.6478 89.8747 85.0989 87.2609 84.9632 84.4662C84.771 80.5738 87.3374 76.4438 92.3685 72.5175L92.6173 72.3252L92.7077 72.6307C94.9237 80.4607 94.0192 87.4872 90.243 91.9114C90.1978 91.968 90.1413 92.0245 90.0961 92.0811C90.537 92.4206 91.0231 92.7487 91.5206 93.0768L91.5884 93.1221L91.611 93.2013C95.9525 108.601 94.2001 122.405 86.7835 131.084C81.8089 136.911 74.5393 140 66.0034 140ZM61.7637 139.321C71.9954 140.487 80.7688 137.477 86.4669 130.801C93.7705 122.247 95.5003 108.612 91.2267 93.3937C90.7292 93.0768 90.2543 92.7374 89.8021 92.3979C86.84 95.5209 82.4872 96.9126 77.4449 96.3355C68.1515 103.634 62.3064 119.678 61.7637 139.321ZM92.3798 73.0607C87.6314 76.8286 85.2233 80.7662 85.3928 84.4435C85.5172 87.1138 87.0209 89.6258 89.7569 91.8096C89.8134 91.753 89.8699 91.6851 89.9152 91.6285C93.5443 87.3741 94.4375 80.6191 92.3798 73.0494V73.0607Z" fill="#92DEED"/>
<path d="M81.7636 135.214C75.9185 116.635 78.1005 101.122 87.5861 93.7334L87.8462 94.0729C78.5075 101.348 76.3934 116.68 82.1706 135.09L81.7636 135.214Z" fill="#92DEED"/>
<path d="M112.04 104.12C110.582 104.12 109.078 104.029 107.552 103.848H107.462L107.405 103.769C101.899 96.799 95.794 92.9406 89.8019 92.3862C86.8285 95.543 82.4305 96.9348 77.3316 96.3351L76.8115 96.2785L77.2185 95.9617C81.119 92.9179 85.3474 91.6054 89.6323 91.9449C89.7228 91.8543 89.8019 91.7525 89.8924 91.6507C93.5781 87.3397 94.4373 80.4602 92.2666 72.766L92.2214 72.6302L92.3344 72.5397C101.775 65.185 118.62 59.437 137.388 57.174L137.569 57.1514L137.614 57.3324C141.956 72.7321 140.203 86.5363 132.787 95.2149C127.812 101.042 120.542 104.131 112.007 104.131L112.04 104.12ZM107.688 103.43C117.965 104.64 126.772 101.619 132.493 94.9207C139.785 86.3892 141.526 72.8 137.275 57.6153C118.722 59.8783 102.103 65.5358 92.7301 72.7773C94.8895 80.5507 93.9851 87.5207 90.2315 91.9222C90.2089 91.9449 90.1976 91.9675 90.175 91.9788C96.1445 92.6464 102.204 96.5161 107.688 103.43ZM77.9308 95.9617C82.521 96.3803 86.4893 95.1131 89.2479 92.3409C85.3474 92.1033 81.5034 93.3027 77.9308 95.9617Z" fill="#92DEED"/>
<path d="M90.0278 92.4994C89.1912 92.4994 88.332 92.4428 87.4614 92.341L87.5067 91.911C93.3405 92.6125 98.3376 90.904 101.571 87.1134C105.709 82.2706 106.681 74.5312 104.251 65.8866L104.669 65.7734C107.145 74.5538 106.139 82.4404 101.91 87.3963C99.0612 90.7342 94.9007 92.4994 90.0278 92.4994Z" fill="#92DEED"/>
<path d="M101.153 95.2827C100.068 95.2827 98.9598 95.2148 97.8179 95.079L97.8631 94.649C105.483 95.5655 112.007 93.3365 116.246 88.3805C121.651 82.0555 122.928 71.9512 119.74 60.6815L120.158 60.5684C123.38 71.9852 122.08 82.2252 116.574 88.6634C112.877 92.997 107.484 95.2827 101.153 95.2827Z" fill="#92DEED"/>
<path d="M127.891 99.447C112.153 88.8109 97.1846 86.7968 87.846 94.0724L87.5859 93.7329C97.0715 86.3329 112.233 88.3357 128.129 99.0849L127.891 99.4357V99.447Z" fill="#92DEED"/>
<path d="M112.086 104.12C110.616 104.12 109.101 104.03 107.552 103.849H107.462L107.405 103.769C102.284 97.2747 96.5291 93.405 90.7519 92.5224C89.6439 92.7487 88.7394 93.4163 88.3889 93.6765L88.1289 93.3371C97.6145 85.9484 112.968 87.8041 129.203 98.293L129.452 98.4515L129.214 98.6325C124.579 102.253 118.711 104.109 112.075 104.109L112.086 104.12ZM107.688 103.43C115.919 104.403 123.188 102.695 128.717 98.4967C114.064 89.094 100.17 86.797 90.8084 92.0698C90.8423 92.0698 90.8536 92.0698 90.8762 92.0698V92.1151C96.7326 93.0203 102.521 96.9239 107.688 103.441V103.43Z" fill="#92DEED"/>
<path d="M137.242 57.446C134.279 49.8876 122.793 44.3886 105.732 42.3405L105.585 42.3179L105.551 42.1821C99.9436 22.3357 90.0397 7.19628 78.3608 0.667545L77.4111 0.135742L78.4852 0.260207C103.053 3.2021 129.599 28.7852 137.649 57.2989L137.242 57.4347V57.446ZM105.924 41.9332C121.447 43.8115 132.38 48.5638 136.552 55.1491C127.948 28.129 102.962 4.2657 79.5027 0.848585C90.8424 7.68282 100.43 22.5733 105.924 41.9445V41.9332Z" fill="#92DEED"/>
<path d="M105.879 42.3065L105.642 41.9558C123.38 29.6903 123.912 30.1543 124.161 30.3353C124.194 30.3692 124.319 30.4824 124.24 30.6974L123.844 30.539C123.844 30.539 123.844 30.5955 123.878 30.6408C123.912 30.6861 123.957 30.6974 123.968 30.6974C123.663 30.6974 121.436 31.5686 105.913 42.3065H105.879Z" fill="#92DEED"/>
<path d="M134.505 49.5025C133.906 48.0881 133.137 46.3569 132.448 44.886C127.462 34.5894 120.147 24.9264 111.543 17.2322C109.746 15.7047 107.439 13.8264 105.574 12.3668L105.834 12.0273C107.891 13.5435 109.893 15.1729 111.826 16.9041C112.086 17.1191 112.323 17.3341 112.561 17.5377C113.375 18.2393 114.347 19.201 115.206 20.0383C115.489 20.3212 115.76 20.5928 116.02 20.8417C118.033 22.7992 121.108 26.3521 122.793 28.5246C124.059 30.1539 125.721 32.4961 127.858 35.6869C128.457 36.5921 129.146 37.7689 129.746 38.8099L130.141 39.4888C130.82 40.6429 131.701 42.3062 132.335 43.6187C132.493 43.9582 132.674 44.3202 132.855 44.7049C133.601 46.2438 134.291 47.7826 134.924 49.3441L134.528 49.5138L134.505 49.5025Z" fill="#92DEED"/>
<path d="M107.745 103.871L107.552 103.848C82.9849 100.906 56.4388 75.3229 48.389 46.8092L48.3325 46.5942L48.5473 46.5376C67.7446 41.5477 88.6152 39.8618 105.777 41.9211L105.924 41.9438L105.958 42.0795C111.589 62.0165 112.256 84.4767 107.779 103.678L107.733 103.871H107.745ZM48.8639 46.911C56.9249 75.1079 83.1092 100.386 107.405 103.407C111.803 84.3522 111.136 62.1183 105.585 42.3398C88.5586 40.3257 67.9029 41.989 48.8639 46.911Z" fill="#92DEED"/>
<path d="M110.288 84.3073C92.4931 82.1801 73.2732 63.6575 67.4507 43.0077L67.869 42.8945C73.6576 63.3859 92.7079 81.7727 110.345 83.8773L110.3 84.3073H110.288Z" fill="#92DEED"/>
<path d="M109.757 63.386C100.272 62.2545 90.0173 52.3765 86.9082 41.3671L87.3265 41.2539C90.3904 52.105 100.475 61.8471 109.814 62.956L109.769 63.386H109.757Z" fill="#92DEED"/>
<path d="M83.3579 94.0265L82.9961 93.8002C93.5331 77.0654 101.752 58.226 105.551 42.0908L105.97 42.1927C102.159 58.373 93.9175 77.269 83.3579 94.0265Z" fill="#92DEED"/>
<path d="M48.4566 47.0131L48.4001 46.8094C44.0586 31.4097 45.811 17.6055 53.2277 8.9269C59.0502 2.09267 68.027 -0.973686 78.4849 0.282274L78.564 0.304904C90.3334 6.89021 100.328 22.1201 105.958 42.0797L106.048 42.3852L105.732 42.3513C88.6149 40.3033 67.8122 41.9892 48.6601 46.9565L48.4566 47.0131ZM74.0078 0.429369C65.5962 0.429369 58.4396 3.47309 53.5442 9.19846C46.2633 17.7299 44.5109 31.3079 48.7505 46.4813C67.7782 41.5592 88.4114 39.8846 105.461 41.8761C99.8529 22.1993 89.9942 7.19571 78.3944 0.689613C76.902 0.508574 75.4323 0.429369 73.9964 0.429369H74.0078Z" fill="#92DEED"/>
<path d="M67.4503 43.0073C64.296 31.8507 65.5736 21.8483 70.9551 15.5572C75.1835 10.6012 81.6957 8.3722 89.2819 9.27739L89.2366 9.70736C81.7974 8.8248 75.4209 10.9973 71.283 15.8288C66.0032 22.0067 64.7595 31.8734 67.8686 42.8828L67.4503 42.996V43.0073Z" fill="#92DEED"/>
<path d="M86.9076 41.378C85.2231 35.415 85.9127 30.063 88.7844 26.7025C91.0569 24.0435 94.5391 22.8441 98.6092 23.3306L98.5639 23.7606C94.6408 23.2853 91.283 24.4395 89.1123 26.9853C86.331 30.244 85.6753 35.4489 87.3147 41.2648L86.8963 41.378H86.9076Z" fill="#92DEED"/>
<path d="M105.642 42.3171C88.0273 30.5156 66.7723 22.9911 47.3037 21.6673L47.3376 21.2373C66.8741 22.5725 88.2082 30.1195 105.879 41.9663L105.642 42.3284V42.3171Z" fill="#92DEED"/>
<path d="M105.585 42.2603C92.1084 24.0772 74.754 10.5106 57.9648 5.05675L58.1005 4.64941C74.9688 10.1372 92.4024 23.7491 105.935 42.0114L105.596 42.2717L105.585 42.2603Z" fill="#92DEED"/>
<path d="M137.242 57.445C134.279 49.8867 122.793 44.3876 105.732 42.3396L105.585 42.3169L105.551 42.1812C99.9436 22.3347 90.0397 7.1953 78.3608 0.666569L77.4111 0.134766L78.4852 0.25923C103.053 3.20112 129.599 28.7842 137.649 57.2979L137.242 57.4337V57.445ZM105.924 41.9322C121.447 43.8105 132.38 48.5628 136.552 55.1481C127.948 28.128 102.962 4.26473 79.5027 0.847608C90.8424 7.68184 100.43 22.5723 105.924 41.9435V41.9322Z" fill="#92DEED"/>
<path d="M131.702 50.6901C125.913 30.1987 106.863 11.8119 89.2256 9.70731L89.2708 9.27734C107.066 11.4046 126.286 29.9271 132.109 50.5769L131.69 50.6901H131.702Z" fill="#92DEED"/>
<path d="M121.052 45.4621C117.988 34.6111 107.903 24.8689 98.5645 23.76L98.6097 23.3301C108.107 24.4616 118.35 34.3395 121.459 45.349L121.04 45.4621H121.052Z" fill="#92DEED"/>
<path d="M105.97 42.1815L105.551 42.0797C109.328 26.0125 108.31 14.4599 102.748 10.3752L102.996 10.0244C108.706 14.2109 109.791 25.9219 105.958 42.1702L105.97 42.1815Z" fill="#92DEED"/>
<path d="M112.04 104.12C110.582 104.12 109.078 104.029 107.552 103.848L107.315 103.814L107.371 103.577C111.826 84.4319 111.159 62.0623 105.551 42.1932L105.46 41.8877L105.777 41.9216C123.007 43.981 134.618 49.5819 137.637 57.2987V57.3213C141.99 72.721 140.237 86.5252 132.821 95.2038C127.846 101.031 120.576 104.12 112.04 104.12ZM107.835 103.452C118.055 104.618 126.806 101.585 132.493 94.9209C139.808 86.3555 141.537 72.6983 137.23 57.4458C134.279 49.9439 122.928 44.4562 106.037 42.3969C111.566 62.1754 112.21 84.398 107.823 103.452H107.835Z" fill="#92DEED"/>
<path d="M113.544 84.4998C112.481 84.4998 111.396 84.4319 110.288 84.3074L110.333 83.8775C117.784 84.7714 124.149 82.5876 128.287 77.7561C133.567 71.5781 134.81 61.7115 131.701 50.702L132.12 50.5889C135.274 61.7454 133.996 71.7478 128.615 78.039C125.008 82.2708 119.728 84.5111 113.544 84.5111V84.4998Z" fill="#92DEED"/>
<path d="M111.498 63.4988C110.933 63.4988 110.356 63.4649 109.757 63.397L109.802 62.967C113.725 63.4309 117.083 62.2881 119.254 59.7422C122.035 56.4835 122.691 51.2786 121.051 45.4628L121.47 45.3496C123.154 51.3126 122.465 56.6646 119.593 60.0251C117.66 62.2994 114.822 63.4988 111.509 63.4988H111.498Z" fill="#92DEED"/>
<path d="M138.518 82.7235C135.217 68.8287 123.233 54.0966 105.641 42.3064L105.879 41.9443C123.561 53.7911 135.613 68.6137 138.937 82.6103L138.518 82.7121V82.7235Z" fill="#92DEED"/>
<path d="M127.801 99.2773C127.168 81.2299 119.073 60.4444 105.585 42.2612L105.924 42.001C119.457 60.252 127.586 81.1281 128.219 99.2547H127.79L127.801 99.2773Z" fill="#92DEED"/>
<path d="M112.041 104.12C110.639 104.12 109.203 104.04 107.744 103.871L107.315 103.814C82.8151 100.736 56.416 75.2213 48.3888 46.8094C44.0474 31.4097 45.7998 17.6055 53.2164 8.9269C59.0502 2.09267 68.0271 -0.973686 78.4849 0.282274C87.3939 1.34588 96.8343 5.40795 105.811 12.0272C107.089 12.9777 108.536 14.0639 109.587 14.9804C109.87 15.218 110.164 15.4783 110.48 15.7498C111.294 16.4514 112.222 17.2434 112.934 17.8997C113.669 18.5786 114.573 19.4498 115.365 20.2305L116.077 20.9208C118.745 23.5119 121.662 27.1327 122.759 28.5018C124.409 30.5611 125.065 31.5568 127.835 35.6981C128.445 36.6146 129.146 37.8253 129.757 38.8889L130.209 39.6583C131.17 41.3103 132.301 43.6186 133.081 45.214C133.476 46.04 133.917 47.0583 134.336 48.0314C134.528 48.4953 134.72 48.9366 134.901 49.3326C135.986 51.9803 136.913 54.662 137.66 57.3097C142.001 72.7093 140.249 86.5136 132.832 95.1922C127.857 101.019 120.588 104.108 112.052 104.108L112.041 104.12ZM107.835 103.452C118.055 104.618 126.806 101.585 132.493 94.9206C139.808 86.3552 141.538 72.6867 137.23 57.4341C136.484 54.7977 135.568 52.1274 134.494 49.5023C134.324 49.1063 134.132 48.665 133.94 48.2011C133.522 47.228 133.092 46.221 132.696 45.395C131.928 43.8109 130.797 41.5027 129.847 39.862L129.395 39.0926C128.785 38.0403 128.095 36.8409 127.484 35.9244C124.726 31.7944 124.07 30.81 122.431 28.7733C121.334 27.4042 118.428 23.7948 115.783 21.2263L115.071 20.5361C114.279 19.7666 113.386 18.8841 112.651 18.2165C111.939 17.5715 111.023 16.7795 110.209 16.078C109.893 15.8064 109.587 15.5462 109.316 15.3085C108.264 14.392 106.761 13.2605 105.562 12.378C96.6534 5.80397 87.2696 1.76453 78.4397 0.712243C68.1175 -0.521088 59.2763 2.50001 53.5443 9.20978C46.2294 17.7752 44.4996 31.4437 48.8072 46.6962C56.7891 74.9836 83.0525 100.374 107.417 103.396C111.826 84.2959 111.147 62.0054 105.551 42.1929L105.969 42.0797C106.003 42.1816 106.026 42.2947 106.06 42.3966C106.06 42.3966 106.082 42.4758 106.094 42.521C111.588 62.2656 112.222 84.4316 107.846 103.441L107.835 103.452Z" fill="#92DEED"/>
</g>
<defs>
<clipPath id="clip0_329_2">
<rect width="140" height="140" fill="white"/>
</clipPath>
</defs>
</svg>
