<svg width="166" height="36" viewBox="0 0 166 36" fill="none" xmlns="http://www.w3.org/2000/svg">
<g opacity="0.5" clip-path="url(#clip0_8_2718)">
<path d="M68.7635 28.7171H64.4342L60.2128 12.2277L55.945 28.7171H51.5201L45.7158 7.28418H49.6425L53.8281 24.3326L58.3976 7.28418H62.3638L66.659 24.4338L70.6342 7.28418H74.4257L68.7635 28.7171Z" fill="white"/>
<path d="M79.9755 8.85208C79.9755 9.43151 79.7675 9.91435 79.3515 10.3007C78.9453 10.6869 78.45 10.8801 77.8656 10.8801C77.2811 10.8801 76.7858 10.6869 76.3797 10.3007C75.9736 9.91437 75.7705 9.43151 75.7705 8.85208C75.7705 8.2625 75.9736 7.7695 76.3797 7.373C76.7958 6.97655 77.2911 6.77832 77.8656 6.77832C78.4699 6.77832 78.9701 6.98166 79.3664 7.38824C79.7725 7.79488 79.9755 8.28284 79.9755 8.85208ZM76.0592 28.7164V13.2706H79.5682V28.7164H76.0592Z" fill="white"/>
<path d="M93.0732 28.717V20.1171C93.0732 17.8638 92.3921 15.92 90.1801 15.92C87.9796 15.92 86.5843 17.9534 86.5843 20.0103V28.7166H83.1519V13.2707H86.5843V15.4555H86.6437C87.7829 13.6457 89.4273 13.0103 91.5768 13.0103C93.1915 13.0103 94.4396 13.4181 95.3212 14.4753C96.2127 15.5325 96.6041 17.1386 96.6041 19.2937V28.7163L93.0732 28.717Z" fill="white"/>
<path d="M110.309 28.7168V26.7285H110.25C109.16 28.6091 106.936 29.0427 105.385 29.0427C100.776 29.0427 99.085 25.3687 99.085 21.4589C99.085 18.8668 99.714 16.793 100.972 15.2377C102.24 13.6723 103.934 12.9947 106.054 12.9947C109.354 12.9947 110.25 14.8788 110.25 14.8788H110.309V5.93994H113.87V28.717L110.309 28.7168ZM110.339 19.9153C110.339 18.0495 109.17 15.9296 106.704 15.9296C103.883 15.9296 102.787 18.4488 102.787 21.3524C102.787 23.8874 103.821 26.1882 106.508 26.2264C109.142 26.2264 110.317 23.6499 110.339 21.5202V19.9153Z" fill="white"/>
<path d="M131.831 20.9259C131.831 26.2761 128.715 29.1743 124.036 29.1743C118.948 29.1743 116.339 26.0484 116.339 21.2612C116.339 15.7847 119.465 12.936 124.407 12.936C128.936 12.936 131.831 15.9069 131.831 20.9259ZM128.176 21.0479C128.176 18.6676 127.354 16.0217 124.214 16.0217C121.203 16.0217 120.033 18.3212 120.033 21.1394C120.033 24.2009 121.438 26.1482 124.193 26.1482C127.144 26.1482 128.154 23.8241 128.176 21.0479Z" fill="white"/>
<path d="M150.665 28.717H146.792L143.832 17.5382L140.657 28.717H136.898L132.519 13.3184H136.194L139.053 25.2814L142.395 13.3184H145.842L148.822 25.2504L151.61 13.3184H154.978L150.665 28.717Z" fill="white"/>
<path d="M166 24.4175C166 27.8564 162.961 29.1967 159.915 29.1967C157.931 29.1967 155.956 28.4125 155.956 28.4125V24.7547C155.956 24.7547 157.673 26.2903 160.072 26.3095C161.716 26.3095 162.457 25.7773 162.457 24.7642C162.497 23.9514 162.015 23.5032 161.439 23.1672C161.042 22.9232 160.423 22.6233 159.581 22.2675C158.591 21.8304 157.853 21.4086 157.367 21.002C156.892 20.5953 156.535 20.1176 156.297 19.5687C156.07 19.0197 155.901 18.4165 155.901 17.6846C155.901 14.9078 158.158 12.9458 161.766 12.9458C164.15 12.9458 165.183 13.5458 165.183 13.5458V17.0206C165.183 17.0206 163.489 15.8189 161.728 15.808C160.467 15.808 159.513 16.2793 159.496 17.3459C159.487 18.7207 161.128 19.3908 162.107 19.7975C163.534 20.3871 164.577 21.0165 165.162 21.7382C165.746 22.46 166 23.1866 166 24.4175Z" fill="white"/>
<path d="M16.6277 0H0V17.0632H16.6277V0Z" fill="white"/>
<path d="M35.0799 0H18.4521V17.0632H35.0799V0Z" fill="white"/>
<path d="M16.6277 18.937H0V36.0002H16.6277V18.937Z" fill="white"/>
<path d="M35.0799 18.937H18.4521V36.0002H35.0799V18.937Z" fill="white"/>
</g>
<defs>
<clipPath id="clip0_8_2718">
<rect width="166" height="36" fill="white"/>
</clipPath>
</defs>
</svg>
