<svg width="1920" height="1945" viewBox="0 0 1920 1945" fill="none" xmlns="http://www.w3.org/2000/svg">
<g opacity="0.25" clip-path="url(#clip0_8_1448)">
<path d="M-783.254 787.326C-778.162 925.818 -660.218 1040.85 -528.601 1074.88C-396.984 1108.92 -256.915 1076.34 -131.643 1022.89C-6.37197 969.439 109.762 895.645 234.874 841.846C359.986 788.047 499.748 754.628 631.644 787.518C791.603 827.421 913.297 956.261 1055.4 1041.22C1279.37 1175.16 1564.92 1195.9 1805.19 1095.65C1929.05 1043.99 2052.93 937.973 2046.9 801.495" stroke="white" stroke-width="0.85" stroke-linecap="round" stroke-linejoin="round"/>
<path d="M-797.319 756.77C-792.228 895.263 -674.284 1010.29 -542.667 1044.33C-411.049 1078.36 -270.98 1045.78 -145.709 992.333C-20.4374 938.883 95.6964 865.089 220.809 811.29C345.921 757.492 485.683 724.072 617.579 756.963C777.538 796.865 899.231 925.705 1041.33 1010.66C1265.3 1144.61 1550.85 1165.34 1791.12 1065.1C1914.98 1013.44 2038.86 907.418 2032.83 770.939" stroke="white" stroke-width="0.85" stroke-linecap="round" stroke-linejoin="round"/>
<path d="M-811.39 726.18C-806.299 864.673 -688.354 979.703 -556.737 1013.74C-425.12 1047.77 -285.051 1015.19 -159.779 961.743C-34.508 908.293 81.6258 834.5 206.738 780.701C331.85 726.902 471.612 693.482 603.508 726.373C763.467 766.276 885.16 895.116 1027.26 980.071C1251.23 1114.02 1536.78 1134.75 1777.05 1034.51C1900.91 982.846 2024.79 876.828 2018.76 740.349" stroke="white" stroke-width="0.85" stroke-linecap="round" stroke-linejoin="round"/>
<path d="M-825.428 695.585C-820.337 834.077 -702.393 949.107 -570.776 983.143C-439.159 1017.18 -299.089 984.597 -173.818 931.147C-48.5468 877.698 67.587 803.904 192.699 750.105C317.811 696.306 457.573 662.887 589.469 695.777C749.429 735.68 871.122 864.52 1013.22 949.475C1237.19 1083.42 1522.74 1104.16 1763.01 1003.91C1886.87 952.251 2010.75 846.232 2004.72 709.754" stroke="white" stroke-width="0.85" stroke-linecap="round" stroke-linejoin="round"/>
<path d="M-839.499 664.995C-834.408 803.487 -716.464 918.517 -584.847 952.553C-453.229 986.589 -313.16 954.007 -187.889 900.557C-62.6176 847.108 53.5162 773.314 178.628 719.515C303.741 665.716 443.502 632.297 575.399 665.187C735.358 705.09 857.051 833.93 999.15 918.885C1223.12 1052.83 1508.67 1073.57 1748.94 973.322C1872.8 921.661 1996.68 815.642 1990.65 679.164" stroke="white" stroke-width="0.85" stroke-linecap="round" stroke-linejoin="round"/>
<path d="M-853.565 634.438C-848.473 772.931 -730.529 887.96 -598.912 921.996C-467.295 956.032 -327.225 923.45 -201.954 870.001C-76.6828 816.551 39.451 742.757 164.563 688.958C289.675 635.16 429.437 601.74 561.333 634.631C721.292 674.533 842.986 803.373 985.084 888.329C1209.06 1022.28 1494.61 1043.01 1734.88 942.766C1858.73 891.104 1982.62 785.086 1976.58 648.607" stroke="white" stroke-width="0.85" stroke-linecap="round" stroke-linejoin="round"/>
<path d="M-867.636 603.848C-862.545 742.341 -744.601 857.371 -612.983 891.406C-481.366 925.442 -341.297 892.86 -216.026 839.411C-90.7543 785.961 25.3797 712.167 150.492 658.369C275.604 604.57 415.366 571.15 547.262 604.041C707.221 643.944 828.914 772.784 971.013 857.739C1194.99 991.686 1480.53 1012.42 1720.81 912.176C1844.66 860.514 1968.54 754.496 1962.51 618.017" stroke="white" stroke-width="0.85" stroke-linecap="round" stroke-linejoin="round"/>
<path d="M-881.674 573.253C-876.583 711.745 -758.639 826.775 -627.022 860.811C-495.404 894.847 -355.335 862.265 -230.064 808.815C-104.792 755.365 11.3414 681.572 136.454 627.773C261.566 573.974 401.328 540.555 533.224 573.445C693.183 613.348 814.876 742.188 956.975 827.143C1180.95 961.09 1466.5 981.827 1706.77 881.58C1830.62 829.918 1954.51 723.9 1948.48 587.422" stroke="white" stroke-width="0.85" stroke-linecap="round" stroke-linejoin="round"/>
<path d="M-895.745 542.663C-890.654 681.155 -772.709 796.185 -641.092 830.221C-509.475 864.257 -369.406 831.675 -244.134 778.225C-118.863 724.776 -2.72921 650.982 122.383 597.183C247.495 543.384 387.257 509.965 519.153 542.855C679.112 582.758 800.805 711.598 942.904 796.553C1166.88 930.5 1452.42 951.237 1692.7 850.99C1816.55 799.329 1940.44 693.31 1934.4 556.832" stroke="white" stroke-width="0.85" stroke-linecap="round" stroke-linejoin="round"/>
<path d="M-909.816 512.073C-904.725 650.565 -786.781 765.595 -655.164 799.631C-523.546 833.667 -383.477 801.085 -258.206 747.635C-132.934 694.186 -16.8005 620.392 108.312 566.593C233.424 512.794 373.186 479.375 505.082 512.266C665.041 552.168 786.734 681.008 928.833 765.963C1152.81 899.91 1438.35 920.647 1678.63 820.4C1802.48 768.739 1926.36 662.72 1920.33 526.242" stroke="white" stroke-width="0.85" stroke-linecap="round" stroke-linejoin="round"/>
</g>
<defs>
<clipPath id="clip0_8_1448">
<rect width="2979.67" height="1453.39" fill="white" transform="matrix(-0.985215 0.171322 0.164665 0.98635 2022.1 0.794922)"/>
</clipPath>
</defs>
</svg>
