<svg width="64" height="64" viewBox="0 0 64 64" fill="none" xmlns="http://www.w3.org/2000/svg">
<g clip-path="url(#clip0_8_4590)">
<path d="M26.5328 48.7804L18.9914 56.3218C15.8649 59.4483 10.8017 59.4483 7.67783 56.3224C4.55332 53.1979 4.55332 48.1342 7.67721 45.0104L22.7627 29.9249C25.8866 26.8009 30.9502 26.8009 34.0741 29.9249C35.1155 30.9663 36.804 30.9663 37.8454 29.9249C38.8868 28.8835 38.8868 27.195 37.8454 26.1536C32.6386 20.9468 24.1982 20.9468 18.9914 26.1536L3.90606 41.239C-1.30072 46.4457 -1.30072 54.8862 3.90606 60.0929C9.11222 65.3025 17.5533 65.3025 22.7628 60.0929L30.3042 52.5515C31.3456 51.5101 31.3456 49.8216 30.3042 48.7803C29.2628 47.7389 27.5742 47.739 26.5328 48.7804Z" fill="#11112B"/>
<path d="M60.0943 3.90509C54.8875 -1.3017 46.4444 -1.3017 41.2376 3.90509L32.1895 12.9531C31.1481 13.9945 31.1481 15.683 32.1895 16.7244C33.2309 17.7658 34.9194 17.7658 35.9608 16.7244L45.0088 7.67636C48.1327 4.55234 53.199 4.55234 56.323 7.67636C59.4469 10.8003 59.4469 15.8639 56.323 18.9878L39.7309 35.58C36.6069 38.704 31.5434 38.704 28.4195 35.58C27.3781 34.5386 25.6896 34.5386 24.6482 35.58C23.6068 36.6214 23.6068 38.3099 24.6482 39.3513C29.855 44.5581 38.2954 44.5581 43.5022 39.3513L60.0943 22.7592C65.3011 17.5524 65.3011 9.11187 60.0943 3.90509Z" fill="#11112B"/>
</g>
<defs>
<clipPath id="clip0_8_4590">
<rect width="64" height="64" fill="white"/>
</clipPath>
</defs>
</svg>
