<svg width="1920" height="1259" viewBox="0 0 1920 1259" fill="none" xmlns="http://www.w3.org/2000/svg">
<g opacity="0.25" clip-path="url(#clip0_8_5547)">
<path d="M-961.705 1894.83C-927.469 2055.62 -763.444 2165.59 -599.588 2178.07C-435.731 2190.55 -275.345 2123.43 -136.847 2034.99C1.65091 1946.55 125.116 1836.23 263.353 1747.42C401.591 1658.6 561.44 1590.57 725.396 1601.65C924.239 1615.12 1095.54 1740.45 1282.25 1810.26C1576.55 1920.36 1921.24 1885.38 2187.34 1718.4C2324.52 1632.34 2450.67 1482.76 2415.72 1324.52" stroke="#11112B" stroke-width="0.85" stroke-linecap="round" stroke-linejoin="round"/>
<path d="M-984.705 1862C-950.469 2022.79 -786.444 2132.76 -622.588 2145.24C-458.731 2157.72 -298.345 2090.6 -159.847 2002.16C-21.3491 1913.72 102.116 1803.4 240.353 1714.59C378.591 1625.77 538.44 1557.74 702.396 1568.82C901.239 1582.29 1072.54 1707.62 1259.25 1777.43C1553.55 1887.52 1898.24 1852.55 2164.34 1685.57C2301.52 1599.51 2427.67 1449.93 2392.72 1291.69" stroke="#11112B" stroke-width="0.85" stroke-linecap="round" stroke-linejoin="round"/>
<path d="M-1007.7 1829.17C-973.467 1989.96 -809.442 2099.93 -645.585 2112.41C-481.729 2124.89 -321.343 2057.77 -182.845 1969.33C-44.3471 1880.89 79.1184 1770.57 217.356 1681.76C355.593 1592.94 515.442 1524.91 679.398 1535.99C878.241 1549.46 1049.55 1674.79 1236.26 1744.6C1530.55 1854.69 1875.24 1819.72 2141.35 1652.74C2278.52 1566.68 2404.67 1417.1 2369.72 1258.86" stroke="#11112B" stroke-width="0.85" stroke-linecap="round" stroke-linejoin="round"/>
<path d="M-1030.66 1796.32C-996.428 1957.11 -832.403 2067.08 -668.547 2079.57C-504.69 2092.05 -344.304 2024.93 -205.806 1936.49C-67.308 1848.05 56.1573 1737.73 194.394 1648.91C332.632 1560.1 492.481 1492.06 656.437 1503.15C855.28 1516.61 1026.58 1641.94 1213.29 1711.76C1507.59 1821.85 1852.28 1786.87 2118.38 1619.9C2255.56 1533.84 2381.71 1384.25 2346.76 1226.01" stroke="#11112B" stroke-width="0.85" stroke-linecap="round" stroke-linejoin="round"/>
<path d="M-1053.65 1763.53C-1019.41 1924.32 -855.39 2034.29 -691.533 2046.77C-527.677 2059.26 -367.29 1992.14 -228.792 1903.7C-90.2944 1815.26 33.1709 1704.94 171.408 1616.12C309.645 1527.31 469.494 1459.27 633.45 1470.36C832.294 1483.82 1003.6 1609.15 1190.31 1678.97C1484.6 1789.06 1829.3 1754.08 2095.4 1587.1C2232.57 1501.05 2358.72 1351.46 2323.78 1193.22" stroke="#11112B" stroke-width="0.85" stroke-linecap="round" stroke-linejoin="round"/>
<path d="M-1076.65 1730.7C-1042.41 1891.49 -878.387 2001.46 -714.531 2013.94C-550.674 2026.43 -390.288 1959.3 -251.79 1870.87C-113.292 1782.43 10.1731 1672.11 148.41 1583.29C286.647 1494.48 446.496 1426.44 610.453 1437.53C809.296 1450.99 980.6 1576.32 1167.31 1646.14C1461.61 1756.23 1806.3 1721.25 2072.4 1554.27C2209.58 1468.22 2335.73 1318.63 2300.78 1160.39" stroke="#11112B" stroke-width="0.85" stroke-linecap="round" stroke-linejoin="round"/>
<path d="M-1099.65 1697.87C-1065.41 1858.66 -901.386 1968.63 -737.529 1981.11C-573.672 1993.6 -413.286 1926.47 -274.788 1838.03C-136.29 1749.59 -12.8252 1639.28 125.412 1550.46C263.649 1461.65 423.498 1393.61 587.455 1404.7C786.298 1418.16 957.602 1543.49 1144.31 1613.31C1438.61 1723.4 1783.3 1688.42 2049.4 1521.44C2186.58 1435.39 2312.73 1285.8 2277.78 1127.56" stroke="#11112B" stroke-width="0.85" stroke-linecap="round" stroke-linejoin="round"/>
<path d="M-1122.61 1665.02C-1088.37 1825.82 -924.347 1935.79 -760.49 1948.27C-596.634 1960.75 -436.247 1893.63 -297.749 1805.19C-159.251 1716.75 -35.7862 1606.43 102.451 1517.62C240.688 1428.8 400.537 1360.76 564.493 1371.85C763.337 1385.31 934.641 1510.65 1121.35 1580.46C1415.65 1690.55 1760.34 1655.57 2026.44 1488.6C2163.62 1402.54 2289.77 1252.96 2254.82 1094.71" stroke="#11112B" stroke-width="0.85" stroke-linecap="round" stroke-linejoin="round"/>
<path d="M-1145.61 1632.19C-1111.37 1792.99 -947.346 1902.96 -783.49 1915.44C-619.633 1927.92 -459.247 1860.8 -320.749 1772.36C-182.251 1683.92 -58.7859 1573.6 79.4513 1484.79C217.688 1395.97 377.537 1327.93 541.494 1339.02C740.337 1352.48 911.641 1477.82 1098.35 1547.63C1392.65 1657.72 1737.34 1622.74 2003.44 1455.77C2140.62 1369.71 2266.77 1220.13 2231.82 1061.88" stroke="#11112B" stroke-width="0.85" stroke-linecap="round" stroke-linejoin="round"/>
<path d="M-1168.59 1599.4C-1134.36 1760.19 -970.331 1870.16 -806.474 1882.65C-642.618 1895.13 -482.231 1828.01 -343.734 1739.57C-205.236 1651.13 -81.7705 1540.81 56.4667 1451.99C194.704 1363.18 354.553 1295.14 518.509 1306.23C717.353 1319.69 888.656 1445.02 1075.37 1514.84C1369.66 1624.93 1714.35 1589.95 1980.46 1422.98C2117.63 1336.92 2243.78 1187.33 2208.84 1029.09" stroke="#11112B" stroke-width="0.85" stroke-linecap="round" stroke-linejoin="round"/>
<path d="M-1191.59 1566.57C-1157.35 1727.36 -993.329 1837.33 -829.473 1849.82C-665.616 1862.3 -505.23 1795.18 -366.732 1706.74C-228.234 1618.3 -104.769 1507.98 33.4684 1419.16C171.706 1330.35 331.555 1262.31 495.511 1273.4C694.354 1286.86 865.658 1412.19 1052.37 1482.01C1346.66 1592.1 1691.36 1557.12 1957.46 1390.14C2094.63 1304.09 2220.78 1154.5 2185.84 996.259" stroke="#11112B" stroke-width="0.85" stroke-linecap="round" stroke-linejoin="round"/>
<path d="M-1214.55 1533.73C-1180.31 1694.52 -1016.29 1804.49 -852.433 1816.97C-688.577 1829.45 -528.19 1762.33 -389.693 1673.89C-251.195 1585.45 -127.729 1475.13 10.5079 1386.32C148.745 1297.5 308.594 1229.47 472.55 1240.55C671.394 1254.02 842.698 1379.35 1029.41 1449.16C1323.7 1559.25 1668.4 1524.28 1934.5 1357.3C2071.67 1271.24 2197.82 1121.66 2162.88 963.416" stroke="#11112B" stroke-width="0.85" stroke-linecap="round" stroke-linejoin="round"/>
<path d="M-1237.55 1500.9C-1203.31 1661.69 -1039.29 1771.66 -875.433 1784.14C-711.577 1796.62 -551.19 1729.5 -412.693 1641.06C-274.195 1552.62 -150.729 1442.3 -12.4923 1353.49C125.745 1264.67 285.594 1196.64 449.55 1207.72C648.394 1221.18 819.697 1346.52 1006.41 1416.33C1300.7 1526.42 1645.4 1491.45 1911.5 1324.47C2048.67 1238.41 2174.82 1088.83 2139.88 930.585" stroke="#11112B" stroke-width="0.85" stroke-linecap="round" stroke-linejoin="round"/>
<path d="M-1260.54 1468.1C-1226.3 1628.89 -1062.27 1738.87 -898.418 1751.35C-734.561 1763.83 -574.175 1696.71 -435.677 1608.27C-297.179 1519.83 -173.714 1409.51 -35.4767 1320.7C102.761 1231.88 262.61 1163.84 426.566 1174.93C625.409 1188.39 796.713 1313.72 983.423 1383.54C1277.72 1493.63 1622.41 1458.65 1888.51 1291.68C2025.69 1205.62 2151.84 1056.04 2116.89 897.793" stroke="#11112B" stroke-width="0.85" stroke-linecap="round" stroke-linejoin="round"/>
<path d="M-1283.53 1435.27C-1249.3 1596.06 -1085.27 1706.03 -921.416 1718.52C-757.559 1731 -597.173 1663.88 -458.675 1575.44C-320.177 1487 -196.712 1376.68 -58.4745 1287.86C79.7627 1199.05 239.612 1131.01 403.568 1142.1C602.411 1155.56 773.715 1280.89 960.425 1350.71C1254.72 1460.8 1599.41 1425.82 1865.52 1258.85C2002.69 1172.79 2128.84 1023.2 2093.89 864.962" stroke="#11112B" stroke-width="0.85" stroke-linecap="round" stroke-linejoin="round"/>
<path d="M-1306.49 1402.43C-1272.26 1563.22 -1108.23 1673.19 -944.377 1685.67C-780.52 1698.16 -620.134 1631.03 -481.636 1542.6C-343.138 1454.16 -219.673 1343.84 -81.4357 1255.02C56.8015 1166.21 216.651 1098.17 380.607 1109.26C579.45 1122.72 750.754 1248.05 937.464 1317.87C1231.76 1427.96 1576.45 1392.98 1842.55 1226C1979.73 1139.95 2105.88 990.36 2070.93 832.118" stroke="#11112B" stroke-width="0.85" stroke-linecap="round" stroke-linejoin="round"/>
<path d="M-1329.49 1369.6C-1295.26 1530.39 -1131.23 1640.36 -967.377 1652.84C-803.52 1665.33 -643.134 1598.2 -504.636 1509.77C-366.138 1421.33 -242.673 1311.01 -104.436 1222.19C33.8015 1133.38 193.651 1065.34 357.607 1076.43C556.45 1089.89 727.754 1215.22 914.464 1285.04C1208.76 1395.13 1553.45 1360.15 1819.55 1193.17C1956.73 1107.12 2082.88 957.53 2047.93 799.288" stroke="#11112B" stroke-width="0.85" stroke-linecap="round" stroke-linejoin="round"/>
<path d="M-1352.48 1336.81C-1318.24 1497.6 -1154.22 1607.57 -990.361 1620.05C-826.504 1632.53 -666.118 1565.41 -527.62 1476.97C-389.122 1388.53 -265.657 1278.21 -127.42 1189.4C10.8174 1100.58 170.666 1032.55 334.623 1043.63C533.466 1057.09 704.77 1182.43 891.479 1252.24C1185.77 1362.33 1530.47 1327.36 1796.57 1160.38C1933.75 1074.32 2059.9 924.737 2024.95 766.495" stroke="#11112B" stroke-width="0.85" stroke-linecap="round" stroke-linejoin="round"/>
<path d="M-1375.48 1303.98C-1341.24 1464.77 -1177.22 1574.74 -1013.36 1587.22C-849.505 1599.7 -689.118 1532.58 -550.62 1444.14C-412.123 1355.7 -288.657 1245.38 -150.42 1156.57C-12.1826 1067.75 147.666 999.716 311.623 1010.8C510.466 1024.26 681.77 1149.6 868.48 1219.41C1162.77 1329.5 1507.47 1294.52 1773.57 1127.55C1910.75 1041.49 2036.9 891.907 2001.95 733.664" stroke="#11112B" stroke-width="0.85" stroke-linecap="round" stroke-linejoin="round"/>
<path d="M-1398.44 1271.13C-1364.2 1431.92 -1200.18 1541.89 -1036.32 1554.38C-872.465 1566.86 -712.079 1499.74 -573.581 1411.3C-435.083 1322.86 -311.618 1212.54 -173.381 1123.72C-35.1438 1034.91 124.705 966.872 288.662 977.959C487.505 991.42 658.809 1116.75 845.519 1186.57C1139.81 1296.66 1484.51 1261.68 1750.61 1094.71C1887.78 1008.65 2013.93 859.063 1978.99 700.82" stroke="#11112B" stroke-width="0.85" stroke-linecap="round" stroke-linejoin="round"/>
<path d="M-1421.44 1238.3C-1387.2 1399.09 -1223.18 1509.06 -1059.32 1521.55C-895.463 1534.03 -735.077 1466.91 -596.579 1378.47C-458.081 1290.03 -334.616 1179.71 -196.379 1090.89C-58.1416 1002.08 101.707 934.041 265.664 945.128C464.507 958.59 635.811 1083.92 822.52 1153.74C1116.82 1263.83 1461.51 1228.85 1727.61 1061.87C1864.79 975.818 1990.94 826.232 1955.99 667.99" stroke="#11112B" stroke-width="0.85" stroke-linecap="round" stroke-linejoin="round"/>
<path d="M-1444.44 1205.47C-1410.2 1366.26 -1246.17 1476.23 -1082.32 1488.72C-918.462 1501.2 -758.075 1434.08 -619.577 1345.64C-481.08 1257.2 -357.614 1146.88 -219.377 1058.06C-81.1397 969.247 78.7093 901.211 242.665 912.297C441.509 925.759 612.813 1051.09 799.523 1120.91C1093.82 1231 1438.51 1196.02 1704.61 1029.04C1841.79 942.987 1967.94 793.402 1932.99 635.159" stroke="#11112B" stroke-width="0.85" stroke-linecap="round" stroke-linejoin="round"/>
</g>
<defs>
<clipPath id="clip0_8_5547">
<rect width="3604" height="1725" fill="white" transform="matrix(-0.942419 0.334435 0.334435 0.942419 1947.48 0)"/>
</clipPath>
</defs>
</svg>
