<svg width="161" height="161" viewBox="0 0 161 161" fill="none" xmlns="http://www.w3.org/2000/svg">
<circle cx="80.5" cy="80.5" r="80.5" fill="#11112B"/>
<path d="M72.5751 132.189C72.7189 131.044 73.6179 130.468 74.9741 130.639L77.4004 130.944L76.9349 134.651L74.5538 134.352C73.2126 134.183 72.4294 133.35 72.5751 132.189ZM72.2541 136.94C72.3884 135.87 73.2063 135.33 74.4873 135.492L76.7929 135.782L76.3653 139.188L74.0897 138.901C72.7485 138.732 72.1235 137.98 72.2541 136.94ZM71.2208 131.881C71.0581 133.177 71.8542 134.395 72.975 134.735C71.9236 134.939 70.9983 135.604 70.8318 136.93C70.6482 138.392 71.612 139.738 73.8273 140.016L77.5947 140.49L78.9136 129.986L74.9955 129.493C72.8254 129.22 71.4195 130.299 71.2208 131.881Z" fill="white"/>
<path d="M58.3103 124.35L56.9837 123.745L56.0922 134.908L57.5432 135.57L65.3856 127.578L64.059 126.973L62.31 128.762L58.109 126.846L58.3103 124.35ZM58.0027 128.033L61.4851 129.622L57.5293 133.693L58.0027 128.033Z" fill="white"/>
<path d="M48.0972 124.391C50.2702 122.077 50.0959 118.868 47.9391 116.838C46.2689 115.266 44.1619 114.847 42.1935 115.79L43.3991 116.924C44.6824 116.401 45.9895 116.651 47.1177 117.712C48.7325 119.232 48.836 121.541 47.0686 123.423C45.2907 125.316 42.983 125.355 41.3682 123.835C40.24 122.774 39.9102 121.483 40.3632 120.157L39.1576 119.023C38.3292 121.059 38.8663 123.149 40.5364 124.721C42.6932 126.751 45.9242 126.705 48.0972 124.391Z" fill="white"/>
<path d="M37.2383 102.791L36.3636 101.209L34.0853 108.012L27.1263 106.381L27.9716 107.91L34.3794 109.36L30.0885 111.738L30.7574 112.947L40.0167 107.815L39.3478 106.606L35.1233 108.947L37.2383 102.791Z" fill="white"/>
<path d="M22.9899 88.0913L22.8277 85.1948L32.2754 84.6644L32.1981 83.2844L22.7504 83.8148L22.589 80.9334L21.4668 80.9964L21.8677 88.1542L22.9899 88.0913Z" fill="white"/>
<path d="M29.6655 62.9837C26.5872 62.2084 23.8557 63.9169 23.1265 66.8189C22.401 69.7061 23.996 72.5199 27.0743 73.2952C30.1526 74.0705 32.8878 72.3473 33.6133 69.4601C34.3426 66.5582 32.7438 63.7591 29.6655 62.9837ZM27.4186 71.9253C24.9 71.2909 23.7459 69.2773 24.2901 67.1119C24.8342 64.9465 26.8026 63.7193 29.3212 64.3537C31.8251 64.9843 32.9939 67.0016 32.4498 69.1671C31.9056 71.3325 29.9225 72.5559 27.4186 71.9253Z" fill="white"/>
<path d="M34.9002 44.9538L36.8309 42.7886L43.8863 49.0943L44.8062 48.0627L37.7508 41.757L39.6715 39.6031L38.8334 38.8541L34.0622 44.2048L34.9002 44.9538Z" fill="white"/>
<path d="M57.3495 31.9017C55.72 29.1774 52.5808 28.4561 50.0144 29.9946C47.4611 31.5253 46.601 34.6442 48.2305 37.3685C49.86 40.0928 53.0122 40.8062 55.5656 39.2755C58.1319 37.737 58.9789 34.626 57.3495 31.9017ZM49.442 36.6422C48.1088 34.4132 48.7154 32.1724 50.6304 31.0244C52.5453 29.8764 54.8047 30.399 56.138 32.628C57.4634 34.844 56.8646 37.0978 54.9496 38.2458C53.0346 39.3938 50.7674 38.8581 49.442 36.6422Z" fill="white"/>
<path d="M66.4512 28.3751L65.5699 24.588L67.552 24.1257C69.0903 23.7669 69.9064 24.3251 70.1852 25.5234C70.4538 26.6773 69.9716 27.554 68.4333 27.9128L66.4512 28.3751ZM71.5609 25.2025C71.1684 23.5161 69.7196 22.4503 67.2938 23.0162L63.9657 23.7924L66.3652 34.1034L67.7112 33.7895L66.7094 29.4846L68.6915 29.0223C71.2504 28.4254 71.9258 26.7706 71.5609 25.2025Z" fill="white"/>
<path d="M95.0954 30.9399C94.8245 32.062 93.867 32.5336 92.5383 32.2122L90.1615 31.6373L91.0381 28.0051L93.3706 28.5694C94.6845 28.8872 95.3697 29.803 95.0954 30.9399ZM95.9449 26.2542C95.6919 27.3025 94.8189 27.7477 93.5641 27.4441L91.3053 26.8978L92.1106 23.5609L94.3398 24.1002C95.6537 24.418 96.1908 25.2355 95.9449 26.2542ZM96.4067 31.3977C96.7132 30.128 96.058 28.8287 94.9823 28.3654C96.0498 28.2798 97.0435 27.7232 97.3571 26.4239C97.7027 24.9918 96.8953 23.5463 94.7252 23.0214L91.0345 22.1286L88.5508 32.4197L92.3892 33.3481C94.515 33.8624 96.0326 32.948 96.4067 31.3977Z" fill="white"/>
<path d="M108.394 40.3272L109.645 41.0769L111.778 30.0834L110.41 29.2634L101.724 36.3286L102.975 37.0783L104.913 35.4953L108.873 37.8694L108.394 40.3272ZM109.111 36.7018L105.828 34.7337L110.214 31.1294L109.111 36.7018Z" fill="white"/>
<path d="M118.548 41.4284C116.13 43.4851 115.945 46.6937 117.861 48.952C119.345 50.7007 121.392 51.3523 123.453 50.6358L122.382 49.3735C121.048 49.7502 119.777 49.3558 118.775 48.1746C117.34 46.4838 117.495 44.1783 119.462 42.5054C121.441 40.8227 123.738 41.0418 125.173 42.7326C126.175 43.9139 126.359 45.2334 125.76 46.5L126.832 47.7624C127.883 45.8317 127.582 43.6941 126.099 41.9454C124.182 39.6871 120.966 39.3717 118.548 41.4284Z" fill="white"/>
<path d="M126.926 64.108L127.619 65.7775L130.643 59.2729L137.376 61.6713L136.707 60.0579L130.501 57.9007L135.031 56.0173L134.502 54.7407L124.726 58.8048L125.256 60.0815L129.716 58.2273L126.926 64.108Z" fill="white"/>
<path d="M139.446 80.3109L139.283 83.2074L129.836 82.6771L129.758 84.0571L139.206 84.5875L139.045 87.4688L140.167 87.5318L140.568 80.3739L139.446 80.3109Z" fill="white"/>
<path d="M130.011 104.514C132.983 105.629 135.888 104.237 136.937 101.434C137.98 98.6463 136.709 95.6715 133.737 94.5566C130.765 93.4417 127.855 94.8482 126.811 97.6364C125.762 100.439 127.038 103.399 130.011 104.514ZM133.242 95.8795C135.674 96.7917 136.596 98.9219 135.813 101.013C135.031 103.104 132.937 104.103 130.506 103.191C128.088 102.284 127.152 100.149 127.935 98.0578C128.717 95.9667 130.824 94.9727 133.242 95.8795Z" fill="white"/>
<path d="M122.794 121.845L120.634 123.781L114.327 116.726L113.298 117.648L119.604 124.703L117.455 126.629L118.204 127.467L123.543 122.683L122.794 121.845Z" fill="white"/>
<path d="M99.0271 132.304C100.342 135.193 103.381 136.261 106.103 135.019C108.812 133.784 110.015 130.781 108.7 127.891C107.385 125.002 104.332 123.941 101.624 125.176C98.9016 126.418 97.7122 129.414 99.0271 132.304ZM107.415 128.478C108.491 130.842 107.638 133 105.606 133.927C103.575 134.854 101.388 134.082 100.312 131.718C99.2427 129.367 100.09 127.195 102.121 126.268C104.152 125.342 106.346 126.127 107.415 128.478Z" fill="white"/>
<path d="M89.5892 134.787L90.0421 138.649L88.0207 138.887C86.4519 139.071 85.7032 138.425 85.5599 137.203C85.4219 136.027 85.999 135.209 87.5678 135.025L89.5892 134.787ZM84.157 137.368C84.3587 139.088 85.6795 140.309 88.1534 140.018L91.5475 139.619L90.3144 129.105L88.9416 129.266L89.4565 133.656L87.4351 133.894C84.8254 134.2 83.9695 135.769 84.157 137.368Z" fill="white"/>
<g clip-path="url(#clip0_8_5583)">
<path d="M79.6014 63.5764L66.6002 76.5773C66.2291 76.9484 66.0254 77.443 66.0254 77.9704C66.0254 78.4984 66.2294 78.9927 66.6002 79.3639L67.7809 80.5442C68.1514 80.9151 68.6463 81.1194 69.174 81.1194C69.7015 81.1194 70.2131 80.9151 70.5836 80.5442L78.1848 72.9597V97.0561C78.1848 98.1425 79.0353 99.001 80.1221 99.001H81.7912C82.8779 99.001 83.8142 98.1425 83.8142 97.0561V72.8737L91.4579 80.544C91.829 80.9148 92.3104 81.1191 92.8381 81.1191C93.3653 81.1191 93.8537 80.9148 94.2246 80.544L95.4014 79.3636C95.7726 78.9925 95.9748 78.4981 95.9748 77.9701C95.9748 77.4427 95.7699 76.9481 95.3988 76.577L82.3979 63.5761C82.0256 63.2041 81.5287 62.9995 81.0004 63.001C80.4703 62.9998 79.9731 63.2041 79.6014 63.5764Z" fill="white"/>
</g>
<defs>
<clipPath id="clip0_8_5583">
<rect width="36" height="36" fill="white" transform="matrix(0 -1 1 0 63 99)"/>
</clipPath>
</defs>
</svg>
