<svg width="48" height="48" viewBox="0 0 48 48" fill="none" xmlns="http://www.w3.org/2000/svg">
<path d="M19.3928 26.4961C19.2488 26.4961 16.0808 26.4961 14.6408 26.4961C13.8728 26.4961 13.6328 26.2081 13.6328 25.4881C13.6328 23.5681 13.6328 21.6001 13.6328 19.6801C13.6328 18.9121 13.9208 18.6721 14.6408 18.6721H19.3928C19.3928 18.5281 19.3928 15.7441 19.3928 14.4481C19.3928 12.5281 19.7288 10.7041 20.6888 9.02414C21.6968 7.29614 23.1368 6.14414 24.9608 5.47214C26.1608 5.04014 27.3608 4.84814 28.6568 4.84814H33.3608C34.0328 4.84814 34.3208 5.13614 34.3208 5.80814V11.2801C34.3208 11.9521 34.0328 12.2401 33.3608 12.2401C32.0648 12.2401 30.7688 12.2401 29.4728 12.2881C28.1768 12.2881 27.5048 12.9121 27.5048 14.2561C27.4568 15.6961 27.5048 17.0881 27.5048 18.5761H33.0728C33.8408 18.5761 34.1288 18.8641 34.1288 19.6321V25.4401C34.1288 26.2081 33.8888 26.4481 33.0728 26.4481C31.3448 26.4481 27.6488 26.4481 27.5048 26.4481V42.0961C27.5048 42.9121 27.2648 43.2001 26.4008 43.2001C24.3848 43.2001 22.4168 43.2001 20.4008 43.2001C19.6808 43.2001 19.3928 42.9121 19.3928 42.1921C19.3928 37.1521 19.3928 26.6401 19.3928 26.4961Z" fill="#11112B"/>
</svg>
