<svg width="550" height="586" viewBox="0 0 550 586" fill="none" xmlns="http://www.w3.org/2000/svg">
<g opacity="0.25">
<path d="M1341.12 238.207C1330.81 144.814 1245.23 85.3394 1154.4 83.1327C1063.57 80.926 970.315 125.378 888.117 181.669C805.919 237.96 730.918 306.635 648.845 363.139C566.772 419.642 473.767 464.614 382.806 463.231C272.489 461.544 183.685 393.272 83.2339 358.098C-75.0964 302.628 -269.524 333.963 -427.293 440.386C-508.622 495.236 -587.275 587.063 -576.43 678.936" stroke="white" stroke-width="0.85" stroke-linecap="round" stroke-linejoin="round"/>
<path d="M1352.16 256.753C1341.85 163.361 1256.27 103.886 1165.44 101.679C1074.61 99.4724 981.356 143.924 899.158 200.215C816.96 256.506 741.959 325.181 659.886 381.685C577.813 438.188 484.808 483.161 393.847 481.777C283.53 480.09 194.726 411.819 94.2749 376.644C-64.0554 321.175 -258.483 352.509 -416.252 458.932C-497.581 513.782 -576.234 605.61 -565.389 697.482" stroke="white" stroke-width="0.85" stroke-linecap="round" stroke-linejoin="round"/>
<path d="M1363.2 275.321C1352.9 181.929 1267.31 122.454 1176.49 120.248C1085.66 118.041 992.401 162.493 910.203 218.784C828.005 275.075 753.004 343.75 670.931 400.253C588.858 456.757 495.853 501.729 404.891 500.346C294.575 498.659 205.771 430.387 105.32 395.213C-53.0105 339.743 -247.438 371.078 -405.208 477.501C-486.537 532.35 -565.189 624.178 -554.344 716.051" stroke="white" stroke-width="0.85" stroke-linecap="round" stroke-linejoin="round"/>
<path d="M1374.23 293.898C1363.92 200.506 1278.34 141.031 1187.51 138.825C1096.68 136.618 1003.42 181.07 921.227 237.361C839.029 293.652 764.027 362.327 681.954 418.83C599.881 475.334 506.877 520.306 415.915 518.923C305.599 517.236 216.794 448.964 116.343 413.79C-41.987 358.32 -236.415 389.655 -394.184 496.078C-475.513 550.928 -554.166 642.755 -543.321 734.628" stroke="white" stroke-width="0.85" stroke-linecap="round" stroke-linejoin="round"/>
<path d="M1385.27 312.466C1374.97 219.074 1289.39 159.599 1198.56 157.392C1107.73 155.186 1014.47 199.638 932.274 255.929C850.076 312.22 775.074 380.895 693.001 437.398C610.928 493.902 517.924 538.874 426.962 537.491C316.645 535.804 227.841 467.532 127.39 432.358C-30.9402 376.888 -225.368 408.223 -383.137 514.646C-464.466 569.495 -543.119 661.323 -532.274 753.196" stroke="white" stroke-width="0.85" stroke-linecap="round" stroke-linejoin="round"/>
<path d="M1396.31 331.013C1386.01 237.62 1300.42 178.146 1209.59 175.939C1118.76 173.732 1025.51 218.184 943.313 274.475C861.115 330.766 786.113 399.441 704.04 455.945C621.967 512.448 528.963 557.421 438.001 556.037C327.685 554.35 238.88 486.078 138.429 450.904C-19.9011 395.434 -214.329 426.769 -372.098 533.192C-453.427 588.042 -532.08 679.869 -521.235 771.742" stroke="white" stroke-width="0.85" stroke-linecap="round" stroke-linejoin="round"/>
<path d="M1407.36 349.581C1397.05 256.188 1311.47 196.713 1220.64 194.507C1129.81 192.3 1036.56 236.752 954.358 293.043C872.16 349.334 797.158 418.009 715.085 474.513C633.012 531.016 540.008 575.988 449.046 574.605C338.729 572.918 249.925 504.646 149.474 469.472C-8.85621 414.002 -203.284 445.337 -361.053 551.76C-442.382 606.61 -521.035 698.437 -510.19 790.31" stroke="white" stroke-width="0.85" stroke-linecap="round" stroke-linejoin="round"/>
<path d="M1418.38 368.158C1408.07 274.765 1322.49 215.291 1231.66 213.084C1140.83 210.877 1047.58 255.329 965.381 311.62C883.183 367.911 808.182 436.586 726.109 493.09C644.036 549.593 551.031 594.566 460.069 593.182C349.753 591.495 260.949 523.223 160.498 488.049C2.16723 432.579 -192.261 463.914 -350.03 570.337C-431.359 625.187 -510.011 717.014 -499.166 808.887" stroke="white" stroke-width="0.85" stroke-linecap="round" stroke-linejoin="round"/>
<path d="M1429.43 386.726C1419.12 293.334 1333.54 233.859 1242.71 231.652C1151.88 229.446 1058.63 273.897 976.428 330.188C894.23 386.48 819.228 455.155 737.155 511.658C655.082 568.161 562.078 613.134 471.116 611.751C360.8 610.063 271.996 541.792 171.544 506.617C13.2142 451.148 -181.214 482.483 -338.983 588.905C-420.312 643.755 -498.965 735.583 -488.119 827.456" stroke="white" stroke-width="0.85" stroke-linecap="round" stroke-linejoin="round"/>
<path d="M1440.47 405.294C1430.17 311.902 1344.58 252.427 1253.75 250.22C1162.93 248.013 1069.67 292.465 987.473 348.756C905.275 405.047 830.273 473.723 748.2 530.226C666.127 586.729 573.123 631.702 482.161 630.318C371.845 628.631 283.04 560.36 182.589 525.185C24.259 469.716 -170.169 501.05 -327.938 607.473C-409.267 662.323 -487.92 754.151 -477.075 846.024" stroke="white" stroke-width="0.85" stroke-linecap="round" stroke-linejoin="round"/>
</g>
</svg>
