<svg width="36" height="28" viewBox="0 0 36 28" fill="none" xmlns="http://www.w3.org/2000/svg">
<path d="M32.5992 2.5999C34.5992 4.7999 35.7992 7.1999 35.7992 11.1999C35.7992 18.1999 30.7992 24.3999 23.7992 27.5999L21.9992 24.9999C28.5992 21.3999 29.9992 16.7999 30.3992 13.7999C29.3992 14.3999 27.9992 14.5999 26.5992 14.3999C22.9992 13.9999 20.1992 11.1999 20.1992 7.3999C20.1992 5.5999 20.9992 3.7999 22.1992 2.3999C23.5992 0.999902 25.1992 0.399902 27.1992 0.399902C29.3992 0.399902 31.3992 1.3999 32.5992 2.5999ZM12.5992 2.5999C14.5992 4.7999 15.7992 7.1999 15.7992 11.1999C15.7992 18.1999 10.7992 24.3999 3.79922 27.5999L1.99922 24.9999C8.59922 21.3999 9.99922 16.7999 10.3992 13.7999C9.39922 14.3999 7.99922 14.5999 6.59922 14.3999C2.99922 13.9999 0.199219 10.9999 0.199219 7.3999C0.199219 5.5999 0.999219 3.7999 2.19922 2.3999C3.59922 0.999902 5.19922 0.399902 7.19922 0.399902C9.39922 0.399902 11.3992 1.3999 12.5992 2.5999Z" fill="#11112B"/>
</svg>
