<svg width="180" height="140" viewBox="0 0 180 140" fill="none" xmlns="http://www.w3.org/2000/svg">
<g clip-path="url(#clip0_8_3809)">
<path d="M89.9998 140C79.9443 140 72.6501 132.61 64.939 124.778C58.937 118.689 52.7369 112.396 45.0676 109.804C31.021 105.051 15.7449 101.78 0.96892 98.6225L0.0102539 98.4188L37.888 0L38.086 0.101859C45.8803 4.1536 53.9873 7.69604 62.1881 10.6613C64.7202 11.578 66.8147 13.2417 68.2423 15.4713C73.7025 23.9822 79.8609 32.0517 86.5507 39.4535C87.4677 40.4721 88.6973 41.0267 89.9998 41.0267C91.3024 41.0267 92.532 40.4721 93.4489 39.4535C100.139 32.0631 106.297 23.9935 111.757 15.4713C113.195 13.2304 115.29 11.5667 117.812 10.6613C126.002 7.70736 134.109 4.1536 141.914 0.101859L142.112 0L142.195 0.215036L180 98.4074L179.75 98.464C177.603 98.9281 175.404 99.3808 173.164 99.8448C158.315 102.923 141.486 106.409 128.305 113.222C122.886 116.018 118.218 120.85 113.706 125.536C106.839 132.643 99.7324 140 89.9998 140ZM0.58337 98.0792L1.04186 98.1811C15.8282 101.339 31.1148 104.598 45.1822 109.374C52.9453 112 59.187 118.338 65.2204 124.449C72.8689 132.213 80.1006 139.547 89.9998 139.547C99.8991 139.547 106.297 132.576 113.425 125.208C117.968 120.511 122.657 115.644 128.138 112.815C141.372 105.979 158.221 102.493 173.091 99.4034C175.238 98.962 177.353 98.5206 179.427 98.0792L141.903 0.611156C134.151 4.62894 126.096 8.14875 117.957 11.0914C115.509 11.9741 113.487 13.5812 112.112 15.7316C106.641 24.2652 100.462 32.3573 93.7616 39.7704C92.7612 40.8682 91.4378 41.4794 90.0102 41.4794C88.5827 41.4794 87.2593 40.8682 86.2589 39.7704C79.5587 32.3573 73.3795 24.2652 67.9088 15.7316C66.5229 13.5812 64.5014 11.9741 62.063 11.0914C53.9248 8.14875 45.8595 4.62894 38.1172 0.611156L0.58337 98.0792Z" fill="#11112B"/>
<path d="M90.0001 125.581C80.4239 125.581 73.6507 118.202 66.4711 110.382C60.8858 104.293 55.1026 98 47.8396 95.3856C34.4912 90.5869 19.2464 87.1237 5.8042 84.0566L5.88756 83.6152C19.3506 86.6823 34.6059 90.1569 47.9751 94.9556C55.3422 97.6039 61.1568 103.942 66.7733 110.065C73.8903 117.817 80.601 125.129 90.0105 125.129C99.42 125.129 105.38 118.168 111.997 110.8C116.228 106.092 120.604 101.214 125.773 98.4075C138.256 91.6055 154.345 88.0291 168.538 84.8715C170.434 84.4527 172.31 84.034 174.133 83.6152L174.217 84.0566C172.393 84.4754 170.518 84.8941 168.621 85.3129C154.46 88.4705 138.402 92.0356 125.96 98.8036C120.855 101.588 116.499 106.432 112.299 111.117C105.912 118.236 99.3054 125.581 90.0105 125.581H90.0001Z" fill="#11112B"/>
<path d="M89.9999 114.501C81.8304 114.501 74.8696 105.899 68.1277 97.5696C63.0947 91.3448 58.3326 85.4709 53.2579 83.2187C44.3069 79.2462 31.6359 76.281 20.4653 73.6666C16.9641 72.8517 13.6609 72.0708 10.6807 71.3125L10.7744 70.8711C13.7546 71.6294 17.0579 72.399 20.5487 73.2139C31.7401 75.8283 44.4215 78.8048 53.4038 82.7886C58.5723 85.0748 63.3552 90.994 68.4299 97.264C75.0989 105.515 82.0075 114.037 89.9894 114.037C98.3674 114.037 105.005 105.616 111.434 97.479C116.405 91.1864 121.094 85.2446 126.565 82.7886C135.953 78.5785 147.416 75.9527 158.503 73.4063C162.265 72.5461 165.818 71.7312 169.194 70.8711L169.288 71.3125C165.901 72.1726 162.348 72.9875 158.586 73.8477C147.52 76.3828 136.078 79.0085 126.721 83.2074C121.334 85.6181 116.676 91.5259 111.747 97.7733C105.266 105.99 98.5549 114.49 89.9894 114.49L89.9999 114.501Z" fill="#11112B"/>
<path d="M88.6349 100.977C80.0486 100.977 75.0677 93.6428 70.2327 86.5466C66.8357 81.5555 63.3136 76.3946 58.562 73.6784C50.2779 68.9589 36.2417 65.4165 24.967 62.5757C21.3511 61.659 17.9333 60.7988 15.0469 59.984L15.1511 59.5426C18.0271 60.3574 21.4449 61.2176 25.0608 62.123C36.3564 64.9751 50.4237 68.5175 58.7496 73.2596C63.5846 76.0098 67.1379 81.216 70.5557 86.2524C75.8076 93.971 80.778 101.248 89.9791 100.433C98.6488 99.6638 103.296 93.3033 108.215 86.5579C111.851 81.5668 115.623 76.406 121.25 73.2483C130.316 68.1553 142.81 65.0769 153.835 62.3607C157.753 61.3987 161.452 60.4819 164.849 59.5312L164.953 59.9726C161.546 60.9346 157.846 61.8401 153.928 62.8134C142.935 65.5183 130.462 68.5967 121.448 73.6671C115.905 76.7794 112.164 81.9064 108.548 86.8522C103.567 93.6654 98.8676 100.105 90.0208 100.897C89.5519 100.943 89.083 100.954 88.6349 100.954V100.977Z" fill="#11112B"/>
<path d="M88.6976 90.8242C80.4864 90.8242 75.4846 83.2639 70.6288 75.9527C67.4923 71.2219 64.2516 66.3213 60.1772 63.5259C53.4457 58.9082 38.6906 55.0715 27.916 52.2647C24.394 51.348 21.3513 50.5558 18.9546 49.8428L19.0692 49.4014C21.4659 50.1144 24.4982 50.9066 28.0202 51.8234C38.8261 54.6301 53.6229 58.4782 60.4065 63.1411C64.5538 65.9818 67.8153 70.9163 70.9726 75.6811C76.2349 83.6261 81.2158 91.1524 89.9792 90.3036C98.3467 89.5113 103.234 82.7546 108.413 75.6132C111.716 71.0521 115.134 66.3327 119.583 63.1411C126.971 57.8331 140.028 54.6528 150.511 52.1063C154.335 51.1782 157.94 50.2955 160.921 49.4127L161.035 49.8541C158.045 50.7482 154.429 51.6196 150.604 52.5477C140.153 55.0942 127.138 58.2518 119.813 63.5259C115.415 66.6835 112.018 71.369 108.736 75.9074C103.494 83.1281 98.5551 89.9527 90.0105 90.7676C89.5624 90.8128 89.1248 90.8355 88.6871 90.8355L88.6976 90.8242Z" fill="#11112B"/>
<path d="M90.0002 83.8866C84.1231 83.8866 76.4225 74.5947 69.6389 66.4007C65.4917 61.3983 61.5736 56.6675 58.583 54.6643C50.3927 49.1752 40.3996 46.176 30.7504 43.2673C27.8744 42.4072 25.1547 41.581 22.4663 40.6982L22.5914 40.2682C25.2798 41.1509 27.9891 41.9658 30.8651 42.826C40.5559 45.7346 50.5698 48.7564 58.8123 54.2795C61.8446 56.3167 65.7834 61.0701 69.9515 66.0952C76.683 74.2213 84.3107 83.4226 90.0106 83.4226C96.4086 83.4226 101.921 74.9795 106.777 67.5212C109.538 63.277 112.154 59.2819 114.613 57.3692C123.189 50.6918 137.673 46.3118 149.323 42.7807C152.23 41.8979 154.991 41.0604 157.43 40.2568L157.555 40.6869C155.106 41.4905 152.355 42.328 149.437 43.2108C137.829 46.7306 123.387 51.1105 114.863 57.7314C112.466 59.5988 109.872 63.5713 107.131 67.7815C102.213 75.3191 96.6379 83.8753 90.021 83.8753L90.0002 83.8866Z" fill="#11112B"/>
<path d="M90.0002 75.6018C84.4045 75.6018 77.027 66.2647 70.5143 58.0368C66.5754 53.0456 62.845 48.3375 60.0523 46.3795C52.2684 40.9357 42.6921 37.8912 33.4389 34.96C30.7296 34.0998 28.1767 33.2963 25.6445 32.4135L25.7696 31.9834C28.2913 32.8549 30.8443 33.6584 33.5535 34.5186C42.838 37.4612 52.4455 40.5056 60.2816 45.9947C63.1263 47.9866 66.8672 52.7174 70.8373 57.7312C77.2875 65.8912 84.6025 75.1378 90.0002 75.1378C96.1482 75.1378 101.421 66.6269 106.079 59.1119C108.684 54.9018 111.143 50.9292 113.435 49.0844C121.595 42.4749 135.506 38.0271 146.687 34.4507C149.396 33.5792 151.959 32.7643 154.231 31.9834L154.356 32.4135C152.074 33.2057 149.51 34.0206 146.801 34.892C135.651 38.4571 121.782 42.905 113.686 49.4579C111.456 51.2575 109.017 55.2073 106.433 59.3722C101.723 66.9777 96.3774 75.5905 90.0106 75.5905L90.0002 75.6018Z" fill="#11112B"/>
<path d="M88.6556 64.873C81.6324 64.873 76.4847 57.7202 71.0662 50.1826C67.1377 44.7161 63.0634 39.0573 58.1555 36.1826C52.2263 32.708 45.0988 30.4105 38.211 28.1923C34.814 27.0945 31.615 26.0645 28.541 24.8988L28.6765 24.4688C31.74 25.6345 34.9391 26.6644 38.3257 27.7622C45.2343 29.9918 52.3722 32.3006 58.343 35.7865C63.3343 38.7064 67.4295 44.3992 71.3892 49.9109C77.0787 57.8333 82.4556 65.2917 89.9686 64.341C97.2003 63.4016 101.389 57.7541 105.828 51.7671C108.558 48.0888 111.372 44.2974 115.061 41.3208C123.73 34.3265 133.421 30.8859 143.685 27.2416C146.176 26.3588 148.76 25.4421 151.302 24.4688L151.438 24.8988C148.885 25.8721 146.301 26.7889 143.81 27.6717C133.577 31.3046 123.918 34.7452 115.3 41.683C111.653 44.6256 108.85 48.3944 106.141 52.05C101.65 58.105 97.3983 63.8317 89.9999 64.7824C89.5309 64.839 89.0829 64.873 88.6348 64.873H88.6556Z" fill="#11112B"/>
<path d="M88.6767 57.9923C81.9139 57.9923 77.0268 50.8395 71.8584 43.3019C68.1071 37.8241 64.2307 32.1653 59.5207 29.2906C53.8729 25.85 47.0477 23.5412 40.4412 21.3003C37.1901 20.2025 34.1265 19.1612 31.188 17.9955L31.3339 17.5654C34.262 18.7198 37.3255 19.7611 40.5662 20.8589C47.1935 23.0998 54.0501 25.4199 59.7291 28.8831C64.5121 31.8031 68.4197 37.4959 72.1918 43.0189C77.6208 50.9413 82.7476 58.4223 89.9688 57.4377C96.9608 56.4757 100.941 50.8395 105.162 44.8637C107.756 41.1855 110.434 37.394 113.977 34.4175C122.272 27.4571 131.577 23.9939 141.435 20.3156C143.8 19.4329 146.249 18.5274 148.666 17.5654L148.812 17.9955C146.384 18.9575 143.935 19.8742 141.57 20.757C131.754 24.4126 122.48 27.8759 114.238 34.791C110.736 37.7223 108.079 41.5024 105.495 45.1467C101.223 51.1903 97.1901 56.9058 90.0313 57.8904C89.5728 57.9583 89.1248 57.981 88.6871 57.981L88.6767 57.9923Z" fill="#11112B"/>
<path d="M88.6973 51.6884C82.1847 51.6884 77.5164 44.5356 72.5772 36.998C68.9926 31.5202 65.2934 25.8501 60.771 22.9867C55.3941 19.5801 48.8189 17.2486 42.473 15.0077C39.3573 13.8986 36.4188 12.8573 33.6157 11.7029L33.7616 11.2842C36.5542 12.4386 39.4928 13.4798 42.6084 14.5776C48.9752 16.8299 55.5713 19.1726 60.9898 22.6019C65.5852 25.5105 69.3156 31.2147 72.921 36.7377C78.1103 44.6714 83.0079 52.1524 89.979 51.1451C96.7522 50.1605 100.545 44.5356 104.557 38.5712C107.027 34.8929 109.59 31.1015 112.987 28.1362C120.938 21.2098 129.889 17.7126 139.361 14.0231C141.612 13.1516 143.935 12.2349 146.238 11.2842L146.384 11.7029C144.071 12.6649 141.747 13.5704 139.496 14.4418C130.055 18.1201 121.136 21.6059 113.248 28.4871C109.892 31.4184 107.35 35.1872 104.89 38.8428C100.827 44.8864 96.9815 50.5906 90.0311 51.5978C89.5831 51.6657 89.135 51.6997 88.6973 51.6997V51.6884Z" fill="#11112B"/>
<path d="M90.0001 46.4595C88.3537 46.4595 86.7073 45.7918 85.4568 44.445C78.4961 36.964 72.0772 28.7699 66.3669 20.1006C65.3665 18.584 63.9806 17.4862 62.3447 16.9316C53.3415 13.8759 44.4218 10.1523 35.8354 5.87423L36.0126 5.4668C44.5885 9.74489 53.4874 13.4571 62.4801 16.5016C64.1995 17.0788 65.6583 18.2332 66.7107 19.8403C72.4002 28.487 78.8087 36.6584 85.7486 44.1168C88.0932 46.6406 91.907 46.6293 94.2411 44.1168C101.181 36.6584 107.59 28.487 113.279 19.8403C114.331 18.2445 115.801 17.0901 117.52 16.5016C126.502 13.4458 135.412 9.73357 143.988 5.4668L144.165 5.87423C135.578 10.1636 126.659 13.8759 117.656 16.9316C116.02 17.4862 114.634 18.584 113.633 20.1006C107.923 28.7699 101.504 36.964 94.5433 44.445C93.2929 45.7918 91.6465 46.4595 90.0001 46.4595Z" fill="#11112B"/>
<path d="M163.203 101.848C158.065 85.5274 152.97 69.0828 148.051 53.1814C143.133 37.2801 138.048 20.8354 132.9 4.51529L133.296 4.36816C138.434 20.6883 143.529 37.1329 148.447 53.0343C153.366 68.9357 158.451 85.3803 163.599 101.7L163.203 101.848Z" fill="#11112B"/>
<path d="M146.322 106.047C142.32 89.7271 138.392 73.7352 134.463 57.7433C130.535 41.7514 126.606 25.7708 122.605 9.43935L123.011 9.32617C127.013 25.6463 130.941 41.6382 134.87 57.6301C138.798 73.622 142.727 89.6026 146.728 105.934L146.322 106.047Z" fill="#11112B"/>
<path d="M130.91 111.615C128.055 95.3065 125.044 78.7939 122.126 62.836C119.198 46.8327 116.176 30.2862 113.321 13.9435L113.727 13.8643C116.582 30.207 119.604 46.7422 122.532 62.7454C125.45 78.7147 128.461 95.2272 131.317 111.536L130.91 111.615Z" fill="#11112B"/>
<path d="M114.498 124.269C112.789 107.949 110.986 91.4135 109.236 75.4329C107.496 59.4523 105.693 42.9172 103.974 26.597L104.39 26.5518C106.099 42.8719 107.902 59.4071 109.653 75.3877C111.393 91.3683 113.196 107.903 114.915 124.224L114.498 124.269Z" fill="#11112B"/>
<path d="M97.8986 138.415C97.3359 122.163 96.7628 105.107 96.221 88.6061C95.6687 71.9691 95.0956 54.7661 94.5225 38.3781L94.9393 38.3555C95.5124 54.7435 96.0855 71.9464 96.6378 88.5834C97.1901 105.073 97.7527 122.129 98.3154 138.381L97.8986 138.404V138.415Z" fill="#11112B"/>
<path d="M82.4974 138.2L82.0806 138.178C82.6537 121.857 83.1122 104.779 83.5603 88.2665C84.0083 71.754 84.4668 54.6756 85.0399 38.3555L85.4567 38.3781C84.8836 54.6982 84.4251 71.7766 83.9771 88.2892C83.529 104.802 83.0601 121.88 82.4974 138.2Z" fill="#11112B"/>
<path d="M65.7 124.914L65.2832 124.857C67.0026 108.503 68.6906 91.7189 70.337 75.5006C71.973 59.3389 73.6611 42.6227 75.37 26.3252L75.7869 26.3705C74.0779 42.6566 72.3898 59.3729 70.7539 75.5346C69.1179 91.7642 67.4194 108.537 65.7 124.902V124.914Z" fill="#11112B"/>
<path d="M49.4962 111.616L49.0898 111.536C51.945 95.2163 54.7168 78.5793 57.3948 62.4855C60.0728 46.3917 62.8446 29.7547 65.6998 13.4346L66.1062 13.5138C63.251 29.8339 60.4792 46.4709 57.8012 62.5647C55.1232 78.6585 52.3514 95.2955 49.4962 111.616Z" fill="#11112B"/>
<path d="M34.0744 106.047L33.668 105.934C37.6694 89.6024 41.4623 73.2257 45.1407 57.3923C48.8086 41.5701 52.6016 25.216 56.603 8.90723L57.0094 9.0204C53.0184 25.3292 49.2255 41.6833 45.5575 57.5054C41.8896 73.3389 38.0862 89.7156 34.0848 106.047H34.0744Z" fill="#11112B"/>
<path d="M16.7973 101.848L16.4014 101.701C21.5386 85.3809 26.6028 69.3097 31.6567 53.2499C36.7105 37.1901 41.7748 21.1303 46.912 4.79883L47.3079 4.94596C42.1707 21.2661 37.1065 37.3372 32.0526 53.3971C26.9988 69.4569 21.9345 85.5167 16.7973 101.848Z" fill="#11112B"/>
</g>
<defs>
<clipPath id="clip0_8_3809">
<rect width="180" height="140" fill="white"/>
</clipPath>
</defs>
</svg>
