<svg width="86" height="86" viewBox="0 0 86 86" fill="none" xmlns="http://www.w3.org/2000/svg">
<path d="M61.5315 27.2858L50.1982 38.6191L54.5764 42.9973L65.9097 31.664L61.5315 27.2858Z" fill="white"/>
<path d="M38.6214 50.194L27.2881 61.5273L31.6662 65.9055L42.9995 54.5722L38.6214 50.194Z" fill="white"/>
<path d="M54.3323 20.0896L42.999 31.4229L47.3771 35.801L58.7104 24.4677L54.3323 20.0896Z" fill="white"/>
<path d="M31.4222 43.0026L20.0889 54.3359L24.467 58.7141L35.8003 47.3808L31.4222 43.0026Z" fill="white"/>
<path d="M24.4699 27.2859L20.0918 31.6641L31.4251 42.9974L35.8032 38.6192L24.4699 27.2859Z" fill="white"/>
<path d="M31.6662 20.0916L27.2881 24.4697L38.6214 35.803L42.9995 31.4249L31.6662 20.0916Z" fill="white"/>
<path d="M54.5744 43.0027L50.1963 47.3809L61.5296 58.7142L65.9077 54.336L54.5744 43.0027Z" fill="white"/>
<path d="M47.382 50.1971L43.0039 54.5752L54.3372 65.9085L58.7153 61.5304L47.382 50.1971Z" fill="white"/>
<path d="M58.7091 70.2887L54.333 65.9082L42.9981 77.2431L31.6676 65.9082L27.2871 70.2887L42.9981 85.9997L58.7091 70.2887Z" fill="white"/>
<path d="M20.087 31.6676L15.711 27.2871L0 42.9981L15.711 58.7091L20.087 54.333L8.75657 42.9981L20.087 31.6676Z" fill="white"/>
<path d="M70.2887 27.2871L65.9082 31.6676L77.2431 42.9981L65.9082 54.333L70.2887 58.7091L85.9997 42.9981L70.2887 27.2871Z" fill="white"/>
<path d="M54.333 20.087L58.7091 15.711L42.9981 0L27.2871 15.711L31.6676 20.087L42.9981 8.75657L54.333 20.087Z" fill="white"/>
</svg>
